<?xml version="1.0" encoding="UTF-8" standalone="no"?>
<!DOCTYPE svg PUBLIC "-//W3C//DTD SVG 1.1//EN"
 "http://www.w3.org/Graphics/SVG/1.1/DTD/svg11.dtd">
<!-- Generated by graphviz version 2.43.0 (0)
 -->
<!-- Title: cli/cli.h Pages: 1 -->
<svg width="1120pt" height="252pt"
 viewBox="0.00 0.00 1119.50 252.00" xmlns="http://www.w3.org/2000/svg" xmlns:xlink="http://www.w3.org/1999/xlink">
<g id="graph0" class="graph" transform="scale(1 1) rotate(0) translate(4 248)">
<title>cli/cli.h</title>
<!-- Node1 -->
<g id="node1" class="node">
<title>Node1</title>
<g id="a_node1"><a xlink:title="cli framework">
<polygon fill="#bfbfbf" stroke="black" points="938,-224.5 938,-243.5 989,-243.5 989,-224.5 938,-224.5"/>
<text text-anchor="middle" x="963.5" y="-231.5" font-family="Helvetica,sans-Serif" font-size="10.00">cli/cli.h</text>
</a>
</g>
</g>
<!-- Node2 -->
<g id="node2" class="node">
<title>Node2</title>
<g id="a_node2"><a xlink:href="uo__types_8h.html" target="_top" xlink:title="API parameter and return types.">
<polygon fill="none" stroke="black" points="461,-168.5 461,-187.5 556,-187.5 556,-168.5 461,-168.5"/>
<text text-anchor="middle" x="508.5" y="-175.5" font-family="Helvetica,sans-Serif" font-size="10.00">uout/uo_types.h</text>
</a>
</g>
</g>
<!-- Node1&#45;&gt;Node2 -->
<g id="edge1" class="edge">
<title>Node1&#45;&gt;Node2</title>
<path fill="none" stroke="midnightblue" d="M937.73,-229.94C866.56,-221.49 665.94,-197.69 566.24,-185.85"/>
<polygon fill="midnightblue" stroke="midnightblue" points="566.38,-182.34 556.04,-184.64 565.56,-189.3 566.38,-182.34"/>
</g>
<!-- Node17 -->
<g id="node17" class="node">
<title>Node17</title>
<g id="a_node17"><a xlink:href="cli__types_8h.html" target="_top" xlink:title="cli framework: vocabulary types">
<polygon fill="none" stroke="black" points="942,-56.5 942,-75.5 1011,-75.5 1011,-56.5 942,-56.5"/>
<text text-anchor="middle" x="976.5" y="-63.5" font-family="Helvetica,sans-Serif" font-size="10.00">cli_types.h</text>
</a>
</g>
</g>
<!-- Node1&#45;&gt;Node17 -->
<g id="edge25" class="edge">
<title>Node1&#45;&gt;Node17</title>
<path fill="none" stroke="midnightblue" d="M964.2,-224.08C966.25,-197.95 972.25,-121.21 975.05,-85.58"/>
<polygon fill="midnightblue" stroke="midnightblue" points="978.54,-85.81 975.83,-75.57 971.56,-85.26 978.54,-85.81"/>
</g>
<!-- Node18 -->
<g id="node18" class="node">
<title>Node18</title>
<g id="a_node18"><a xlink:title=" ">
<polygon fill="none" stroke="#bfbfbf" points="991.5,-168.5 991.5,-187.5 1111.5,-187.5 1111.5,-168.5 991.5,-168.5"/>
<text text-anchor="middle" x="1051.5" y="-175.5" font-family="Helvetica,sans-Serif" font-size="10.00">jsmn/jsmn_iterate.hh</text>
</a>
</g>
</g>
<!-- Node1&#45;&gt;Node18 -->
<g id="edge28" class="edge">
<title>Node1&#45;&gt;Node18</title>
<path fill="none" stroke="midnightblue" d="M977.64,-224.32C991.37,-215.9 1012.44,-202.97 1028.56,-193.07"/>
<polygon fill="midnightblue" stroke="midnightblue" points="1030.7,-195.87 1037.4,-187.65 1027.04,-189.9 1030.7,-195.87"/>
</g>
<!-- Node3 -->
<g id="node3" class="node">
<title>Node3</title>
<g id="a_node3"><a xlink:href="so__target__bits_8h.html" target="_top" xlink:title="flags to select output formats and targets">
<polygon fill="none" stroke="black" points="0,-0.5 0,-19.5 95,-19.5 95,-0.5 0,-0.5"/>
<text text-anchor="middle" x="47.5" y="-7.5" font-family="Helvetica,sans-Serif" font-size="10.00">so_target_bits.h</text>
</a>
</g>
</g>
<!-- Node2&#45;&gt;Node3 -->
<g id="edge2" class="edge">
<title>Node2&#45;&gt;Node3</title>
<path fill="none" stroke="midnightblue" d="M460.71,-174.92C346.83,-168.84 64.78,-146.8 9.5,-76 -2.79,-60.27 13.11,-40.17 27.94,-26.52"/>
<polygon fill="midnightblue" stroke="midnightblue" points="30.59,-28.85 35.88,-19.67 26.02,-23.55 30.59,-28.85"/>
</g>
<!-- Node4 -->
<g id="node4" class="node">
<title>Node4</title>
<g id="a_node4"><a xlink:href="uout__writer_8hh.html" target="_top" xlink:title="Provide an output class hierarchy which knows about the required format (text or JSON) and write func...">
<polygon fill="none" stroke="black" points="418.5,-112.5 418.5,-131.5 504.5,-131.5 504.5,-112.5 418.5,-112.5"/>
<text text-anchor="middle" x="461.5" y="-119.5" font-family="Helvetica,sans-Serif" font-size="10.00">uout_writer.hh</text>
</a>
</g>
</g>
<!-- Node2&#45;&gt;Node4 -->
<g id="edge3" class="edge">
<title>Node2&#45;&gt;Node4</title>
<path fill="none" stroke="midnightblue" d="M500.74,-168.08C493.96,-160.3 483.96,-148.8 475.74,-139.37"/>
<polygon fill="midnightblue" stroke="midnightblue" points="478.32,-137 469.12,-131.75 473.04,-141.59 478.32,-137"/>
</g>
<!-- Node5 -->
<g id="node5" class="node">
<title>Node5</title>
<g id="a_node5"><a xlink:href="so__out_8h.html" target="_top" xlink:title="write formatted output to UoutWriter">
<polygon fill="none" stroke="black" points="18.5,-56.5 18.5,-75.5 76.5,-75.5 76.5,-56.5 18.5,-56.5"/>
<text text-anchor="middle" x="47.5" y="-63.5" font-family="Helvetica,sans-Serif" font-size="10.00">so_out.h</text>
</a>
</g>
</g>
<!-- Node2&#45;&gt;Node5 -->
<g id="edge20" class="edge">
<title>Node2&#45;&gt;Node5</title>
<path fill="none" stroke="midnightblue" d="M472.42,-168.49C434.2,-159.46 372.08,-144.77 318.5,-132 235.99,-112.33 139.4,-89.12 86.7,-76.44"/>
<polygon fill="midnightblue" stroke="midnightblue" points="87.31,-72.99 76.77,-74.05 85.67,-79.79 87.31,-72.99"/>
</g>
<!-- Node6 -->
<g id="node6" class="node">
<title>Node6</title>
<g id="a_node6"><a xlink:href="uout__builder__json_8hh.html" target="_top" xlink:title="Create JSON output from key/val pairs.">
<polygon fill="none" stroke="black" points="132.5,-56.5 132.5,-75.5 250.5,-75.5 250.5,-56.5 132.5,-56.5"/>
<text text-anchor="middle" x="191.5" y="-63.5" font-family="Helvetica,sans-Serif" font-size="10.00">uout_builder_json.hh</text>
</a>
</g>
</g>
<!-- Node2&#45;&gt;Node6 -->
<g id="edge21" class="edge">
<title>Node2&#45;&gt;Node6</title>
<path fill="none" stroke="midnightblue" d="M483.89,-168.46C427.83,-149.01 290.51,-101.36 226.01,-78.98"/>
<polygon fill="midnightblue" stroke="midnightblue" points="226.91,-75.58 216.31,-75.61 224.61,-82.2 226.91,-75.58"/>
</g>
<!-- Node10 -->
<g id="node10" class="node">
<title>Node10</title>
<g id="a_node10"><a xlink:title=" ">
<polygon fill="none" stroke="#bfbfbf" points="510,-0.5 510,-19.5 563,-19.5 563,-0.5 510,-0.5"/>
<text text-anchor="middle" x="536.5" y="-7.5" font-family="Helvetica,sans-Serif" font-size="10.00">stdint.h</text>
</a>
</g>
</g>
<!-- Node2&#45;&gt;Node10 -->
<g id="edge22" class="edge">
<title>Node2&#45;&gt;Node10</title>
<path fill="none" stroke="midnightblue" d="M556.2,-171.83C650.24,-160.55 853.99,-130.26 894.5,-76 899.82,-68.88 900.38,-62.67 894.5,-56 873.47,-32.16 660.62,-17.83 573.43,-12.92"/>
<polygon fill="midnightblue" stroke="midnightblue" points="573.38,-9.41 563.21,-12.35 573,-16.4 573.38,-9.41"/>
</g>
<!-- Node12 -->
<g id="node12" class="node">
<title>Node12</title>
<g id="a_node12"><a xlink:title=" ">
<polygon fill="none" stroke="#bfbfbf" points="757.5,-56.5 757.5,-75.5 813.5,-75.5 813.5,-56.5 757.5,-56.5"/>
<text text-anchor="middle" x="785.5" y="-63.5" font-family="Helvetica,sans-Serif" font-size="10.00">unistd.h</text>
</a>
</g>
</g>
<!-- Node2&#45;&gt;Node12 -->
<g id="edge23" class="edge">
<title>Node2&#45;&gt;Node12</title>
<path fill="none" stroke="midnightblue" d="M530.24,-168.37C579.08,-148.97 697.69,-101.87 754.36,-79.37"/>
<polygon fill="midnightblue" stroke="midnightblue" points="755.86,-82.54 763.87,-75.59 753.28,-76.03 755.86,-82.54"/>
</g>
<!-- Node13 -->
<g id="node13" class="node">
<title>Node13</title>
<g id="a_node13"><a xlink:title=" ">
<polygon fill="none" stroke="#bfbfbf" points="832,-56.5 832,-75.5 885,-75.5 885,-56.5 832,-56.5"/>
<text text-anchor="middle" x="858.5" y="-63.5" font-family="Helvetica,sans-Serif" font-size="10.00">string.h</text>
</a>
</g>
</g>
<!-- Node2&#45;&gt;Node13 -->
<g id="edge24" class="edge">
<title>Node2&#45;&gt;Node13</title>
<path fill="none" stroke="midnightblue" d="M538.49,-168.49C569.4,-159.65 618.95,-145.27 661.5,-132 718.59,-114.19 784.5,-92.14 823.77,-78.84"/>
<polygon fill="midnightblue" stroke="midnightblue" points="825.05,-82.1 833.4,-75.57 822.8,-75.47 825.05,-82.1"/>
</g>
<!-- Node4&#45;&gt;Node3 -->
<g id="edge6" class="edge">
<title>Node4&#45;&gt;Node3</title>
<path fill="none" stroke="midnightblue" d="M418.42,-118.31C339.57,-112.9 175.39,-99.17 123.5,-76 98.35,-64.77 75.19,-42.5 61.21,-27.18"/>
<polygon fill="midnightblue" stroke="midnightblue" points="63.67,-24.69 54.43,-19.51 58.42,-29.32 63.67,-24.69"/>
</g>
<!-- Node4&#45;&gt;Node5 -->
<g id="edge4" class="edge">
<title>Node4&#45;&gt;Node5</title>
<path fill="none" stroke="midnightblue" d="M418.48,-116.99C349.18,-110.26 208.61,-95.49 90.5,-76 89.23,-75.79 87.94,-75.57 86.64,-75.34"/>
<polygon fill="midnightblue" stroke="midnightblue" points="87.06,-71.86 76.58,-73.44 85.76,-78.73 87.06,-71.86"/>
</g>
<!-- Node4&#45;&gt;Node6 -->
<g id="edge7" class="edge">
<title>Node4&#45;&gt;Node6</title>
<path fill="none" stroke="midnightblue" d="M418.72,-112.44C371.32,-102.96 294.87,-87.67 243.92,-77.48"/>
<polygon fill="midnightblue" stroke="midnightblue" points="244.57,-74.05 234.08,-75.52 243.2,-80.91 244.57,-74.05"/>
</g>
<!-- Node8 -->
<g id="node8" class="node">
<title>Node8</title>
<g id="a_node8"><a xlink:title=" ">
<polygon fill="none" stroke="#bfbfbf" points="241,-0.5 241,-19.5 306,-19.5 306,-0.5 241,-0.5"/>
<text text-anchor="middle" x="273.5" y="-7.5" font-family="Helvetica,sans-Serif" font-size="10.00">functional</text>
</a>
</g>
</g>
<!-- Node4&#45;&gt;Node8 -->
<g id="edge18" class="edge">
<title>Node4&#45;&gt;Node8</title>
<path fill="none" stroke="midnightblue" d="M418.48,-113.41C390.18,-106.89 353.37,-95.39 325.5,-76 307.59,-63.54 292.73,-43.18 283.54,-28.56"/>
<polygon fill="midnightblue" stroke="midnightblue" points="286.5,-26.7 278.35,-19.93 280.5,-30.3 286.5,-26.7"/>
</g>
<!-- Node9 -->
<g id="node9" class="node">
<title>Node9</title>
<g id="a_node9"><a xlink:href="uout__builder__plaintext_8hh_source.html" target="_top" xlink:title=" ">
<polygon fill="none" stroke="black" points="345,-56.5 345,-75.5 486,-75.5 486,-56.5 345,-56.5"/>
<text text-anchor="middle" x="415.5" y="-63.5" font-family="Helvetica,sans-Serif" font-size="10.00">uout_builder_plaintext.hh</text>
</a>
</g>
</g>
<!-- Node4&#45;&gt;Node9 -->
<g id="edge10" class="edge">
<title>Node4&#45;&gt;Node9</title>
<path fill="none" stroke="midnightblue" d="M453.9,-112.08C447.27,-104.3 437.48,-92.8 429.44,-83.37"/>
<polygon fill="midnightblue" stroke="midnightblue" points="432.1,-81.09 422.95,-75.75 426.77,-85.63 432.1,-81.09"/>
</g>
<!-- Node4&#45;&gt;Node10 -->
<g id="edge13" class="edge">
<title>Node4&#45;&gt;Node10</title>
<path fill="none" stroke="midnightblue" d="M418.32,-114.76C372.36,-106.29 309.57,-88.37 335.5,-56 355.68,-30.8 447.39,-18.76 499.68,-13.86"/>
<polygon fill="midnightblue" stroke="midnightblue" points="500.24,-17.32 509.89,-12.94 499.62,-10.35 500.24,-17.32"/>
</g>
<!-- Node4&#45;&gt;Node12 -->
<g id="edge14" class="edge">
<title>Node4&#45;&gt;Node12</title>
<path fill="none" stroke="midnightblue" d="M504.8,-115.24C560.98,-107.52 661.93,-92.84 747.5,-76 747.6,-75.98 747.7,-75.96 747.8,-75.94"/>
<polygon fill="midnightblue" stroke="midnightblue" points="748.27,-79.42 757.33,-73.92 746.82,-72.57 748.27,-79.42"/>
</g>
<!-- Node4&#45;&gt;Node13 -->
<g id="edge15" class="edge">
<title>Node4&#45;&gt;Node13</title>
<path fill="none" stroke="midnightblue" d="M504.55,-117.33C570.63,-111.33 701.18,-98.02 821.7,-75.93"/>
<polygon fill="midnightblue" stroke="midnightblue" points="822.65,-79.31 831.84,-74.05 821.37,-72.43 822.65,-79.31"/>
</g>
<!-- Node14 -->
<g id="node14" class="node">
<title>Node14</title>
<g id="a_node14"><a xlink:title=" ">
<polygon fill="none" stroke="#bfbfbf" points="504.5,-56.5 504.5,-75.5 560.5,-75.5 560.5,-56.5 504.5,-56.5"/>
<text text-anchor="middle" x="532.5" y="-63.5" font-family="Helvetica,sans-Serif" font-size="10.00">assert.h</text>
</a>
</g>
</g>
<!-- Node4&#45;&gt;Node14 -->
<g id="edge16" class="edge">
<title>Node4&#45;&gt;Node14</title>
<path fill="none" stroke="midnightblue" d="M472.91,-112.32C483.61,-104.18 499.84,-91.84 512.66,-82.09"/>
<polygon fill="midnightblue" stroke="midnightblue" points="515.04,-84.67 520.89,-75.83 510.81,-79.1 515.04,-84.67"/>
</g>
<!-- Node15 -->
<g id="node15" class="node">
<title>Node15</title>
<g id="a_node15"><a xlink:title=" ">
<polygon fill="none" stroke="#bfbfbf" points="579,-56.5 579,-75.5 676,-75.5 676,-56.5 579,-56.5"/>
<text text-anchor="middle" x="627.5" y="-63.5" font-family="Helvetica,sans-Serif" font-size="10.00">utils_misc/itoa.h</text>
</a>
</g>
</g>
<!-- Node4&#45;&gt;Node15 -->
<g id="edge17" class="edge">
<title>Node4&#45;&gt;Node15</title>
<path fill="none" stroke="midnightblue" d="M487.8,-112.44C515.85,-103.32 560.44,-88.81 591.68,-78.65"/>
<polygon fill="midnightblue" stroke="midnightblue" points="592.89,-81.94 601.32,-75.52 590.73,-75.28 592.89,-81.94"/>
</g>
<!-- Node16 -->
<g id="node16" class="node">
<title>Node16</title>
<g id="a_node16"><a xlink:title=" ">
<polygon fill="none" stroke="#bfbfbf" points="694,-56.5 694,-75.5 739,-75.5 739,-56.5 694,-56.5"/>
<text text-anchor="middle" x="716.5" y="-63.5" font-family="Helvetica,sans-Serif" font-size="10.00">utility</text>
</a>
</g>
</g>
<!-- Node4&#45;&gt;Node16 -->
<g id="edge19" class="edge">
<title>Node4&#45;&gt;Node16</title>
<path fill="none" stroke="midnightblue" d="M504.88,-113.24C547.86,-105.34 615.75,-92.25 683.79,-76.02"/>
<polygon fill="midnightblue" stroke="midnightblue" points="684.93,-79.35 693.83,-73.6 683.29,-72.54 684.93,-79.35"/>
</g>
<!-- Node5&#45;&gt;Node3 -->
<g id="edge5" class="edge">
<title>Node5&#45;&gt;Node3</title>
<path fill="none" stroke="midnightblue" d="M47.5,-56.08C47.5,-49.01 47.5,-38.86 47.5,-29.99"/>
<polygon fill="midnightblue" stroke="midnightblue" points="51,-29.75 47.5,-19.75 44,-29.75 51,-29.75"/>
</g>
<!-- Node7 -->
<g id="node7" class="node">
<title>Node7</title>
<g id="a_node7"><a xlink:title=" ">
<polygon fill="none" stroke="#bfbfbf" points="165,-0.5 165,-19.5 218,-19.5 218,-0.5 165,-0.5"/>
<text text-anchor="middle" x="191.5" y="-7.5" font-family="Helvetica,sans-Serif" font-size="10.00">stdlib.h</text>
</a>
</g>
</g>
<!-- Node6&#45;&gt;Node7 -->
<g id="edge8" class="edge">
<title>Node6&#45;&gt;Node7</title>
<path fill="none" stroke="midnightblue" d="M191.5,-56.08C191.5,-49.01 191.5,-38.86 191.5,-29.99"/>
<polygon fill="midnightblue" stroke="midnightblue" points="195,-29.75 191.5,-19.75 188,-29.75 195,-29.75"/>
</g>
<!-- Node6&#45;&gt;Node8 -->
<g id="edge9" class="edge">
<title>Node6&#45;&gt;Node8</title>
<path fill="none" stroke="midnightblue" d="M204.67,-56.32C217.35,-47.98 236.73,-35.21 251.71,-25.35"/>
<polygon fill="midnightblue" stroke="midnightblue" points="253.93,-28.08 260.36,-19.65 250.08,-22.23 253.93,-28.08"/>
</g>
<!-- Node9&#45;&gt;Node10 -->
<g id="edge11" class="edge">
<title>Node9&#45;&gt;Node10</title>
<path fill="none" stroke="midnightblue" d="M434.67,-56.44C454.41,-47.64 485.39,-33.81 507.99,-23.72"/>
<polygon fill="midnightblue" stroke="midnightblue" points="509.71,-26.79 517.42,-19.52 506.86,-20.4 509.71,-26.79"/>
</g>
<!-- Node11 -->
<g id="node11" class="node">
<title>Node11</title>
<g id="a_node11"><a xlink:title=" ">
<polygon fill="none" stroke="#bfbfbf" points="823.5,-0.5 823.5,-19.5 885.5,-19.5 885.5,-0.5 823.5,-0.5"/>
<text text-anchor="middle" x="854.5" y="-7.5" font-family="Helvetica,sans-Serif" font-size="10.00">stdbool.h</text>
</a>
</g>
</g>
<!-- Node9&#45;&gt;Node11 -->
<g id="edge12" class="edge">
<title>Node9&#45;&gt;Node11</title>
<path fill="none" stroke="midnightblue" d="M485.06,-56.44C577.54,-45.07 738.04,-25.33 813.31,-16.07"/>
<polygon fill="midnightblue" stroke="midnightblue" points="813.85,-19.53 823.35,-14.83 812.99,-12.58 813.85,-19.53"/>
</g>
<!-- Node17&#45;&gt;Node10 -->
<g id="edge26" class="edge">
<title>Node17&#45;&gt;Node10</title>
<path fill="none" stroke="midnightblue" d="M941.75,-58.32C936.97,-57.49 932.12,-56.69 927.5,-56 797.65,-36.63 642.46,-20.98 573.12,-14.39"/>
<polygon fill="midnightblue" stroke="midnightblue" points="573.42,-10.9 563.13,-13.44 572.76,-17.87 573.42,-10.9"/>
</g>
<!-- Node17&#45;&gt;Node11 -->
<g id="edge27" class="edge">
<title>Node17&#45;&gt;Node11</title>
<path fill="none" stroke="midnightblue" d="M957.17,-56.44C937.18,-47.6 905.76,-33.69 882.94,-23.59"/>
<polygon fill="midnightblue" stroke="midnightblue" points="884.3,-20.36 873.74,-19.52 881.47,-26.76 884.3,-20.36"/>
</g>
</g>
</svg>
