<?xml version="1.0" encoding="UTF-8" standalone="no"?>
<!DOCTYPE svg PUBLIC "-//W3C//DTD SVG 1.1//EN"
 "http://www.w3.org/Graphics/SVG/1.1/DTD/svg11.dtd">
<!-- Generated by graphviz version 2.43.0 (0)
 -->
<!-- Title: int_macros.h Pages: 1 -->
<svg width="164pt" height="252pt"
 viewBox="0.00 0.00 164.00 252.00" xmlns="http://www.w3.org/2000/svg" xmlns:xlink="http://www.w3.org/1999/xlink">
<g id="graph0" class="graph" transform="scale(1 1) rotate(0) translate(4 248)">
<title>int_macros.h</title>
<!-- Node1 -->
<g id="node1" class="node">
<title>Node1</title>
<g id="a_node1"><a xlink:title="Basic helper macros for integers.">
<polygon fill="#bfbfbf" stroke="black" points="0,-224.5 0,-243.5 80,-243.5 80,-224.5 0,-224.5"/>
<text text-anchor="middle" x="40" y="-231.5" font-family="Helvetica,sans-Serif" font-size="10.00">int_macros.h</text>
</a>
</g>
</g>
<!-- Node2 -->
<g id="node2" class="node">
<title>Node2</title>
<g id="a_node2"><a xlink:href="comp__settings_8hh.html" target="_top" xlink:title="Settings for shared components.">
<polygon fill="none" stroke="black" points="0.5,-56.5 0.5,-75.5 103.5,-75.5 103.5,-56.5 0.5,-56.5"/>
<text text-anchor="middle" x="52" y="-63.5" font-family="Helvetica,sans-Serif" font-size="10.00">comp_settings.hh</text>
</a>
</g>
</g>
<!-- Node1&#45;&gt;Node2 -->
<g id="edge1" class="edge">
<title>Node1&#45;&gt;Node2</title>
<path fill="none" stroke="midnightblue" d="M33.96,-214.46C27.05,-190.46 17.8,-147.49 27,-112 30.54,-98.33 39.23,-84.39 45.37,-75.73"/>
<polygon fill="midnightblue" stroke="midnightblue" points="30.71,-215.8 36.98,-224.34 37.4,-213.75 30.71,-215.8"/>
</g>
<!-- Node4 -->
<g id="node4" class="node">
<title>Node4</title>
<g id="a_node4"><a xlink:href="settings_8hh.html" target="_top" xlink:title=" ">
<polygon fill="none" stroke="black" points="48.5,-168.5 48.5,-187.5 119.5,-187.5 119.5,-168.5 48.5,-168.5"/>
<text text-anchor="middle" x="84" y="-175.5" font-family="Helvetica,sans-Serif" font-size="10.00">settings.hh</text>
</a>
</g>
</g>
<!-- Node1&#45;&gt;Node4 -->
<g id="edge3" class="edge">
<title>Node1&#45;&gt;Node4</title>
<path fill="none" stroke="midnightblue" d="M53.73,-216.14C61.4,-206.74 70.63,-195.4 76.87,-187.75"/>
<polygon fill="midnightblue" stroke="midnightblue" points="50.87,-214.12 47.27,-224.08 56.3,-218.54 50.87,-214.12"/>
</g>
<!-- Node3 -->
<g id="node3" class="node">
<title>Node3</title>
<g id="a_node3"><a xlink:href="config__kvs_8h_source.html" target="_top" xlink:title=" ">
<polygon fill="none" stroke="black" points="13.5,-0.5 13.5,-19.5 90.5,-19.5 90.5,-0.5 13.5,-0.5"/>
<text text-anchor="middle" x="52" y="-7.5" font-family="Helvetica,sans-Serif" font-size="10.00">config_kvs.h</text>
</a>
</g>
</g>
<!-- Node2&#45;&gt;Node3 -->
<g id="edge2" class="edge">
<title>Node2&#45;&gt;Node3</title>
<path fill="none" stroke="midnightblue" d="M52,-45.8C52,-36.91 52,-26.78 52,-19.75"/>
<polygon fill="midnightblue" stroke="midnightblue" points="48.5,-46.08 52,-56.08 55.5,-46.08 48.5,-46.08"/>
</g>
<!-- Node5 -->
<g id="node5" class="node">
<title>Node5</title>
<g id="a_node5"><a xlink:href="settings__template_8hh_source.html" target="_top" xlink:title=" ">
<polygon fill="none" stroke="black" points="36,-112.5 36,-131.5 156,-131.5 156,-112.5 36,-112.5"/>
<text text-anchor="middle" x="96" y="-119.5" font-family="Helvetica,sans-Serif" font-size="10.00">settings_template.hh</text>
</a>
</g>
</g>
<!-- Node4&#45;&gt;Node5 -->
<g id="edge4" class="edge">
<title>Node4&#45;&gt;Node5</title>
<path fill="none" stroke="midnightblue" d="M88.2,-158.1C90.19,-149.14 92.48,-138.86 94.06,-131.75"/>
<polygon fill="midnightblue" stroke="midnightblue" points="84.73,-157.56 85.98,-168.08 91.57,-159.08 84.73,-157.56"/>
</g>
<!-- Node5&#45;&gt;Node2 -->
<g id="edge5" class="edge">
<title>Node5&#45;&gt;Node2</title>
<path fill="none" stroke="midnightblue" d="M82.27,-104.14C74.6,-94.74 65.37,-83.4 59.13,-75.75"/>
<polygon fill="midnightblue" stroke="midnightblue" points="79.7,-106.54 88.73,-112.08 85.13,-102.12 79.7,-106.54"/>
</g>
</g>
</svg>
