<?xml version="1.0" encoding="UTF-8" standalone="no"?>
<!DOCTYPE svg PUBLIC "-//W3C//DTD SVG 1.1//EN"
 "http://www.w3.org/Graphics/SVG/1.1/DTD/svg11.dtd">
<!-- Generated by graphviz version 2.43.0 (0)
 -->
<!-- Title: uout/so_out.h Pages: 1 -->
<svg width="418pt" height="330pt"
 viewBox="0.00 0.00 417.50 330.00" xmlns="http://www.w3.org/2000/svg" xmlns:xlink="http://www.w3.org/1999/xlink">
<g id="graph0" class="graph" transform="scale(1 1) rotate(0) translate(4 326)">
<title>uout/so_out.h</title>
<!-- Node1 -->
<g id="node1" class="node">
<title>Node1</title>
<g id="a_node1"><a xlink:title="write formatted output to UoutWriter">
<polygon fill="#bfbfbf" stroke="black" points="178,-302.5 178,-321.5 261,-321.5 261,-302.5 178,-302.5"/>
<text text-anchor="middle" x="219.5" y="-309.5" font-family="Helvetica,sans-Serif" font-size="10.00">uout/so_out.h</text>
</a>
</g>
</g>
<!-- Node2 -->
<g id="node2" class="node">
<title>Node2</title>
<g id="a_node2"><a xlink:href="uo__types_8h.html" target="_top" xlink:title="API parameter and return types.">
<polygon fill="none" stroke="black" points="130,-190.5 130,-209.5 225,-209.5 225,-190.5 130,-190.5"/>
<text text-anchor="middle" x="177.5" y="-197.5" font-family="Helvetica,sans-Serif" font-size="10.00">uout/uo_types.h</text>
</a>
</g>
</g>
<!-- Node1&#45;&gt;Node2 -->
<g id="edge1" class="edge">
<title>Node1&#45;&gt;Node2</title>
<path fill="none" stroke="midnightblue" d="M210.04,-293.28C205.89,-285.11 201.14,-275.2 197.5,-266 189.68,-246.24 182.97,-222.13 179.67,-209.56"/>
<polygon fill="midnightblue" stroke="midnightblue" points="206.97,-294.97 214.7,-302.22 213.18,-291.73 206.97,-294.97"/>
</g>
<!-- Node7 -->
<g id="node7" class="node">
<title>Node7</title>
<g id="a_node7"><a xlink:href="uout__writer_8hh.html" target="_top" xlink:title="Provide an output class hierarchy which knows about the required format (text or JSON) and write func...">
<polygon fill="none" stroke="black" points="206,-246.5 206,-265.5 317,-265.5 317,-246.5 206,-246.5"/>
<text text-anchor="middle" x="261.5" y="-253.5" font-family="Helvetica,sans-Serif" font-size="10.00">uout/uout_writer.hh</text>
</a>
</g>
</g>
<!-- Node1&#45;&gt;Node7 -->
<g id="edge6" class="edge">
<title>Node1&#45;&gt;Node7</title>
<path fill="none" stroke="midnightblue" d="M232.61,-294.14C239.93,-284.74 248.74,-273.4 254.69,-265.75"/>
<polygon fill="midnightblue" stroke="midnightblue" points="229.81,-292.04 226.44,-302.08 235.34,-296.34 229.81,-292.04"/>
</g>
<!-- Node3 -->
<g id="node3" class="node">
<title>Node3</title>
<g id="a_node3"><a xlink:href="cli_8h.html" target="_top" xlink:title="cli framework">
<polygon fill="none" stroke="black" points="52,-129 52,-148 103,-148 103,-129 52,-129"/>
<text text-anchor="middle" x="77.5" y="-136" font-family="Helvetica,sans-Serif" font-size="10.00">cli/cli.h</text>
</a>
</g>
</g>
<!-- Node2&#45;&gt;Node3 -->
<g id="edge2" class="edge">
<title>Node2&#45;&gt;Node3</title>
<path fill="none" stroke="midnightblue" d="M154.38,-185.24C135.06,-173.75 108.13,-157.72 91.8,-148.01"/>
<polygon fill="midnightblue" stroke="midnightblue" points="152.79,-188.37 163.17,-190.48 156.37,-182.35 152.79,-188.37"/>
</g>
<!-- Node4 -->
<g id="node4" class="node">
<title>Node4</title>
<g id="a_node4"><a xlink:href="uo__callbacks_8h.html" target="_top" xlink:title="pub/sub interface to publish asynchronously to MQTT servers, HTTP&#45;client web&#45;sockets,...">
<polygon fill="none" stroke="black" points="121,-129 121,-148 234,-148 234,-129 121,-129"/>
<text text-anchor="middle" x="177.5" y="-136" font-family="Helvetica,sans-Serif" font-size="10.00">uout/uo_callbacks.h</text>
</a>
</g>
</g>
<!-- Node2&#45;&gt;Node4 -->
<g id="edge3" class="edge">
<title>Node2&#45;&gt;Node4</title>
<path fill="none" stroke="midnightblue" d="M177.5,-180.32C177.5,-169.5 177.5,-156.4 177.5,-148.01"/>
<polygon fill="midnightblue" stroke="midnightblue" points="174,-180.48 177.5,-190.48 181,-180.48 174,-180.48"/>
</g>
<!-- Node5 -->
<g id="node5" class="node">
<title>Node5</title>
<g id="a_node5"><a xlink:href="tcp__cli__server__setup_8hh.html" target="_top" xlink:title="Create TCP server for interactive and non&#45;interactive CLI clients.">
<polygon fill="none" stroke="black" points="0,-56.5 0,-86.5 103,-86.5 103,-56.5 0,-56.5"/>
<text text-anchor="start" x="8" y="-74.5" font-family="Helvetica,sans-Serif" font-size="10.00">net/tcp_cli_server</text>
<text text-anchor="middle" x="51.5" y="-63.5" font-family="Helvetica,sans-Serif" font-size="10.00">_setup.hh</text>
</a>
</g>
</g>
<!-- Node4&#45;&gt;Node5 -->
<g id="edge4" class="edge">
<title>Node4&#45;&gt;Node5</title>
<path fill="none" stroke="midnightblue" d="M151.71,-124.19C130.51,-113.26 100.56,-97.81 78.93,-86.65"/>
<polygon fill="midnightblue" stroke="midnightblue" points="150.28,-127.39 160.77,-128.87 153.49,-121.17 150.28,-127.39"/>
</g>
<!-- Node6 -->
<g id="node6" class="node">
<title>Node6</title>
<g id="a_node6"><a xlink:href="txtio__setup_8hh_source.html" target="_top" xlink:title=" ">
<polygon fill="none" stroke="black" points="121.5,-62 121.5,-81 233.5,-81 233.5,-62 121.5,-62"/>
<text text-anchor="middle" x="177.5" y="-69" font-family="Helvetica,sans-Serif" font-size="10.00">txtio/txtio_setup.hh</text>
</a>
</g>
</g>
<!-- Node4&#45;&gt;Node6 -->
<g id="edge5" class="edge">
<title>Node4&#45;&gt;Node6</title>
<path fill="none" stroke="midnightblue" d="M177.5,-118.54C177.5,-106.17 177.5,-90.62 177.5,-81.13"/>
<polygon fill="midnightblue" stroke="midnightblue" points="174,-118.73 177.5,-128.73 181,-118.73 174,-118.73"/>
</g>
<!-- Node7&#45;&gt;Node2 -->
<g id="edge11" class="edge">
<title>Node7&#45;&gt;Node2</title>
<path fill="none" stroke="midnightblue" d="M239.57,-240.9C224.16,-231 204.05,-218.07 190.96,-209.65"/>
<polygon fill="midnightblue" stroke="midnightblue" points="237.7,-243.86 248,-246.32 241.48,-237.97 237.7,-243.86"/>
</g>
<!-- Node8 -->
<g id="node8" class="node">
<title>Node8</title>
<g id="a_node8"><a xlink:href="settings_8hh.html" target="_top" xlink:title=" ">
<polygon fill="none" stroke="black" points="249,-190.5 249,-209.5 374,-209.5 374,-190.5 249,-190.5"/>
<text text-anchor="middle" x="311.5" y="-197.5" font-family="Helvetica,sans-Serif" font-size="10.00">config_kvs/settings.hh</text>
</a>
</g>
</g>
<!-- Node7&#45;&gt;Node8 -->
<g id="edge7" class="edge">
<title>Node7&#45;&gt;Node8</title>
<path fill="none" stroke="midnightblue" d="M276.58,-238.72C285.39,-229.2 296.17,-217.56 303.4,-209.75"/>
<polygon fill="midnightblue" stroke="midnightblue" points="273.98,-236.37 269.76,-246.08 279.12,-241.12 273.98,-236.37"/>
</g>
<!-- Node9 -->
<g id="node9" class="node">
<title>Node9</title>
<g id="a_node9"><a xlink:href="settings__template_8hh_source.html" target="_top" xlink:title=" ">
<polygon fill="none" stroke="black" points="263.5,-123.5 263.5,-153.5 373.5,-153.5 373.5,-123.5 263.5,-123.5"/>
<text text-anchor="start" x="271.5" y="-141.5" font-family="Helvetica,sans-Serif" font-size="10.00">config_kvs/settings</text>
<text text-anchor="middle" x="318.5" y="-130.5" font-family="Helvetica,sans-Serif" font-size="10.00">_template.hh</text>
</a>
</g>
</g>
<!-- Node8&#45;&gt;Node9 -->
<g id="edge8" class="edge">
<title>Node8&#45;&gt;Node9</title>
<path fill="none" stroke="midnightblue" d="M313.67,-180.53C314.7,-171.81 315.9,-161.59 316.85,-153.52"/>
<polygon fill="midnightblue" stroke="midnightblue" points="310.2,-180.13 312.5,-190.48 317.15,-180.95 310.2,-180.13"/>
</g>
<!-- Node10 -->
<g id="node10" class="node">
<title>Node10</title>
<g id="a_node10"><a xlink:href="comp__settings_8hh.html" target="_top" xlink:title="Settings for shared components.">
<polygon fill="none" stroke="black" points="251.5,-62 251.5,-81 409.5,-81 409.5,-62 251.5,-62"/>
<text text-anchor="middle" x="330.5" y="-69" font-family="Helvetica,sans-Serif" font-size="10.00">config_kvs/comp_settings.hh</text>
</a>
</g>
</g>
<!-- Node9&#45;&gt;Node10 -->
<g id="edge9" class="edge">
<title>Node9&#45;&gt;Node10</title>
<path fill="none" stroke="midnightblue" d="M322.98,-113.25C325.05,-102.02 327.38,-89.38 328.89,-81.19"/>
<polygon fill="midnightblue" stroke="midnightblue" points="319.48,-112.93 321.1,-123.4 326.36,-114.2 319.48,-112.93"/>
</g>
<!-- Node11 -->
<g id="node11" class="node">
<title>Node11</title>
<g id="a_node11"><a xlink:href="config__kvs_8h.html" target="_top" xlink:title="read settings from kvs storage by cb_type">
<polygon fill="none" stroke="black" points="264.5,-0.5 264.5,-19.5 396.5,-19.5 396.5,-0.5 264.5,-0.5"/>
<text text-anchor="middle" x="330.5" y="-7.5" font-family="Helvetica,sans-Serif" font-size="10.00">config_kvs/config_kvs.h</text>
</a>
</g>
</g>
<!-- Node10&#45;&gt;Node11 -->
<g id="edge10" class="edge">
<title>Node10&#45;&gt;Node11</title>
<path fill="none" stroke="midnightblue" d="M330.5,-51.82C330.5,-41 330.5,-27.9 330.5,-19.51"/>
<polygon fill="midnightblue" stroke="midnightblue" points="327,-51.98 330.5,-61.98 334,-51.98 327,-51.98"/>
</g>
</g>
</svg>
