<?xml version="1.0" encoding="UTF-8" standalone="no"?>
<!DOCTYPE svg PUBLIC "-//W3C//DTD SVG 1.1//EN"
 "http://www.w3.org/Graphics/SVG/1.1/DTD/svg11.dtd">
<!-- Generated by graphviz version 2.43.0 (0)
 -->
<!-- Title: stm32/stm32_uart_ts.hh Pages: 1 -->
<svg width="309pt" height="196pt"
 viewBox="0.00 0.00 309.00 196.00" xmlns="http://www.w3.org/2000/svg" xmlns:xlink="http://www.w3.org/1999/xlink">
<g id="graph0" class="graph" transform="scale(1 1) rotate(0) translate(4 192)">
<title>stm32/stm32_uart_ts.hh</title>
<!-- Node1 -->
<g id="node1" class="node">
<title>Node1</title>
<g id="a_node1"><a xlink:title="thread/multitasking&#45;safe access to STM32 from ESP32 for communication and firmware update">
<polygon fill="#bfbfbf" stroke="black" points="67,-168.5 67,-187.5 202,-187.5 202,-168.5 67,-168.5"/>
<text text-anchor="middle" x="134.5" y="-175.5" font-family="Helvetica,sans-Serif" font-size="10.00">stm32/stm32_uart_ts.hh</text>
</a>
</g>
</g>
<!-- Node2 -->
<g id="node2" class="node">
<title>Node2</title>
<g id="a_node2"><a xlink:href="stm32__uart_8hh.html" target="_top" xlink:title="access STM32 from ESP32 for communication and firware updat">
<polygon fill="none" stroke="black" points="0,-112.5 0,-131.5 87,-131.5 87,-112.5 0,-112.5"/>
<text text-anchor="middle" x="43.5" y="-119.5" font-family="Helvetica,sans-Serif" font-size="10.00">stm32_uart.hh</text>
</a>
</g>
</g>
<!-- Node1&#45;&gt;Node2 -->
<g id="edge1" class="edge">
<title>Node1&#45;&gt;Node2</title>
<path fill="none" stroke="midnightblue" d="M119.88,-168.32C105.55,-159.82 83.49,-146.73 66.75,-136.8"/>
<polygon fill="midnightblue" stroke="midnightblue" points="68.47,-133.75 58.08,-131.65 64.9,-139.77 68.47,-133.75"/>
</g>
<!-- Node3 -->
<g id="node3" class="node">
<title>Node3</title>
<g id="a_node3"><a xlink:title=" ">
<polygon fill="none" stroke="#bfbfbf" points="57,-56.5 57,-75.5 110,-75.5 110,-56.5 57,-56.5"/>
<text text-anchor="middle" x="83.5" y="-63.5" font-family="Helvetica,sans-Serif" font-size="10.00">stdint.h</text>
</a>
</g>
</g>
<!-- Node1&#45;&gt;Node3 -->
<g id="edge7" class="edge">
<title>Node1&#45;&gt;Node3</title>
<path fill="none" stroke="midnightblue" d="M130.5,-168.37C122.19,-150.46 102.94,-108.92 91.82,-84.95"/>
<polygon fill="midnightblue" stroke="midnightblue" points="94.86,-83.19 87.48,-75.59 88.51,-86.14 94.86,-83.19"/>
</g>
<!-- Node4 -->
<g id="node4" class="node">
<title>Node4</title>
<g id="a_node4"><a xlink:href="stm32_2include_2stm32_2mutex_8hh.html" target="_top" xlink:title="thread mutex to protect USART read and write access">
<polygon fill="none" stroke="black" points="136,-56.5 136,-75.5 233,-75.5 233,-56.5 136,-56.5"/>
<text text-anchor="middle" x="184.5" y="-63.5" font-family="Helvetica,sans-Serif" font-size="10.00">stm32/mutex.hh</text>
</a>
</g>
</g>
<!-- Node1&#45;&gt;Node4 -->
<g id="edge3" class="edge">
<title>Node1&#45;&gt;Node4</title>
<path fill="none" stroke="midnightblue" d="M138.42,-168.37C146.57,-150.46 165.44,-108.92 176.34,-84.95"/>
<polygon fill="midnightblue" stroke="midnightblue" points="179.64,-86.14 180.59,-75.59 173.27,-83.25 179.64,-86.14"/>
</g>
<!-- Node6 -->
<g id="node6" class="node">
<title>Node6</title>
<g id="a_node6"><a xlink:href="lock__guard_8hh_source.html" target="_top" xlink:title=" ">
<polygon fill="none" stroke="black" points="182,-112.5 182,-131.5 301,-131.5 301,-112.5 182,-112.5"/>
<text text-anchor="middle" x="241.5" y="-119.5" font-family="Helvetica,sans-Serif" font-size="10.00">stm32/lock_guard.hh</text>
</a>
</g>
</g>
<!-- Node1&#45;&gt;Node6 -->
<g id="edge5" class="edge">
<title>Node1&#45;&gt;Node6</title>
<path fill="none" stroke="midnightblue" d="M151.69,-168.32C168.85,-159.66 195.45,-146.24 215.25,-136.25"/>
<polygon fill="midnightblue" stroke="midnightblue" points="217,-139.28 224.35,-131.65 213.85,-133.04 217,-139.28"/>
</g>
<!-- Node2&#45;&gt;Node3 -->
<g id="edge2" class="edge">
<title>Node2&#45;&gt;Node3</title>
<path fill="none" stroke="midnightblue" d="M50.11,-112.08C55.76,-104.46 64.04,-93.26 70.95,-83.94"/>
<polygon fill="midnightblue" stroke="midnightblue" points="73.88,-85.87 77.02,-75.75 68.25,-81.7 73.88,-85.87"/>
</g>
<!-- Node5 -->
<g id="node5" class="node">
<title>Node5</title>
<g id="a_node5"><a xlink:title=" ">
<polygon fill="none" stroke="#bfbfbf" points="126.5,-0.5 126.5,-19.5 242.5,-19.5 242.5,-0.5 126.5,-0.5"/>
<text text-anchor="middle" x="184.5" y="-7.5" font-family="Helvetica,sans-Serif" font-size="10.00">utils_misc/mutex.hh</text>
</a>
</g>
</g>
<!-- Node4&#45;&gt;Node5 -->
<g id="edge4" class="edge">
<title>Node4&#45;&gt;Node5</title>
<path fill="none" stroke="midnightblue" d="M184.5,-56.08C184.5,-49.01 184.5,-38.86 184.5,-29.99"/>
<polygon fill="midnightblue" stroke="midnightblue" points="188,-29.75 184.5,-19.75 181,-29.75 188,-29.75"/>
</g>
<!-- Node6&#45;&gt;Node4 -->
<g id="edge6" class="edge">
<title>Node6&#45;&gt;Node4</title>
<path fill="none" stroke="midnightblue" d="M232.34,-112.32C224,-104.42 211.47,-92.55 201.32,-82.94"/>
<polygon fill="midnightblue" stroke="midnightblue" points="203.49,-80.17 193.82,-75.83 198.68,-85.25 203.49,-80.17"/>
</g>
</g>
</svg>
