<?xml version="1.0" encoding="UTF-8" standalone="no"?>
<!DOCTYPE svg PUBLIC "-//W3C//DTD SVG 1.1//EN"
 "http://www.w3.org/Graphics/SVG/1.1/DTD/svg11.dtd">
<!-- Generated by graphviz version 2.43.0 (0)
 -->
<!-- Title: weather/weather_provider.hh Pages: 1 -->
<svg width="473pt" height="151pt"
 viewBox="0.00 0.00 472.50 151.00" xmlns="http://www.w3.org/2000/svg" xmlns:xlink="http://www.w3.org/1999/xlink">
<g id="graph0" class="graph" transform="scale(1 1) rotate(0) translate(4 147)">
<title>weather/weather_provider.hh</title>
<!-- Node1 -->
<g id="node1" class="node">
<title>Node1</title>
<g id="a_node1"><a xlink:title="Interface for weather data provider.">
<polygon fill="#bfbfbf" stroke="black" points="149.5,-123.5 149.5,-142.5 308.5,-142.5 308.5,-123.5 149.5,-123.5"/>
<text text-anchor="middle" x="229" y="-130.5" font-family="Helvetica,sans-Serif" font-size="10.00">weather/weather_provider.hh</text>
</a>
</g>
</g>
<!-- Node2 -->
<g id="node2" class="node">
<title>Node2</title>
<g id="a_node2"><a xlink:href="weather_8hh.html" target="_top" xlink:title="create and maintain weather data archive of last seven days">
<polygon fill="none" stroke="black" points="25.5,-62 25.5,-81 138.5,-81 138.5,-62 25.5,-62"/>
<text text-anchor="middle" x="82" y="-69" font-family="Helvetica,sans-Serif" font-size="10.00">weather/weather.hh</text>
</a>
</g>
</g>
<!-- Node1&#45;&gt;Node2 -->
<g id="edge1" class="edge">
<title>Node1&#45;&gt;Node2</title>
<path fill="none" stroke="midnightblue" d="M198.44,-119.63C169.88,-108.07 128,-91.12 103.02,-81.01"/>
<polygon fill="midnightblue" stroke="midnightblue" points="197.36,-122.97 207.94,-123.48 199.98,-116.48 197.36,-122.97"/>
</g>
<!-- Node4 -->
<g id="node4" class="node">
<title>Node4</title>
<g id="a_node4"><a xlink:href="weather__provider__owm_8hh.html" target="_top" xlink:title="get weather data from api.openweathermap.org">
<polygon fill="none" stroke="black" points="156.5,-56.5 156.5,-86.5 301.5,-86.5 301.5,-56.5 156.5,-56.5"/>
<text text-anchor="start" x="164.5" y="-74.5" font-family="Helvetica,sans-Serif" font-size="10.00">weather/weather_provider</text>
<text text-anchor="middle" x="229" y="-63.5" font-family="Helvetica,sans-Serif" font-size="10.00">_owm.hh</text>
</a>
</g>
</g>
<!-- Node1&#45;&gt;Node4 -->
<g id="edge3" class="edge">
<title>Node1&#45;&gt;Node4</title>
<path fill="none" stroke="midnightblue" d="M229,-113.23C229,-104.59 229,-94.5 229,-86.52"/>
<polygon fill="midnightblue" stroke="midnightblue" points="225.5,-113.48 229,-123.48 232.5,-113.48 225.5,-113.48"/>
</g>
<!-- Node5 -->
<g id="node5" class="node">
<title>Node5</title>
<g id="a_node5"><a xlink:href="weather__provider__random_8hh.html" target="_top" xlink:title="provide random mock weather data for testing purposes">
<polygon fill="none" stroke="black" points="319.5,-56.5 319.5,-86.5 464.5,-86.5 464.5,-56.5 319.5,-56.5"/>
<text text-anchor="start" x="327.5" y="-74.5" font-family="Helvetica,sans-Serif" font-size="10.00">weather/weather_provider</text>
<text text-anchor="middle" x="392" y="-63.5" font-family="Helvetica,sans-Serif" font-size="10.00">_random.hh</text>
</a>
</g>
</g>
<!-- Node1&#45;&gt;Node5 -->
<g id="edge4" class="edge">
<title>Node1&#45;&gt;Node5</title>
<path fill="none" stroke="midnightblue" d="M261.94,-119.98C288.44,-110.3 325.73,-96.69 353.58,-86.52"/>
<polygon fill="midnightblue" stroke="midnightblue" points="260.55,-116.76 252.35,-123.48 262.95,-123.33 260.55,-116.76"/>
</g>
<!-- Node3 -->
<g id="node3" class="node">
<title>Node3</title>
<g id="a_node3"><a xlink:href="weather__irrigation_8hh.html" target="_top" xlink:title="calculations about when to irrigate based on weather data">
<polygon fill="none" stroke="black" points="0,-0.5 0,-19.5 164,-19.5 164,-0.5 0,-0.5"/>
<text text-anchor="middle" x="82" y="-7.5" font-family="Helvetica,sans-Serif" font-size="10.00">weather/weather_irrigation.hh</text>
</a>
</g>
</g>
<!-- Node2&#45;&gt;Node3 -->
<g id="edge2" class="edge">
<title>Node2&#45;&gt;Node3</title>
<path fill="none" stroke="midnightblue" d="M82,-51.82C82,-41 82,-27.9 82,-19.51"/>
<polygon fill="midnightblue" stroke="midnightblue" points="78.5,-51.98 82,-61.98 85.5,-51.98 78.5,-51.98"/>
</g>
</g>
</svg>
