<?xml version="1.0" encoding="UTF-8" standalone="no"?>
<!DOCTYPE svg PUBLIC "-//W3C//DTD SVG 1.1//EN"
 "http://www.w3.org/Graphics/SVG/1.1/DTD/svg11.dtd">
<!-- Generated by graphviz version 2.43.0 (0)
 -->
<!-- Title: weather/weather_data.hh Pages: 1 -->
<svg width="473pt" height="207pt"
 viewBox="0.00 0.00 472.50 207.00" xmlns="http://www.w3.org/2000/svg" xmlns:xlink="http://www.w3.org/1999/xlink">
<g id="graph0" class="graph" transform="scale(1 1) rotate(0) translate(4 203)">
<title>weather/weather_data.hh</title>
<!-- Node1 -->
<g id="node1" class="node">
<title>Node1</title>
<g id="a_node1"><a xlink:title="weather data like temperature, humidity, ...">
<polygon fill="#bfbfbf" stroke="black" points="84.5,-179.5 84.5,-198.5 225.5,-198.5 225.5,-179.5 84.5,-179.5"/>
<text text-anchor="middle" x="155" y="-186.5" font-family="Helvetica,sans-Serif" font-size="10.00">weather/weather_data.hh</text>
</a>
</g>
</g>
<!-- Node2 -->
<g id="node2" class="node">
<title>Node2</title>
<g id="a_node2"><a xlink:href="weather_8hh.html" target="_top" xlink:title="create and maintain weather data archive of last seven days">
<polygon fill="none" stroke="black" points="25.5,-62 25.5,-81 138.5,-81 138.5,-62 25.5,-62"/>
<text text-anchor="middle" x="82" y="-69" font-family="Helvetica,sans-Serif" font-size="10.00">weather/weather.hh</text>
</a>
</g>
</g>
<!-- Node1&#45;&gt;Node2 -->
<g id="edge1" class="edge">
<title>Node1&#45;&gt;Node2</title>
<path fill="none" stroke="midnightblue" d="M144.16,-170.84C128.36,-145.86 99.61,-100.36 87.55,-81.28"/>
<polygon fill="midnightblue" stroke="midnightblue" points="141.21,-172.74 149.51,-179.32 147.13,-169 141.21,-172.74"/>
</g>
<!-- Node4 -->
<g id="node4" class="node">
<title>Node4</title>
<g id="a_node4"><a xlink:href="weather__provider_8hh.html" target="_top" xlink:title="Interface for weather data provider.">
<polygon fill="none" stroke="black" points="139.5,-123.5 139.5,-142.5 298.5,-142.5 298.5,-123.5 139.5,-123.5"/>
<text text-anchor="middle" x="219" y="-130.5" font-family="Helvetica,sans-Serif" font-size="10.00">weather/weather_provider.hh</text>
</a>
</g>
</g>
<!-- Node1&#45;&gt;Node4 -->
<g id="edge3" class="edge">
<title>Node1&#45;&gt;Node4</title>
<path fill="none" stroke="midnightblue" d="M172.99,-172.82C184.46,-163.15 198.91,-150.95 208.53,-142.83"/>
<polygon fill="midnightblue" stroke="midnightblue" points="170.67,-170.2 165.28,-179.32 175.18,-175.55 170.67,-170.2"/>
</g>
<!-- Node3 -->
<g id="node3" class="node">
<title>Node3</title>
<g id="a_node3"><a xlink:href="weather__irrigation_8hh.html" target="_top" xlink:title="calculations about when to irrigate based on weather data">
<polygon fill="none" stroke="black" points="0,-0.5 0,-19.5 164,-19.5 164,-0.5 0,-0.5"/>
<text text-anchor="middle" x="82" y="-7.5" font-family="Helvetica,sans-Serif" font-size="10.00">weather/weather_irrigation.hh</text>
</a>
</g>
</g>
<!-- Node2&#45;&gt;Node3 -->
<g id="edge2" class="edge">
<title>Node2&#45;&gt;Node3</title>
<path fill="none" stroke="midnightblue" d="M82,-51.82C82,-41 82,-27.9 82,-19.51"/>
<polygon fill="midnightblue" stroke="midnightblue" points="78.5,-51.98 82,-61.98 85.5,-51.98 78.5,-51.98"/>
</g>
<!-- Node4&#45;&gt;Node2 -->
<g id="edge4" class="edge">
<title>Node4&#45;&gt;Node2</title>
<path fill="none" stroke="midnightblue" d="M190.17,-119.48C163.56,-107.92 124.77,-91.08 101.59,-81.01"/>
<polygon fill="midnightblue" stroke="midnightblue" points="188.8,-122.7 199.37,-123.48 191.59,-116.28 188.8,-122.7"/>
</g>
<!-- Node5 -->
<g id="node5" class="node">
<title>Node5</title>
<g id="a_node5"><a xlink:href="weather__provider__owm_8hh.html" target="_top" xlink:title="get weather data from api.openweathermap.org">
<polygon fill="none" stroke="black" points="156.5,-56.5 156.5,-86.5 301.5,-86.5 301.5,-56.5 156.5,-56.5"/>
<text text-anchor="start" x="164.5" y="-74.5" font-family="Helvetica,sans-Serif" font-size="10.00">weather/weather_provider</text>
<text text-anchor="middle" x="229" y="-63.5" font-family="Helvetica,sans-Serif" font-size="10.00">_owm.hh</text>
</a>
</g>
</g>
<!-- Node4&#45;&gt;Node5 -->
<g id="edge5" class="edge">
<title>Node4&#45;&gt;Node5</title>
<path fill="none" stroke="midnightblue" d="M222.1,-113.53C223.57,-104.81 225.29,-94.59 226.64,-86.52"/>
<polygon fill="midnightblue" stroke="midnightblue" points="218.64,-113.03 220.43,-123.48 225.54,-114.19 218.64,-113.03"/>
</g>
<!-- Node6 -->
<g id="node6" class="node">
<title>Node6</title>
<g id="a_node6"><a xlink:href="weather__provider__random_8hh.html" target="_top" xlink:title="provide random mock weather data for testing purposes">
<polygon fill="none" stroke="black" points="319.5,-56.5 319.5,-86.5 464.5,-86.5 464.5,-56.5 319.5,-56.5"/>
<text text-anchor="start" x="327.5" y="-74.5" font-family="Helvetica,sans-Serif" font-size="10.00">weather/weather_provider</text>
<text text-anchor="middle" x="392" y="-63.5" font-family="Helvetica,sans-Serif" font-size="10.00">_random.hh</text>
</a>
</g>
</g>
<!-- Node4&#45;&gt;Node6 -->
<g id="edge6" class="edge">
<title>Node4&#45;&gt;Node6</title>
<path fill="none" stroke="midnightblue" d="M253.59,-120.1C281.74,-110.42 321.53,-96.74 351.23,-86.52"/>
<polygon fill="midnightblue" stroke="midnightblue" points="252.1,-116.91 243.79,-123.48 254.38,-123.53 252.1,-116.91"/>
</g>
</g>
</svg>
