<?xml version="1.0" encoding="UTF-8" standalone="no"?>
<!DOCTYPE svg PUBLIC "-//W3C//DTD SVG 1.1//EN"
 "http://www.w3.org/Graphics/SVG/1.1/DTD/svg11.dtd">
<!-- Generated by graphviz version 2.43.0 (0)
 -->
<!-- Title: Stm32_Uart_ESP32 Pages: 1 -->
<svg width="304pt" height="574pt"
 viewBox="0.00 0.00 304.00 574.00" xmlns="http://www.w3.org/2000/svg" xmlns:xlink="http://www.w3.org/1999/xlink">
<g id="graph0" class="graph" transform="scale(1 1) rotate(0) translate(4 570)">
<title>Stm32_Uart_ESP32</title>
<!-- Node1 -->
<g id="node1" class="node">
<title>Node1</title>
<g id="a_node1"><a xlink:title=" ">
<polygon fill="#bfbfbf" stroke="black" points="74,-0.5 74,-134.5 239,-134.5 239,-0.5 74,-0.5"/>
<text text-anchor="middle" x="156.5" y="-122.5" font-family="Helvetica,sans-Serif" font-size="10.00">Stm32_Uart_ESP32</text>
<polyline fill="none" stroke="black" points="74,-115.5 239,-115.5 "/>
<text text-anchor="middle" x="156.5" y="-103.5" font-family="Helvetica,sans-Serif" font-size="10.00"> </text>
<polyline fill="none" stroke="black" points="74,-96.5 239,-96.5 "/>
<text text-anchor="start" x="82" y="-84.5" font-family="Helvetica,sans-Serif" font-size="10.00">+ stm32_runBootLoader()</text>
<text text-anchor="start" x="82" y="-73.5" font-family="Helvetica,sans-Serif" font-size="10.00">+ stm32_runFirmware()</text>
<text text-anchor="start" x="82" y="-62.5" font-family="Helvetica,sans-Serif" font-size="10.00">+ stm32_reset()</text>
<text text-anchor="start" x="82" y="-51.5" font-family="Helvetica,sans-Serif" font-size="10.00">+ stm32_isFirmwareRunning()</text>
<text text-anchor="start" x="82" y="-40.5" font-family="Helvetica,sans-Serif" font-size="10.00">+ task_delay()</text>
<text text-anchor="start" x="82" y="-29.5" font-family="Helvetica,sans-Serif" font-size="10.00">+ stm32_configSerial()</text>
<text text-anchor="start" x="82" y="-18.5" font-family="Helvetica,sans-Serif" font-size="10.00">+ stm32_wake_up_queue()</text>
<text text-anchor="start" x="82" y="-7.5" font-family="Helvetica,sans-Serif" font-size="10.00">+ stm32_setup()</text>
</a>
</g>
</g>
<!-- Node2 -->
<g id="node2" class="node">
<title>Node2</title>
<g id="a_node2"><a xlink:href="classStm32__Uart.html" target="_top" xlink:title=" ">
<polygon fill="none" stroke="black" points="18.5,-182.5 18.5,-360.5 146.5,-360.5 146.5,-182.5 18.5,-182.5"/>
<text text-anchor="middle" x="82.5" y="-348.5" font-family="Helvetica,sans-Serif" font-size="10.00">Stm32_Uart</text>
<polyline fill="none" stroke="black" points="18.5,-341.5 146.5,-341.5 "/>
<text text-anchor="middle" x="82.5" y="-329.5" font-family="Helvetica,sans-Serif" font-size="10.00"> </text>
<polyline fill="none" stroke="black" points="18.5,-322.5 146.5,-322.5 "/>
<text text-anchor="start" x="26.5" y="-310.5" font-family="Helvetica,sans-Serif" font-size="10.00">+ stm32_write()</text>
<text text-anchor="start" x="26.5" y="-299.5" font-family="Helvetica,sans-Serif" font-size="10.00">+ stm32_read()</text>
<text text-anchor="start" x="26.5" y="-288.5" font-family="Helvetica,sans-Serif" font-size="10.00">+ stm32_read_line()</text>
<text text-anchor="start" x="26.5" y="-277.5" font-family="Helvetica,sans-Serif" font-size="10.00">+ stm32_getc()</text>
<text text-anchor="start" x="26.5" y="-266.5" font-family="Helvetica,sans-Serif" font-size="10.00">+ stm32_write_bl()</text>
<text text-anchor="start" x="26.5" y="-255.5" font-family="Helvetica,sans-Serif" font-size="10.00">+ stm32_read_bl()</text>
<text text-anchor="start" x="26.5" y="-244.5" font-family="Helvetica,sans-Serif" font-size="10.00"># p_stm32_write()</text>
<text text-anchor="start" x="26.5" y="-233.5" font-family="Helvetica,sans-Serif" font-size="10.00"># p_stm32_read()</text>
<text text-anchor="start" x="26.5" y="-222.5" font-family="Helvetica,sans-Serif" font-size="10.00"># p_stm32_read_line()</text>
<text text-anchor="start" x="26.5" y="-211.5" font-family="Helvetica,sans-Serif" font-size="10.00"># p_stm32_getc()</text>
<text text-anchor="start" x="26.5" y="-200.5" font-family="Helvetica,sans-Serif" font-size="10.00"># p_stm32_write_bl()</text>
<text text-anchor="start" x="26.5" y="-189.5" font-family="Helvetica,sans-Serif" font-size="10.00"># p_stm32_read_bl()</text>
</a>
</g>
</g>
<!-- Node2&#45;&gt;Node1 -->
<g id="edge1" class="edge">
<title>Node2&#45;&gt;Node1</title>
<path fill="none" stroke="midnightblue" d="M118.2,-173.04C122.97,-160.03 127.76,-146.95 132.27,-134.65"/>
<polygon fill="none" stroke="midnightblue" points="114.9,-171.89 114.74,-182.49 121.47,-174.3 114.9,-171.89"/>
</g>
<!-- Node3 -->
<g id="node3" class="node">
<title>Node3</title>
<g id="a_node3"><a xlink:href="classStm32__Uart__if.html" target="_top" xlink:title=" ">
<polygon fill="none" stroke="black" points="0,-398.5 0,-565.5 165,-565.5 165,-398.5 0,-398.5"/>
<text text-anchor="middle" x="82.5" y="-553.5" font-family="Helvetica,sans-Serif" font-size="10.00">Stm32_Uart_if</text>
<polyline fill="none" stroke="black" points="0,-546.5 165,-546.5 "/>
<text text-anchor="middle" x="82.5" y="-534.5" font-family="Helvetica,sans-Serif" font-size="10.00"> </text>
<polyline fill="none" stroke="black" points="0,-527.5 165,-527.5 "/>
<text text-anchor="start" x="8" y="-515.5" font-family="Helvetica,sans-Serif" font-size="10.00">+ stm32_write()</text>
<text text-anchor="start" x="8" y="-504.5" font-family="Helvetica,sans-Serif" font-size="10.00">+ stm32_read()</text>
<text text-anchor="start" x="8" y="-493.5" font-family="Helvetica,sans-Serif" font-size="10.00">+ stm32_read_line()</text>
<text text-anchor="start" x="8" y="-482.5" font-family="Helvetica,sans-Serif" font-size="10.00">+ stm32_getc()</text>
<text text-anchor="start" x="8" y="-471.5" font-family="Helvetica,sans-Serif" font-size="10.00">+ stm32_write_bl()</text>
<text text-anchor="start" x="8" y="-460.5" font-family="Helvetica,sans-Serif" font-size="10.00">+ stm32_read_bl()</text>
<text text-anchor="start" x="8" y="-449.5" font-family="Helvetica,sans-Serif" font-size="10.00">+ stm32_runBootLoader()</text>
<text text-anchor="start" x="8" y="-438.5" font-family="Helvetica,sans-Serif" font-size="10.00">+ stm32_runFirmware()</text>
<text text-anchor="start" x="8" y="-427.5" font-family="Helvetica,sans-Serif" font-size="10.00">+ stm32_reset()</text>
<text text-anchor="start" x="8" y="-416.5" font-family="Helvetica,sans-Serif" font-size="10.00">+ stm32_isFirmwareRunning()</text>
<text text-anchor="start" x="8" y="-405.5" font-family="Helvetica,sans-Serif" font-size="10.00">+ task_delay()</text>
</a>
</g>
</g>
<!-- Node3&#45;&gt;Node2 -->
<g id="edge2" class="edge">
<title>Node3&#45;&gt;Node2</title>
<path fill="none" stroke="midnightblue" d="M82.5,-388.05C82.5,-378.92 82.5,-369.67 82.5,-360.59"/>
<polygon fill="none" stroke="midnightblue" points="79,-388.3 82.5,-398.3 86,-388.3 79,-388.3"/>
</g>
<!-- Node4 -->
<g id="node4" class="node">
<title>Node4</title>
<g id="a_node4"><a xlink:href="structcfg__stm32.html" target="_top" xlink:title="stm32 component configuration">
<polygon fill="none" stroke="black" points="165,-221 165,-322 296,-322 296,-221 165,-221"/>
<text text-anchor="middle" x="230.5" y="-310" font-family="Helvetica,sans-Serif" font-size="10.00">cfg_stm32</text>
<polyline fill="none" stroke="black" points="165,-303 296,-303 "/>
<text text-anchor="start" x="173" y="-291" font-family="Helvetica,sans-Serif" font-size="10.00">+ uart_tx_gpio</text>
<text text-anchor="start" x="173" y="-280" font-family="Helvetica,sans-Serif" font-size="10.00">+ uart_rx_gpio</text>
<text text-anchor="start" x="173" y="-269" font-family="Helvetica,sans-Serif" font-size="10.00">+ boot_gpio_is_inverse</text>
<text text-anchor="start" x="173" y="-258" font-family="Helvetica,sans-Serif" font-size="10.00">+ boot_gpio</text>
<text text-anchor="start" x="173" y="-247" font-family="Helvetica,sans-Serif" font-size="10.00">+ reset_gpio</text>
<polyline fill="none" stroke="black" points="165,-240 296,-240 "/>
<text text-anchor="middle" x="230.5" y="-228" font-family="Helvetica,sans-Serif" font-size="10.00"> </text>
</a>
</g>
</g>
<!-- Node4&#45;&gt;Node1 -->
<g id="edge3" class="edge">
<title>Node4&#45;&gt;Node1</title>
<path fill="none" stroke="#404040" d="M212.3,-220.83C204.06,-198.34 194.13,-171.22 184.94,-146.14"/>
<polygon fill="none" stroke="#404040" points="184.91,-146.06 179.09,-141.8 180.78,-134.79 186.6,-139.05 184.91,-146.06"/>
<text text-anchor="middle" x="230" y="-156" font-family="Helvetica,sans-Serif" font-size="10.00"> +stm32_config</text>
</g>
</g>
</svg>
