<?xml version="1.0" encoding="UTF-8" standalone="no"?>
<!DOCTYPE svg PUBLIC "-//W3C//DTD SVG 1.1//EN"
 "http://www.w3.org/Graphics/SVG/1.1/DTD/svg11.dtd">
<!-- Generated by graphviz version 2.43.0 (0)
 -->
<!-- Title: cli_out.h Pages: 1 -->
<svg width="394pt" height="308pt"
 viewBox="0.00 0.00 394.00 308.00" xmlns="http://www.w3.org/2000/svg" xmlns:xlink="http://www.w3.org/1999/xlink">
<g id="graph0" class="graph" transform="scale(1 1) rotate(0) translate(4 304)">
<title>cli_out.h</title>
<!-- Node1 -->
<g id="node1" class="node">
<title>Node1</title>
<g id="a_node1"><a xlink:title="Textual output for console CLI.">
<polygon fill="#bfbfbf" stroke="black" points="79,-280.5 79,-299.5 137,-299.5 137,-280.5 79,-280.5"/>
<text text-anchor="middle" x="108" y="-287.5" font-family="Helvetica,sans-Serif" font-size="10.00">cli_out.h</text>
</a>
</g>
</g>
<!-- Node2 -->
<g id="node2" class="node">
<title>Node2</title>
<g id="a_node2"><a xlink:href="uout__writer_8hh.html" target="_top" xlink:title="Provide an output class hierarchy which knows about the required format (text or JSON) and write func...">
<polygon fill="none" stroke="black" points="65,-224.5 65,-243.5 151,-243.5 151,-224.5 65,-224.5"/>
<text text-anchor="middle" x="108" y="-231.5" font-family="Helvetica,sans-Serif" font-size="10.00">uout_writer.hh</text>
</a>
</g>
</g>
<!-- Node1&#45;&gt;Node2 -->
<g id="edge1" class="edge">
<title>Node1&#45;&gt;Node2</title>
<path fill="none" stroke="midnightblue" d="M108,-269.8C108,-260.91 108,-250.78 108,-243.75"/>
<polygon fill="midnightblue" stroke="midnightblue" points="104.5,-270.08 108,-280.08 111.5,-270.08 104.5,-270.08"/>
</g>
<!-- Node3 -->
<g id="node3" class="node">
<title>Node3</title>
<g id="a_node3"><a xlink:href="settings_8hh.html" target="_top" xlink:title=" ">
<polygon fill="none" stroke="black" points="28.5,-168.5 28.5,-187.5 99.5,-187.5 99.5,-168.5 28.5,-168.5"/>
<text text-anchor="middle" x="64" y="-175.5" font-family="Helvetica,sans-Serif" font-size="10.00">settings.hh</text>
</a>
</g>
</g>
<!-- Node2&#45;&gt;Node3 -->
<g id="edge2" class="edge">
<title>Node2&#45;&gt;Node3</title>
<path fill="none" stroke="midnightblue" d="M94.27,-216.14C86.6,-206.74 77.37,-195.4 71.13,-187.75"/>
<polygon fill="midnightblue" stroke="midnightblue" points="91.7,-218.54 100.73,-224.08 97.13,-214.12 91.7,-218.54"/>
</g>
<!-- Node7 -->
<g id="node7" class="node">
<title>Node7</title>
<g id="a_node7"><a xlink:href="uo__types_8h.html" target="_top" xlink:title="API parameter and return types.">
<polygon fill="none" stroke="black" points="122,-168.5 122,-187.5 192,-187.5 192,-168.5 122,-168.5"/>
<text text-anchor="middle" x="157" y="-175.5" font-family="Helvetica,sans-Serif" font-size="10.00">uo_types.h</text>
</a>
</g>
</g>
<!-- Node2&#45;&gt;Node7 -->
<g id="edge6" class="edge">
<title>Node2&#45;&gt;Node7</title>
<path fill="none" stroke="midnightblue" d="M123.03,-216.43C131.62,-206.97 142.04,-195.48 149.06,-187.75"/>
<polygon fill="midnightblue" stroke="midnightblue" points="120.22,-214.33 116.09,-224.08 125.4,-219.03 120.22,-214.33"/>
</g>
<!-- Node4 -->
<g id="node4" class="node">
<title>Node4</title>
<g id="a_node4"><a xlink:href="settings__template_8hh_source.html" target="_top" xlink:title=" ">
<polygon fill="none" stroke="black" points="0,-112.5 0,-131.5 120,-131.5 120,-112.5 0,-112.5"/>
<text text-anchor="middle" x="60" y="-119.5" font-family="Helvetica,sans-Serif" font-size="10.00">settings_template.hh</text>
</a>
</g>
</g>
<!-- Node3&#45;&gt;Node4 -->
<g id="edge3" class="edge">
<title>Node3&#45;&gt;Node4</title>
<path fill="none" stroke="midnightblue" d="M62.6,-158.1C61.94,-149.14 61.17,-138.86 60.65,-131.75"/>
<polygon fill="midnightblue" stroke="midnightblue" points="59.11,-158.37 63.34,-168.08 66.09,-157.85 59.11,-158.37"/>
</g>
<!-- Node5 -->
<g id="node5" class="node">
<title>Node5</title>
<g id="a_node5"><a xlink:href="comp__settings_8hh.html" target="_top" xlink:title="Settings for shared components.">
<polygon fill="none" stroke="black" points="8.5,-56.5 8.5,-75.5 111.5,-75.5 111.5,-56.5 8.5,-56.5"/>
<text text-anchor="middle" x="60" y="-63.5" font-family="Helvetica,sans-Serif" font-size="10.00">comp_settings.hh</text>
</a>
</g>
</g>
<!-- Node4&#45;&gt;Node5 -->
<g id="edge4" class="edge">
<title>Node4&#45;&gt;Node5</title>
<path fill="none" stroke="midnightblue" d="M60,-101.8C60,-92.91 60,-82.78 60,-75.75"/>
<polygon fill="midnightblue" stroke="midnightblue" points="56.5,-102.08 60,-112.08 63.5,-102.08 56.5,-102.08"/>
</g>
<!-- Node6 -->
<g id="node6" class="node">
<title>Node6</title>
<g id="a_node6"><a xlink:href="config__kvs_8h_source.html" target="_top" xlink:title=" ">
<polygon fill="none" stroke="black" points="21.5,-0.5 21.5,-19.5 98.5,-19.5 98.5,-0.5 21.5,-0.5"/>
<text text-anchor="middle" x="60" y="-7.5" font-family="Helvetica,sans-Serif" font-size="10.00">config_kvs.h</text>
</a>
</g>
</g>
<!-- Node5&#45;&gt;Node6 -->
<g id="edge5" class="edge">
<title>Node5&#45;&gt;Node6</title>
<path fill="none" stroke="midnightblue" d="M60,-45.8C60,-36.91 60,-26.78 60,-19.75"/>
<polygon fill="midnightblue" stroke="midnightblue" points="56.5,-46.08 60,-56.08 63.5,-46.08 56.5,-46.08"/>
</g>
<!-- Node8 -->
<g id="node8" class="node">
<title>Node8</title>
<g id="a_node8"><a xlink:href="cli_8h.html" target="_top" xlink:title="cli framework">
<polygon fill="none" stroke="black" points="138.5,-112.5 138.5,-131.5 175.5,-131.5 175.5,-112.5 138.5,-112.5"/>
<text text-anchor="middle" x="157" y="-119.5" font-family="Helvetica,sans-Serif" font-size="10.00">cli.h</text>
</a>
</g>
</g>
<!-- Node7&#45;&gt;Node8 -->
<g id="edge7" class="edge">
<title>Node7&#45;&gt;Node8</title>
<path fill="none" stroke="midnightblue" d="M157,-157.8C157,-148.91 157,-138.78 157,-131.75"/>
<polygon fill="midnightblue" stroke="midnightblue" points="153.5,-158.08 157,-168.08 160.5,-158.08 153.5,-158.08"/>
</g>
<!-- Node9 -->
<g id="node9" class="node">
<title>Node9</title>
<g id="a_node9"><a xlink:href="uo__callbacks_8h.html" target="_top" xlink:title="pub/sub interface to publish asynchronously to MQTT servers, HTTP&#45;client web&#45;sockets,...">
<polygon fill="none" stroke="black" points="193.5,-112.5 193.5,-131.5 282.5,-131.5 282.5,-112.5 193.5,-112.5"/>
<text text-anchor="middle" x="238" y="-119.5" font-family="Helvetica,sans-Serif" font-size="10.00">uo_callbacks.h</text>
</a>
</g>
</g>
<!-- Node7&#45;&gt;Node9 -->
<g id="edge8" class="edge">
<title>Node7&#45;&gt;Node9</title>
<path fill="none" stroke="midnightblue" d="M178.57,-162.62C193.36,-152.76 212.51,-139.99 225.02,-131.65"/>
<polygon fill="midnightblue" stroke="midnightblue" points="176.39,-159.86 170.01,-168.32 180.28,-165.69 176.39,-159.86"/>
</g>
<!-- Node10 -->
<g id="node10" class="node">
<title>Node10</title>
<g id="a_node10"><a xlink:href="tcp__cli__server__setup_8hh.html" target="_top" xlink:title="Create TCP server for interactive and non&#45;interactive CLI clients.">
<polygon fill="none" stroke="black" points="150.5,-56.5 150.5,-75.5 281.5,-75.5 281.5,-56.5 150.5,-56.5"/>
<text text-anchor="middle" x="216" y="-63.5" font-family="Helvetica,sans-Serif" font-size="10.00">tcp_cli_server_setup.hh</text>
</a>
</g>
</g>
<!-- Node9&#45;&gt;Node10 -->
<g id="edge9" class="edge">
<title>Node9&#45;&gt;Node10</title>
<path fill="none" stroke="midnightblue" d="M230.54,-102.69C226.83,-93.59 222.52,-83.01 219.57,-75.75"/>
<polygon fill="midnightblue" stroke="midnightblue" points="227.35,-104.14 234.37,-112.08 233.84,-101.5 227.35,-104.14"/>
</g>
<!-- Node11 -->
<g id="node11" class="node">
<title>Node11</title>
<g id="a_node11"><a xlink:href="txtio__setup_8hh_source.html" target="_top" xlink:title=" ">
<polygon fill="none" stroke="black" points="300,-56.5 300,-75.5 386,-75.5 386,-56.5 300,-56.5"/>
<text text-anchor="middle" x="343" y="-63.5" font-family="Helvetica,sans-Serif" font-size="10.00">txtio_setup.hh</text>
</a>
</g>
</g>
<!-- Node9&#45;&gt;Node11 -->
<g id="edge10" class="edge">
<title>Node9&#45;&gt;Node11</title>
<path fill="none" stroke="midnightblue" d="M263.81,-107.73C283.25,-97.73 309.35,-84.31 326.17,-75.65"/>
<polygon fill="midnightblue" stroke="midnightblue" points="262.16,-104.64 254.87,-112.32 265.36,-110.86 262.16,-104.64"/>
</g>
</g>
</svg>
