<?xml version="1.0" encoding="UTF-8" standalone="no"?>
<!DOCTYPE svg PUBLIC "-//W3C//DTD SVG 1.1//EN"
 "http://www.w3.org/Graphics/SVG/1.1/DTD/svg11.dtd">
<!-- Generated by graphviz version 2.43.0 (0)
 -->
<!-- Title: config_kvs/config_kvs.h Pages: 1 -->
<svg width="739pt" height="308pt"
 viewBox="0.00 0.00 739.00 308.00" xmlns="http://www.w3.org/2000/svg" xmlns:xlink="http://www.w3.org/1999/xlink">
<g id="graph0" class="graph" transform="scale(1 1) rotate(0) translate(4 304)">
<title>config_kvs/config_kvs.h</title>
<!-- Node1 -->
<g id="node1" class="node">
<title>Node1</title>
<g id="a_node1"><a xlink:title="read settings from kvs storage by cb_type">
<polygon fill="#bfbfbf" stroke="black" points="115,-280.5 115,-299.5 247,-299.5 247,-280.5 115,-280.5"/>
<text text-anchor="middle" x="181" y="-287.5" font-family="Helvetica,sans-Serif" font-size="10.00">config_kvs/config_kvs.h</text>
</a>
</g>
</g>
<!-- Node2 -->
<g id="node2" class="node">
<title>Node2</title>
<g id="a_node2"><a xlink:href="config_8h.html" target="_top" xlink:title=" ">
<polygon fill="none" stroke="black" points="126,-56.5 126,-75.5 236,-75.5 236,-56.5 126,-56.5"/>
<text text-anchor="middle" x="181" y="-63.5" font-family="Helvetica,sans-Serif" font-size="10.00">config_kvs/config.h</text>
</a>
</g>
</g>
<!-- Node1&#45;&gt;Node2 -->
<g id="edge1" class="edge">
<title>Node1&#45;&gt;Node2</title>
<path fill="none" stroke="midnightblue" d="M181,-280.3C181,-247.63 181,-131.87 181,-85.96"/>
<polygon fill="midnightblue" stroke="midnightblue" points="184.5,-85.88 181,-75.88 177.5,-85.88 184.5,-85.88"/>
</g>
<!-- Node5 -->
<g id="node5" class="node">
<title>Node5</title>
<g id="a_node5"><a xlink:href="kvs__wrapper_8h_source.html" target="_top" xlink:title=" ">
<polygon fill="none" stroke="black" points="0.5,-56.5 0.5,-75.5 107.5,-75.5 107.5,-56.5 0.5,-56.5"/>
<text text-anchor="middle" x="54" y="-63.5" font-family="Helvetica,sans-Serif" font-size="10.00">kvs/kvs_wrapper.h</text>
</a>
</g>
</g>
<!-- Node1&#45;&gt;Node5 -->
<g id="edge4" class="edge">
<title>Node1&#45;&gt;Node5</title>
<path fill="none" stroke="midnightblue" d="M176.02,-280.3C157.18,-247.36 89.98,-129.9 64.19,-84.81"/>
<polygon fill="midnightblue" stroke="midnightblue" points="67.09,-82.83 59.08,-75.88 61.01,-86.3 67.09,-82.83"/>
</g>
<!-- Node7 -->
<g id="node7" class="node">
<title>Node7</title>
<g id="a_node7"><a xlink:href="comp__settings_8hh.html" target="_top" xlink:title="Settings for shared components.">
<polygon fill="none" stroke="black" points="287,-224.5 287,-243.5 445,-243.5 445,-224.5 287,-224.5"/>
<text text-anchor="middle" x="366" y="-231.5" font-family="Helvetica,sans-Serif" font-size="10.00">config_kvs/comp_settings.hh</text>
</a>
</g>
</g>
<!-- Node1&#45;&gt;Node7 -->
<g id="edge8" class="edge">
<title>Node1&#45;&gt;Node7</title>
<path fill="none" stroke="midnightblue" d="M210.31,-280.44C241.84,-271.24 292.13,-256.56 326.99,-246.39"/>
<polygon fill="midnightblue" stroke="midnightblue" points="328.2,-249.68 336.82,-243.52 326.24,-242.96 328.2,-249.68"/>
</g>
<!-- Node3 -->
<g id="node3" class="node">
<title>Node3</title>
<g id="a_node3"><a xlink:title=" ">
<polygon fill="none" stroke="#bfbfbf" points="154.5,-0.5 154.5,-19.5 207.5,-19.5 207.5,-0.5 154.5,-0.5"/>
<text text-anchor="middle" x="181" y="-7.5" font-family="Helvetica,sans-Serif" font-size="10.00">stdint.h</text>
</a>
</g>
</g>
<!-- Node2&#45;&gt;Node3 -->
<g id="edge2" class="edge">
<title>Node2&#45;&gt;Node3</title>
<path fill="none" stroke="midnightblue" d="M181,-56.08C181,-49.01 181,-38.86 181,-29.99"/>
<polygon fill="midnightblue" stroke="midnightblue" points="184.5,-29.75 181,-19.75 177.5,-29.75 184.5,-29.75"/>
</g>
<!-- Node4 -->
<g id="node4" class="node">
<title>Node4</title>
<g id="a_node4"><a xlink:title=" ">
<polygon fill="none" stroke="#bfbfbf" points="74,-0.5 74,-19.5 136,-19.5 136,-0.5 74,-0.5"/>
<text text-anchor="middle" x="105" y="-7.5" font-family="Helvetica,sans-Serif" font-size="10.00">stdbool.h</text>
</a>
</g>
</g>
<!-- Node2&#45;&gt;Node4 -->
<g id="edge3" class="edge">
<title>Node2&#45;&gt;Node4</title>
<path fill="none" stroke="midnightblue" d="M168.79,-56.32C157.22,-48.11 139.62,-35.6 125.84,-25.81"/>
<polygon fill="midnightblue" stroke="midnightblue" points="127.61,-22.77 117.43,-19.83 123.56,-28.48 127.61,-22.77"/>
</g>
<!-- Node5&#45;&gt;Node3 -->
<g id="edge5" class="edge">
<title>Node5&#45;&gt;Node3</title>
<path fill="none" stroke="midnightblue" d="M74.12,-56.44C95.02,-47.56 127.93,-33.56 151.72,-23.45"/>
<polygon fill="midnightblue" stroke="midnightblue" points="153.14,-26.65 160.97,-19.52 150.4,-20.21 153.14,-26.65"/>
</g>
<!-- Node5&#45;&gt;Node4 -->
<g id="edge7" class="edge">
<title>Node5&#45;&gt;Node4</title>
<path fill="none" stroke="midnightblue" d="M62.42,-56.08C69.85,-48.22 80.85,-36.57 89.81,-27.08"/>
<polygon fill="midnightblue" stroke="midnightblue" points="92.41,-29.42 96.74,-19.75 87.32,-24.62 92.41,-29.42"/>
</g>
<!-- Node6 -->
<g id="node6" class="node">
<title>Node6</title>
<g id="a_node6"><a xlink:title=" ">
<polygon fill="none" stroke="#bfbfbf" points="0,-0.5 0,-19.5 56,-19.5 56,-0.5 0,-0.5"/>
<text text-anchor="middle" x="28" y="-7.5" font-family="Helvetica,sans-Serif" font-size="10.00">stddef.h</text>
</a>
</g>
</g>
<!-- Node5&#45;&gt;Node6 -->
<g id="edge6" class="edge">
<title>Node5&#45;&gt;Node6</title>
<path fill="none" stroke="midnightblue" d="M49.71,-56.08C46.15,-48.69 40.98,-37.95 36.58,-28.81"/>
<polygon fill="midnightblue" stroke="midnightblue" points="39.71,-27.24 32.21,-19.75 33.4,-30.28 39.71,-27.24"/>
</g>
<!-- Node7&#45;&gt;Node2 -->
<g id="edge18" class="edge">
<title>Node7&#45;&gt;Node2</title>
<path fill="none" stroke="midnightblue" d="M356.31,-224.31C326.59,-197.64 236.41,-116.72 198.29,-82.52"/>
<polygon fill="midnightblue" stroke="midnightblue" points="200.37,-79.68 190.59,-75.61 195.7,-84.89 200.37,-79.68"/>
</g>
<!-- Node8 -->
<g id="node8" class="node">
<title>Node8</title>
<g id="a_node8"><a xlink:href="settings__template_8hh_source.html" target="_top" xlink:title=" ">
<polygon fill="none" stroke="black" points="373,-168.5 373,-187.5 493,-187.5 493,-168.5 373,-168.5"/>
<text text-anchor="middle" x="433" y="-175.5" font-family="Helvetica,sans-Serif" font-size="10.00">settings_template.hh</text>
</a>
</g>
</g>
<!-- Node7&#45;&gt;Node8 -->
<g id="edge9" class="edge">
<title>Node7&#45;&gt;Node8</title>
<path fill="none" stroke="midnightblue" d="M376.76,-224.32C386.77,-216.26 401.89,-204.08 413.93,-194.37"/>
<polygon fill="midnightblue" stroke="midnightblue" points="416.45,-196.83 422.04,-187.83 412.06,-191.38 416.45,-196.83"/>
</g>
<!-- Node10 -->
<g id="node10" class="node">
<title>Node10</title>
<g id="a_node10"><a xlink:title=" ">
<polygon fill="none" stroke="#bfbfbf" points="254.5,-56.5 254.5,-75.5 377.5,-75.5 377.5,-56.5 254.5,-56.5"/>
<text text-anchor="middle" x="316" y="-63.5" font-family="Helvetica,sans-Serif" font-size="10.00">app_config/options.hh</text>
</a>
</g>
</g>
<!-- Node7&#45;&gt;Node10 -->
<g id="edge16" class="edge">
<title>Node7&#45;&gt;Node10</title>
<path fill="none" stroke="midnightblue" d="M363.31,-224.08C355.44,-197.95 332.33,-121.21 321.6,-85.58"/>
<polygon fill="midnightblue" stroke="midnightblue" points="324.82,-84.13 318.58,-75.57 318.11,-86.15 324.82,-84.13"/>
</g>
<!-- Node12 -->
<g id="node12" class="node">
<title>Node12</title>
<g id="a_node12"><a xlink:title=" ">
<polygon fill="none" stroke="#bfbfbf" points="525,-56.5 525,-75.5 657,-75.5 657,-56.5 525,-56.5"/>
<text text-anchor="middle" x="591" y="-63.5" font-family="Helvetica,sans-Serif" font-size="10.00">utils_misc/int_macros.h</text>
</a>
</g>
</g>
<!-- Node7&#45;&gt;Node12 -->
<g id="edge17" class="edge">
<title>Node7&#45;&gt;Node12</title>
<path fill="none" stroke="midnightblue" d="M415,-224.45C442.51,-217.87 476.34,-206.63 502,-188 540.19,-160.27 568.86,-111.27 582.39,-84.94"/>
<polygon fill="midnightblue" stroke="midnightblue" points="585.64,-86.27 586.96,-75.75 579.37,-83.15 585.64,-86.27"/>
</g>
<!-- Node13 -->
<g id="node13" class="node">
<title>Node13</title>
<g id="a_node13"><a xlink:title=" ">
<polygon fill="none" stroke="#bfbfbf" points="675,-56.5 675,-75.5 731,-75.5 731,-56.5 675,-56.5"/>
<text text-anchor="middle" x="703" y="-63.5" font-family="Helvetica,sans-Serif" font-size="10.00">assert.h</text>
</a>
</g>
</g>
<!-- Node7&#45;&gt;Node13 -->
<g id="edge19" class="edge">
<title>Node7&#45;&gt;Node13</title>
<path fill="none" stroke="midnightblue" d="M411.49,-224.49C444.53,-217.31 489.8,-205.4 527,-188 589.67,-158.69 654.48,-107.83 685.02,-82.4"/>
<polygon fill="midnightblue" stroke="midnightblue" points="687.63,-84.78 693.03,-75.66 683.12,-79.42 687.63,-84.78"/>
</g>
<!-- Node9 -->
<g id="node9" class="node">
<title>Node9</title>
<g id="a_node9"><a xlink:href="settings_8hh.html" target="_top" xlink:title=" ">
<polygon fill="none" stroke="black" points="409.5,-112.5 409.5,-131.5 480.5,-131.5 480.5,-112.5 409.5,-112.5"/>
<text text-anchor="middle" x="445" y="-119.5" font-family="Helvetica,sans-Serif" font-size="10.00">settings.hh</text>
</a>
</g>
</g>
<!-- Node8&#45;&gt;Node9 -->
<g id="edge10" class="edge">
<title>Node8&#45;&gt;Node9</title>
<path fill="none" stroke="midnightblue" d="M434.98,-168.08C436.57,-160.93 438.86,-150.64 440.85,-141.69"/>
<polygon fill="midnightblue" stroke="midnightblue" points="444.3,-142.27 443.06,-131.75 437.47,-140.75 444.3,-142.27"/>
</g>
<!-- Node9&#45;&gt;Node2 -->
<g id="edge14" class="edge">
<title>Node9&#45;&gt;Node2</title>
<path fill="none" stroke="midnightblue" d="M409.4,-113.72C364.01,-104.43 285.18,-88.31 233.05,-77.65"/>
<polygon fill="midnightblue" stroke="midnightblue" points="233.49,-74.17 223,-75.59 232.09,-81.02 233.49,-74.17"/>
</g>
<!-- Node9&#45;&gt;Node10 -->
<g id="edge11" class="edge">
<title>Node9&#45;&gt;Node10</title>
<path fill="none" stroke="midnightblue" d="M424.56,-112.44C403.33,-103.56 369.9,-89.56 345.75,-79.45"/>
<polygon fill="midnightblue" stroke="midnightblue" points="346.92,-76.15 336.34,-75.52 344.22,-82.61 346.92,-76.15"/>
</g>
<!-- Node11 -->
<g id="node11" class="node">
<title>Node11</title>
<g id="a_node11"><a xlink:title=" ">
<polygon fill="none" stroke="#bfbfbf" points="395.5,-56.5 395.5,-75.5 506.5,-75.5 506.5,-56.5 395.5,-56.5"/>
<text text-anchor="middle" x="451" y="-63.5" font-family="Helvetica,sans-Serif" font-size="10.00">uout/uout_writer.hh</text>
</a>
</g>
</g>
<!-- Node9&#45;&gt;Node11 -->
<g id="edge12" class="edge">
<title>Node9&#45;&gt;Node11</title>
<path fill="none" stroke="midnightblue" d="M445.99,-112.08C446.79,-104.93 447.93,-94.64 448.92,-85.69"/>
<polygon fill="midnightblue" stroke="midnightblue" points="452.4,-86.08 450.03,-75.75 445.44,-85.3 452.4,-86.08"/>
</g>
<!-- Node9&#45;&gt;Node12 -->
<g id="edge13" class="edge">
<title>Node9&#45;&gt;Node12</title>
<path fill="none" stroke="midnightblue" d="M468.13,-112.44C492.48,-103.44 531.01,-89.19 558.42,-79.05"/>
<polygon fill="midnightblue" stroke="midnightblue" points="559.81,-82.27 567.97,-75.52 557.38,-75.7 559.81,-82.27"/>
</g>
<!-- Node9&#45;&gt;Node13 -->
<g id="edge15" class="edge">
<title>Node9&#45;&gt;Node13</title>
<path fill="none" stroke="midnightblue" d="M480.69,-114.16C522.48,-106.06 594.05,-91.9 664.77,-76.21"/>
<polygon fill="midnightblue" stroke="midnightblue" points="665.75,-79.58 674.74,-73.99 664.22,-72.75 665.75,-79.58"/>
</g>
</g>
</svg>
