<?xml version="1.0" encoding="UTF-8" standalone="no"?>
<!DOCTYPE svg PUBLIC "-//W3C//DTD SVG 1.1//EN"
 "http://www.w3.org/Graphics/SVG/1.1/DTD/svg11.dtd">
<!-- Generated by graphviz version 2.43.0 (0)
 -->
<!-- Title: config_kvs/config_kvs.h Pages: 1 -->
<svg width="1076pt" height="364pt"
 viewBox="0.00 0.00 1075.50 364.00" xmlns="http://www.w3.org/2000/svg" xmlns:xlink="http://www.w3.org/1999/xlink">
<g id="graph0" class="graph" transform="scale(1 1) rotate(0) translate(4 360)">
<title>config_kvs/config_kvs.h</title>
<!-- Node1 -->
<g id="node1" class="node">
<title>Node1</title>
<g id="a_node1"><a xlink:title="read settings from kvs storage by cb_type">
<polygon fill="#bfbfbf" stroke="black" points="276.5,-336.5 276.5,-355.5 408.5,-355.5 408.5,-336.5 276.5,-336.5"/>
<text text-anchor="middle" x="342.5" y="-343.5" font-family="Helvetica,sans-Serif" font-size="10.00">config_kvs/config_kvs.h</text>
</a>
</g>
</g>
<!-- Node2 -->
<g id="node2" class="node">
<title>Node2</title>
<g id="a_node2"><a xlink:href="config_8h.html" target="_top" xlink:title=" ">
<polygon fill="none" stroke="black" points="287.5,-112.5 287.5,-131.5 397.5,-131.5 397.5,-112.5 287.5,-112.5"/>
<text text-anchor="middle" x="342.5" y="-119.5" font-family="Helvetica,sans-Serif" font-size="10.00">config_kvs/config.h</text>
</a>
</g>
</g>
<!-- Node1&#45;&gt;Node2 -->
<g id="edge1" class="edge">
<title>Node1&#45;&gt;Node2</title>
<path fill="none" stroke="midnightblue" d="M342.5,-336.3C342.5,-303.63 342.5,-187.87 342.5,-141.96"/>
<polygon fill="midnightblue" stroke="midnightblue" points="346,-141.88 342.5,-131.88 339,-141.88 346,-141.88"/>
</g>
<!-- Node5 -->
<g id="node5" class="node">
<title>Node5</title>
<g id="a_node5"><a xlink:href="kvs__wrapper_8h_source.html" target="_top" xlink:title=" ">
<polygon fill="none" stroke="black" points="0,-56.5 0,-75.5 107,-75.5 107,-56.5 0,-56.5"/>
<text text-anchor="middle" x="53.5" y="-63.5" font-family="Helvetica,sans-Serif" font-size="10.00">kvs/kvs_wrapper.h</text>
</a>
</g>
</g>
<!-- Node1&#45;&gt;Node5 -->
<g id="edge4" class="edge">
<title>Node1&#45;&gt;Node5</title>
<path fill="none" stroke="midnightblue" d="M291.12,-336.41C237.61,-324.17 161.5,-296.04 161.5,-235 161.5,-235 161.5,-235 161.5,-177 161.5,-131.21 113.25,-97.49 81.25,-80.16"/>
<polygon fill="midnightblue" stroke="midnightblue" points="82.8,-77.02 72.31,-75.51 79.57,-83.23 82.8,-77.02"/>
</g>
<!-- Node7 -->
<g id="node7" class="node">
<title>Node7</title>
<g id="a_node7"><a xlink:href="comp__settings_8hh.html" target="_top" xlink:title="Settings for shared components.">
<polygon fill="none" stroke="black" points="496.5,-280.5 496.5,-299.5 654.5,-299.5 654.5,-280.5 496.5,-280.5"/>
<text text-anchor="middle" x="575.5" y="-287.5" font-family="Helvetica,sans-Serif" font-size="10.00">config_kvs/comp_settings.hh</text>
</a>
</g>
</g>
<!-- Node1&#45;&gt;Node7 -->
<g id="edge8" class="edge">
<title>Node1&#45;&gt;Node7</title>
<path fill="none" stroke="midnightblue" d="M379.42,-336.44C419.9,-327.06 484.92,-311.99 528.88,-301.8"/>
<polygon fill="midnightblue" stroke="midnightblue" points="529.8,-305.18 538.75,-299.52 528.22,-298.36 529.8,-305.18"/>
</g>
<!-- Node3 -->
<g id="node3" class="node">
<title>Node3</title>
<g id="a_node3"><a xlink:title=" ">
<polygon fill="none" stroke="#bfbfbf" points="257,-0.5 257,-19.5 310,-19.5 310,-0.5 257,-0.5"/>
<text text-anchor="middle" x="283.5" y="-7.5" font-family="Helvetica,sans-Serif" font-size="10.00">stdint.h</text>
</a>
</g>
</g>
<!-- Node2&#45;&gt;Node3 -->
<g id="edge2" class="edge">
<title>Node2&#45;&gt;Node3</title>
<path fill="none" stroke="midnightblue" d="M339.19,-112.37C334.21,-99.7 324.24,-75.48 313.5,-56 308.23,-46.44 301.56,-36.28 295.85,-28.04"/>
<polygon fill="midnightblue" stroke="midnightblue" points="298.57,-25.83 289.93,-19.69 292.85,-29.87 298.57,-25.83"/>
</g>
<!-- Node4 -->
<g id="node4" class="node">
<title>Node4</title>
<g id="a_node4"><a xlink:title=" ">
<polygon fill="none" stroke="#bfbfbf" points="104.5,-0.5 104.5,-19.5 166.5,-19.5 166.5,-0.5 104.5,-0.5"/>
<text text-anchor="middle" x="135.5" y="-7.5" font-family="Helvetica,sans-Serif" font-size="10.00">stdbool.h</text>
</a>
</g>
</g>
<!-- Node2&#45;&gt;Node4 -->
<g id="edge3" class="edge">
<title>Node2&#45;&gt;Node4</title>
<path fill="none" stroke="midnightblue" d="M287.07,-113.96C238.71,-106.73 173.4,-93.99 154.5,-76 142,-64.1 137.59,-44.48 136.1,-29.91"/>
<polygon fill="midnightblue" stroke="midnightblue" points="139.57,-29.3 135.43,-19.54 132.58,-29.74 139.57,-29.3"/>
</g>
<!-- Node5&#45;&gt;Node3 -->
<g id="edge5" class="edge">
<title>Node5&#45;&gt;Node3</title>
<path fill="none" stroke="midnightblue" d="M89.94,-56.44C132.98,-46.34 204.13,-29.63 247.14,-19.54"/>
<polygon fill="midnightblue" stroke="midnightblue" points="247.97,-22.94 256.91,-17.24 246.37,-16.12 247.97,-22.94"/>
</g>
<!-- Node5&#45;&gt;Node4 -->
<g id="edge7" class="edge">
<title>Node5&#45;&gt;Node4</title>
<path fill="none" stroke="midnightblue" d="M66.67,-56.32C79.35,-47.98 98.73,-35.21 113.71,-25.35"/>
<polygon fill="midnightblue" stroke="midnightblue" points="115.93,-28.08 122.36,-19.65 112.08,-22.23 115.93,-28.08"/>
</g>
<!-- Node6 -->
<g id="node6" class="node">
<title>Node6</title>
<g id="a_node6"><a xlink:title=" ">
<polygon fill="none" stroke="#bfbfbf" points="25.5,-0.5 25.5,-19.5 81.5,-19.5 81.5,-0.5 25.5,-0.5"/>
<text text-anchor="middle" x="53.5" y="-7.5" font-family="Helvetica,sans-Serif" font-size="10.00">stddef.h</text>
</a>
</g>
</g>
<!-- Node5&#45;&gt;Node6 -->
<g id="edge6" class="edge">
<title>Node5&#45;&gt;Node6</title>
<path fill="none" stroke="midnightblue" d="M53.5,-56.08C53.5,-49.01 53.5,-38.86 53.5,-29.99"/>
<polygon fill="midnightblue" stroke="midnightblue" points="57,-29.75 53.5,-19.75 50,-29.75 57,-29.75"/>
</g>
<!-- Node7&#45;&gt;Node2 -->
<g id="edge34" class="edge">
<title>Node7&#45;&gt;Node2</title>
<path fill="none" stroke="midnightblue" d="M563.3,-280.31C525.48,-253.36 409.89,-171.01 362.79,-137.46"/>
<polygon fill="midnightblue" stroke="midnightblue" points="364.75,-134.56 354.58,-131.61 360.69,-140.26 364.75,-134.56"/>
</g>
<!-- Node8 -->
<g id="node8" class="node">
<title>Node8</title>
<g id="a_node8"><a xlink:href="settings__template_8hh_source.html" target="_top" xlink:title=" ">
<polygon fill="none" stroke="black" points="568.5,-224.5 568.5,-243.5 688.5,-243.5 688.5,-224.5 568.5,-224.5"/>
<text text-anchor="middle" x="628.5" y="-231.5" font-family="Helvetica,sans-Serif" font-size="10.00">settings_template.hh</text>
</a>
</g>
</g>
<!-- Node7&#45;&gt;Node8 -->
<g id="edge9" class="edge">
<title>Node7&#45;&gt;Node8</title>
<path fill="none" stroke="midnightblue" d="M584.25,-280.08C591.97,-272.22 603.4,-260.57 612.72,-251.08"/>
<polygon fill="midnightblue" stroke="midnightblue" points="615.4,-253.34 619.91,-243.75 610.41,-248.44 615.4,-253.34"/>
</g>
<!-- Node10 -->
<g id="node10" class="node">
<title>Node10</title>
<g id="a_node10"><a xlink:title=" ">
<polygon fill="none" stroke="#bfbfbf" points="453,-112.5 453,-131.5 576,-131.5 576,-112.5 453,-112.5"/>
<text text-anchor="middle" x="514.5" y="-119.5" font-family="Helvetica,sans-Serif" font-size="10.00">app_config/options.hh</text>
</a>
</g>
</g>
<!-- Node7&#45;&gt;Node10 -->
<g id="edge32" class="edge">
<title>Node7&#45;&gt;Node10</title>
<path fill="none" stroke="midnightblue" d="M572.22,-280.08C562.58,-253.83 534.18,-176.55 521.16,-141.12"/>
<polygon fill="midnightblue" stroke="midnightblue" points="524.38,-139.75 517.65,-131.57 517.81,-142.16 524.38,-139.75"/>
</g>
<!-- Node20 -->
<g id="node20" class="node">
<title>Node20</title>
<g id="a_node20"><a xlink:title=" ">
<polygon fill="none" stroke="#bfbfbf" points="1011.5,-56.5 1011.5,-75.5 1067.5,-75.5 1067.5,-56.5 1011.5,-56.5"/>
<text text-anchor="middle" x="1039.5" y="-63.5" font-family="Helvetica,sans-Serif" font-size="10.00">assert.h</text>
</a>
</g>
</g>
<!-- Node7&#45;&gt;Node20 -->
<g id="edge35" class="edge">
<title>Node7&#45;&gt;Node20</title>
<path fill="none" stroke="midnightblue" d="M612.05,-280.46C642.93,-272.68 687.97,-259.97 725.5,-244 840.99,-194.85 968.26,-114.06 1017.96,-81.39"/>
<polygon fill="midnightblue" stroke="midnightblue" points="1020.16,-84.12 1026.58,-75.69 1016.3,-78.28 1020.16,-84.12"/>
</g>
<!-- Node23 -->
<g id="node23" class="node">
<title>Node23</title>
<g id="a_node23"><a xlink:title=" ">
<polygon fill="none" stroke="#bfbfbf" points="761.5,-112.5 761.5,-131.5 893.5,-131.5 893.5,-112.5 761.5,-112.5"/>
<text text-anchor="middle" x="827.5" y="-119.5" font-family="Helvetica,sans-Serif" font-size="10.00">utils_misc/int_macros.h</text>
</a>
</g>
</g>
<!-- Node7&#45;&gt;Node23 -->
<g id="edge33" class="edge">
<title>Node7&#45;&gt;Node23</title>
<path fill="none" stroke="midnightblue" d="M609.22,-280.48C634.67,-273.14 669.81,-261.03 697.5,-244 745.87,-214.25 791.93,-164.67 813.97,-139.2"/>
<polygon fill="midnightblue" stroke="midnightblue" points="816.66,-141.43 820.49,-131.55 811.34,-136.89 816.66,-141.43"/>
</g>
<!-- Node9 -->
<g id="node9" class="node">
<title>Node9</title>
<g id="a_node9"><a xlink:href="settings_8hh.html" target="_top" xlink:title=" ">
<polygon fill="none" stroke="black" points="605,-168.5 605,-187.5 676,-187.5 676,-168.5 605,-168.5"/>
<text text-anchor="middle" x="640.5" y="-175.5" font-family="Helvetica,sans-Serif" font-size="10.00">settings.hh</text>
</a>
</g>
</g>
<!-- Node8&#45;&gt;Node9 -->
<g id="edge10" class="edge">
<title>Node8&#45;&gt;Node9</title>
<path fill="none" stroke="midnightblue" d="M630.48,-224.08C632.07,-216.93 634.36,-206.64 636.35,-197.69"/>
<polygon fill="midnightblue" stroke="midnightblue" points="639.8,-198.27 638.56,-187.75 632.97,-196.75 639.8,-198.27"/>
</g>
<!-- Node9&#45;&gt;Node2 -->
<g id="edge30" class="edge">
<title>Node9&#45;&gt;Node2</title>
<path fill="none" stroke="midnightblue" d="M604.85,-170.54C554.03,-161.33 460.21,-144.33 399.63,-133.35"/>
<polygon fill="midnightblue" stroke="midnightblue" points="399.92,-129.85 389.46,-131.51 398.68,-136.74 399.92,-129.85"/>
</g>
<!-- Node9&#45;&gt;Node10 -->
<g id="edge11" class="edge">
<title>Node9&#45;&gt;Node10</title>
<path fill="none" stroke="midnightblue" d="M620.53,-168.44C599.89,-159.6 567.44,-145.69 543.87,-135.59"/>
<polygon fill="midnightblue" stroke="midnightblue" points="544.94,-132.24 534.37,-131.52 542.18,-138.67 544.94,-132.24"/>
</g>
<!-- Node11 -->
<g id="node11" class="node">
<title>Node11</title>
<g id="a_node11"><a xlink:href="uout__writer_8hh.html" target="_top" xlink:title="Provide an output class hierarchy which knows about the required format (text or JSON) and write func...">
<polygon fill="none" stroke="black" points="594,-112.5 594,-131.5 705,-131.5 705,-112.5 594,-112.5"/>
<text text-anchor="middle" x="649.5" y="-119.5" font-family="Helvetica,sans-Serif" font-size="10.00">uout/uout_writer.hh</text>
</a>
</g>
</g>
<!-- Node9&#45;&gt;Node11 -->
<g id="edge12" class="edge">
<title>Node9&#45;&gt;Node11</title>
<path fill="none" stroke="midnightblue" d="M641.99,-168.08C643.18,-160.93 644.89,-150.64 646.38,-141.69"/>
<polygon fill="midnightblue" stroke="midnightblue" points="649.85,-142.19 648.04,-131.75 642.95,-141.04 649.85,-142.19"/>
</g>
<!-- Node9&#45;&gt;Node20 -->
<g id="edge31" class="edge">
<title>Node9&#45;&gt;Node20</title>
<path fill="none" stroke="midnightblue" d="M654.78,-168.3C682.58,-151.43 742.15,-115.6 752.5,-112 855.53,-76.2 890.31,-96.08 1001.37,-76.02"/>
<polygon fill="midnightblue" stroke="midnightblue" points="1002.1,-79.44 1011.28,-74.16 1000.81,-72.56 1002.1,-79.44"/>
</g>
<!-- Node9&#45;&gt;Node23 -->
<g id="edge29" class="edge">
<title>Node9&#45;&gt;Node23</title>
<path fill="none" stroke="midnightblue" d="M670.13,-168.44C702,-159.24 752.83,-144.56 788.06,-134.39"/>
<polygon fill="midnightblue" stroke="midnightblue" points="789.37,-137.65 798.01,-131.52 787.43,-130.93 789.37,-137.65"/>
</g>
<!-- Node11&#45;&gt;Node3 -->
<g id="edge22" class="edge">
<title>Node11&#45;&gt;Node3</title>
<path fill="none" stroke="midnightblue" d="M645.86,-112.08C639.44,-97.63 624.68,-69.37 602.5,-56 555.59,-27.72 393.72,-16.37 320.27,-12.6"/>
<polygon fill="midnightblue" stroke="midnightblue" points="320.26,-9.1 310.1,-12.1 319.91,-16.09 320.26,-9.1"/>
</g>
<!-- Node12 -->
<g id="node12" class="node">
<title>Node12</title>
<g id="a_node12"><a xlink:href="so__out_8h.html" target="_top" xlink:title="write formatted output to UoutWriter">
<polygon fill="none" stroke="black" points="649.5,-56.5 649.5,-75.5 707.5,-75.5 707.5,-56.5 649.5,-56.5"/>
<text text-anchor="middle" x="678.5" y="-63.5" font-family="Helvetica,sans-Serif" font-size="10.00">so_out.h</text>
</a>
</g>
</g>
<!-- Node11&#45;&gt;Node12 -->
<g id="edge13" class="edge">
<title>Node11&#45;&gt;Node12</title>
<path fill="none" stroke="midnightblue" d="M654.29,-112.08C658.26,-104.69 664.03,-93.95 668.93,-84.81"/>
<polygon fill="midnightblue" stroke="midnightblue" points="672.15,-86.22 673.8,-75.75 665.99,-82.91 672.15,-86.22"/>
</g>
<!-- Node13 -->
<g id="node13" class="node">
<title>Node13</title>
<g id="a_node13"><a xlink:href="so__target__bits_8h.html" target="_top" xlink:title="flags to select output formats and targets">
<polygon fill="none" stroke="black" points="633,-0.5 633,-19.5 728,-19.5 728,-0.5 633,-0.5"/>
<text text-anchor="middle" x="680.5" y="-7.5" font-family="Helvetica,sans-Serif" font-size="10.00">so_target_bits.h</text>
</a>
</g>
</g>
<!-- Node11&#45;&gt;Node13 -->
<g id="edge15" class="edge">
<title>Node11&#45;&gt;Node13</title>
<path fill="none" stroke="midnightblue" d="M672.29,-112.47C687.83,-105.32 707.21,-93.44 716.5,-76 725.53,-59.06 711.9,-39.85 698.9,-26.74"/>
<polygon fill="midnightblue" stroke="midnightblue" points="701.18,-24.08 691.5,-19.78 696.39,-29.18 701.18,-24.08"/>
</g>
<!-- Node14 -->
<g id="node14" class="node">
<title>Node14</title>
<g id="a_node14"><a xlink:href="uout__builder__json_8hh.html" target="_top" xlink:title="Create JSON output from key/val pairs.">
<polygon fill="none" stroke="black" points="801.5,-56.5 801.5,-75.5 919.5,-75.5 919.5,-56.5 801.5,-56.5"/>
<text text-anchor="middle" x="860.5" y="-63.5" font-family="Helvetica,sans-Serif" font-size="10.00">uout_builder_json.hh</text>
</a>
</g>
</g>
<!-- Node11&#45;&gt;Node14 -->
<g id="edge16" class="edge">
<title>Node11&#45;&gt;Node14</title>
<path fill="none" stroke="midnightblue" d="M682.93,-112.44C719.36,-103.12 777.73,-88.18 817.53,-78"/>
<polygon fill="midnightblue" stroke="midnightblue" points="818.4,-81.39 827.22,-75.52 816.67,-74.61 818.4,-81.39"/>
</g>
<!-- Node16 -->
<g id="node16" class="node">
<title>Node16</title>
<g id="a_node16"><a xlink:title=" ">
<polygon fill="none" stroke="#bfbfbf" points="748,-0.5 748,-19.5 813,-19.5 813,-0.5 748,-0.5"/>
<text text-anchor="middle" x="780.5" y="-7.5" font-family="Helvetica,sans-Serif" font-size="10.00">functional</text>
</a>
</g>
</g>
<!-- Node11&#45;&gt;Node16 -->
<g id="edge27" class="edge">
<title>Node11&#45;&gt;Node16</title>
<path fill="none" stroke="midnightblue" d="M670.56,-112.44C688.09,-104.65 713.08,-91.94 731.5,-76 747.3,-62.32 761.2,-42.76 770.12,-28.67"/>
<polygon fill="midnightblue" stroke="midnightblue" points="773.23,-30.29 775.46,-19.93 767.26,-26.64 773.23,-30.29"/>
</g>
<!-- Node17 -->
<g id="node17" class="node">
<title>Node17</title>
<g id="a_node17"><a xlink:href="uout__builder__plaintext_8hh_source.html" target="_top" xlink:title=" ">
<polygon fill="none" stroke="black" points="164,-56.5 164,-75.5 305,-75.5 305,-56.5 164,-56.5"/>
<text text-anchor="middle" x="234.5" y="-63.5" font-family="Helvetica,sans-Serif" font-size="10.00">uout_builder_plaintext.hh</text>
</a>
</g>
</g>
<!-- Node11&#45;&gt;Node17 -->
<g id="edge19" class="edge">
<title>Node11&#45;&gt;Node17</title>
<path fill="none" stroke="midnightblue" d="M593.66,-113.11C590.9,-112.73 588.17,-112.36 585.5,-112 491.92,-99.42 384.19,-85.73 313.03,-76.79"/>
<polygon fill="midnightblue" stroke="midnightblue" points="313.16,-73.28 302.81,-75.51 312.29,-80.22 313.16,-73.28"/>
</g>
<!-- Node18 -->
<g id="node18" class="node">
<title>Node18</title>
<g id="a_node18"><a xlink:title=" ">
<polygon fill="none" stroke="#bfbfbf" points="937.5,-56.5 937.5,-75.5 993.5,-75.5 993.5,-56.5 937.5,-56.5"/>
<text text-anchor="middle" x="965.5" y="-63.5" font-family="Helvetica,sans-Serif" font-size="10.00">unistd.h</text>
</a>
</g>
</g>
<!-- Node11&#45;&gt;Node18 -->
<g id="edge23" class="edge">
<title>Node11&#45;&gt;Node18</title>
<path fill="none" stroke="midnightblue" d="M705.05,-113.36C759.37,-105.58 844.63,-92.6 927.45,-76.09"/>
<polygon fill="midnightblue" stroke="midnightblue" points="928.16,-79.51 937.27,-74.11 926.78,-72.65 928.16,-79.51"/>
</g>
<!-- Node19 -->
<g id="node19" class="node">
<title>Node19</title>
<g id="a_node19"><a xlink:title=" ">
<polygon fill="none" stroke="#bfbfbf" points="362,-56.5 362,-75.5 415,-75.5 415,-56.5 362,-56.5"/>
<text text-anchor="middle" x="388.5" y="-63.5" font-family="Helvetica,sans-Serif" font-size="10.00">string.h</text>
</a>
</g>
</g>
<!-- Node11&#45;&gt;Node19 -->
<g id="edge24" class="edge">
<title>Node11&#45;&gt;Node19</title>
<path fill="none" stroke="midnightblue" d="M603.69,-112.5C560.26,-104.29 492.97,-91.2 425.2,-76.07"/>
<polygon fill="midnightblue" stroke="midnightblue" points="425.73,-72.6 415.2,-73.83 424.19,-79.43 425.73,-72.6"/>
</g>
<!-- Node11&#45;&gt;Node20 -->
<g id="edge25" class="edge">
<title>Node11&#45;&gt;Node20</title>
<path fill="none" stroke="midnightblue" d="M705.28,-113.82C710.09,-113.2 714.88,-112.59 719.5,-112 842.07,-96.32 876.1,-98.87 1001.31,-76.04"/>
<polygon fill="midnightblue" stroke="midnightblue" points="1002.09,-79.46 1011.29,-74.21 1000.82,-72.58 1002.09,-79.46"/>
</g>
<!-- Node21 -->
<g id="node21" class="node">
<title>Node21</title>
<g id="a_node21"><a xlink:title=" ">
<polygon fill="none" stroke="#bfbfbf" points="433,-56.5 433,-75.5 530,-75.5 530,-56.5 433,-56.5"/>
<text text-anchor="middle" x="481.5" y="-63.5" font-family="Helvetica,sans-Serif" font-size="10.00">utils_misc/itoa.h</text>
</a>
</g>
</g>
<!-- Node11&#45;&gt;Node21 -->
<g id="edge26" class="edge">
<title>Node11&#45;&gt;Node21</title>
<path fill="none" stroke="midnightblue" d="M622.88,-112.44C594.49,-103.32 549.36,-88.81 517.75,-78.65"/>
<polygon fill="midnightblue" stroke="midnightblue" points="518.59,-75.24 508,-75.52 516.44,-81.91 518.59,-75.24"/>
</g>
<!-- Node22 -->
<g id="node22" class="node">
<title>Node22</title>
<g id="a_node22"><a xlink:title=" ">
<polygon fill="none" stroke="#bfbfbf" points="548,-56.5 548,-75.5 593,-75.5 593,-56.5 548,-56.5"/>
<text text-anchor="middle" x="570.5" y="-63.5" font-family="Helvetica,sans-Serif" font-size="10.00">utility</text>
</a>
</g>
</g>
<!-- Node11&#45;&gt;Node22 -->
<g id="edge28" class="edge">
<title>Node11&#45;&gt;Node22</title>
<path fill="none" stroke="midnightblue" d="M636.81,-112.32C624.6,-103.98 605.92,-91.21 591.5,-81.35"/>
<polygon fill="midnightblue" stroke="midnightblue" points="593.39,-78.41 583.16,-75.65 589.44,-84.19 593.39,-78.41"/>
</g>
<!-- Node12&#45;&gt;Node13 -->
<g id="edge14" class="edge">
<title>Node12&#45;&gt;Node13</title>
<path fill="none" stroke="midnightblue" d="M678.83,-56.08C679.09,-49.01 679.47,-38.86 679.8,-29.99"/>
<polygon fill="midnightblue" stroke="midnightblue" points="683.3,-29.87 680.18,-19.75 676.31,-29.61 683.3,-29.87"/>
</g>
<!-- Node15 -->
<g id="node15" class="node">
<title>Node15</title>
<g id="a_node15"><a xlink:title=" ">
<polygon fill="none" stroke="#bfbfbf" points="834,-0.5 834,-19.5 887,-19.5 887,-0.5 834,-0.5"/>
<text text-anchor="middle" x="860.5" y="-7.5" font-family="Helvetica,sans-Serif" font-size="10.00">stdlib.h</text>
</a>
</g>
</g>
<!-- Node14&#45;&gt;Node15 -->
<g id="edge17" class="edge">
<title>Node14&#45;&gt;Node15</title>
<path fill="none" stroke="midnightblue" d="M860.5,-56.08C860.5,-49.01 860.5,-38.86 860.5,-29.99"/>
<polygon fill="midnightblue" stroke="midnightblue" points="864,-29.75 860.5,-19.75 857,-29.75 864,-29.75"/>
</g>
<!-- Node14&#45;&gt;Node16 -->
<g id="edge18" class="edge">
<title>Node14&#45;&gt;Node16</title>
<path fill="none" stroke="midnightblue" d="M847.65,-56.32C835.28,-47.98 816.37,-35.21 801.76,-25.35"/>
<polygon fill="midnightblue" stroke="midnightblue" points="803.57,-22.35 793.32,-19.65 799.65,-28.15 803.57,-22.35"/>
</g>
<!-- Node17&#45;&gt;Node3 -->
<g id="edge20" class="edge">
<title>Node17&#45;&gt;Node3</title>
<path fill="none" stroke="midnightblue" d="M242.59,-56.08C249.66,-48.3 260.09,-36.8 268.65,-27.37"/>
<polygon fill="midnightblue" stroke="midnightblue" points="271.43,-29.51 275.56,-19.75 266.25,-24.8 271.43,-29.51"/>
</g>
<!-- Node17&#45;&gt;Node4 -->
<g id="edge21" class="edge">
<title>Node17&#45;&gt;Node4</title>
<path fill="none" stroke="midnightblue" d="M218.59,-56.32C202.86,-47.74 178.56,-34.49 160.29,-24.52"/>
<polygon fill="midnightblue" stroke="midnightblue" points="161.82,-21.37 151.37,-19.65 158.47,-27.52 161.82,-21.37"/>
</g>
</g>
</svg>
