<?xml version="1.0" encoding="UTF-8" standalone="no"?>
<!DOCTYPE svg PUBLIC "-//W3C//DTD SVG 1.1//EN"
 "http://www.w3.org/Graphics/SVG/1.1/DTD/svg11.dtd">
<!-- Generated by graphviz version 2.43.0 (0)
 -->
<!-- Title: config_kvs/config.h Pages: 1 -->
<svg width="206pt" height="263pt"
 viewBox="0.00 0.00 206.00 263.00" xmlns="http://www.w3.org/2000/svg" xmlns:xlink="http://www.w3.org/1999/xlink">
<g id="graph0" class="graph" transform="scale(1 1) rotate(0) translate(4 259)">
<title>config_kvs/config.h</title>
<!-- Node1 -->
<g id="node1" class="node">
<title>Node1</title>
<g id="a_node1"><a xlink:title=" ">
<polygon fill="#bfbfbf" stroke="black" points="40,-235.5 40,-254.5 150,-254.5 150,-235.5 40,-235.5"/>
<text text-anchor="middle" x="95" y="-242.5" font-family="Helvetica,sans-Serif" font-size="10.00">config_kvs/config.h</text>
</a>
</g>
</g>
<!-- Node2 -->
<g id="node2" class="node">
<title>Node2</title>
<g id="a_node2"><a xlink:href="comp__settings_8hh.html" target="_top" xlink:title="Settings for shared components.">
<polygon fill="none" stroke="black" points="0,-56.5 0,-75.5 158,-75.5 158,-56.5 0,-56.5"/>
<text text-anchor="middle" x="79" y="-63.5" font-family="Helvetica,sans-Serif" font-size="10.00">config_kvs/comp_settings.hh</text>
</a>
</g>
</g>
<!-- Node1&#45;&gt;Node2 -->
<g id="edge1" class="edge">
<title>Node1&#45;&gt;Node2</title>
<path fill="none" stroke="midnightblue" d="M60.4,-230.92C46.49,-223.75 31.89,-213.34 24,-199 16.3,-185 5.58,-156.23 27,-112 34.7,-96.1 50.88,-83.54 63.16,-75.78"/>
<polygon fill="midnightblue" stroke="midnightblue" points="59.3,-234.27 69.84,-235.38 62.29,-227.94 59.3,-234.27"/>
</g>
<!-- Node3 -->
<g id="node3" class="node">
<title>Node3</title>
<g id="a_node3"><a xlink:href="config__kvs_8h_source.html" target="_top" xlink:title=" ">
<polygon fill="none" stroke="black" points="66,-0.5 66,-19.5 198,-19.5 198,-0.5 66,-0.5"/>
<text text-anchor="middle" x="132" y="-7.5" font-family="Helvetica,sans-Serif" font-size="10.00">config_kvs/config_kvs.h</text>
</a>
</g>
</g>
<!-- Node1&#45;&gt;Node3 -->
<g id="edge3" class="edge">
<title>Node1&#45;&gt;Node3</title>
<path fill="none" stroke="midnightblue" d="M129.66,-231.24C143.9,-224.08 158.91,-213.59 167,-199 197.81,-143.41 187.63,-116.12 167,-56 161.99,-41.4 150.09,-27.88 141.56,-19.55"/>
<polygon fill="midnightblue" stroke="midnightblue" points="128.11,-228.1 120.5,-235.47 131.05,-234.45 128.11,-228.1"/>
</g>
<!-- Node4 -->
<g id="node4" class="node">
<title>Node4</title>
<g id="a_node4"><a xlink:href="settings_8hh.html" target="_top" xlink:title=" ">
<polygon fill="none" stroke="black" points="32.5,-179.5 32.5,-198.5 157.5,-198.5 157.5,-179.5 32.5,-179.5"/>
<text text-anchor="middle" x="95" y="-186.5" font-family="Helvetica,sans-Serif" font-size="10.00">config_kvs/settings.hh</text>
</a>
</g>
</g>
<!-- Node1&#45;&gt;Node4 -->
<g id="edge4" class="edge">
<title>Node1&#45;&gt;Node4</title>
<path fill="none" stroke="midnightblue" d="M95,-224.8C95,-215.91 95,-205.78 95,-198.75"/>
<polygon fill="midnightblue" stroke="midnightblue" points="91.5,-225.08 95,-235.08 98.5,-225.08 91.5,-225.08"/>
</g>
<!-- Node2&#45;&gt;Node3 -->
<g id="edge2" class="edge">
<title>Node2&#45;&gt;Node3</title>
<path fill="none" stroke="midnightblue" d="M94.98,-48.72C104.32,-39.2 115.75,-27.56 123.41,-19.75"/>
<polygon fill="midnightblue" stroke="midnightblue" points="92.26,-46.49 87.75,-56.08 97.25,-51.4 92.26,-46.49"/>
</g>
<!-- Node5 -->
<g id="node5" class="node">
<title>Node5</title>
<g id="a_node5"><a xlink:href="settings__template_8hh_source.html" target="_top" xlink:title=" ">
<polygon fill="none" stroke="black" points="36,-112.5 36,-142.5 146,-142.5 146,-112.5 36,-112.5"/>
<text text-anchor="start" x="44" y="-130.5" font-family="Helvetica,sans-Serif" font-size="10.00">config_kvs/settings</text>
<text text-anchor="middle" x="91" y="-119.5" font-family="Helvetica,sans-Serif" font-size="10.00">_template.hh</text>
</a>
</g>
</g>
<!-- Node4&#45;&gt;Node5 -->
<g id="edge5" class="edge">
<title>Node4&#45;&gt;Node5</title>
<path fill="none" stroke="midnightblue" d="M93.74,-169.23C93.16,-160.59 92.48,-150.5 91.94,-142.52"/>
<polygon fill="midnightblue" stroke="midnightblue" points="90.26,-169.73 94.43,-179.48 97.25,-169.26 90.26,-169.73"/>
</g>
<!-- Node5&#45;&gt;Node2 -->
<g id="edge6" class="edge">
<title>Node5&#45;&gt;Node2</title>
<path fill="none" stroke="midnightblue" d="M86.18,-102.59C84.26,-93.08 82.17,-82.73 80.75,-75.66"/>
<polygon fill="midnightblue" stroke="midnightblue" points="82.75,-103.29 88.16,-112.4 89.61,-101.9 82.75,-103.29"/>
</g>
</g>
</svg>
