<?xml version="1.0" encoding="UTF-8" standalone="no"?>
<!DOCTYPE svg PUBLIC "-//W3C//DTD SVG 1.1//EN"
 "http://www.w3.org/Graphics/SVG/1.1/DTD/svg11.dtd">
<!-- Generated by graphviz version 2.43.0 (0)
 -->
<!-- Title: components Pages: 1 -->
<svg width="1231pt" height="148pt"
 viewBox="0.00 0.00 1231.00 148.00" xmlns="http://www.w3.org/2000/svg" xmlns:xlink="http://www.w3.org/1999/xlink">
<g id="graph0" class="graph" transform="scale(1 1) rotate(0) translate(4 144)">
<title>components</title>
<g id="clust1" class="cluster">
<title>clusterdir_409f97388efe006bc3438b95e9edef48</title>
<g id="a_clust1"><a xlink:href="dir_409f97388efe006bc3438b95e9edef48.html" target="_top">
<polygon fill="#eeeeff" stroke="black" points="8,-8 8,-132 1215,-132 1215,-8 8,-8"/>
</a>
</g>
</g>
<!-- dir_409f97388efe006bc3438b95e9edef48 -->
<g id="node1" class="node">
<title>dir_409f97388efe006bc3438b95e9edef48</title>
<text text-anchor="middle" x="1168" y="-103.5" font-family="Helvetica,sans-Serif" font-size="10.00">components</text>
</g>
<!-- dir_e1ebd30124e073b84874d421f2ab915b -->
<g id="node2" class="node">
<title>dir_e1ebd30124e073b84874d421f2ab915b</title>
<g id="a_node2"><a xlink:href="dir_e1ebd30124e073b84874d421f2ab915b.html" target="_top" xlink:title="cli">
<polygon fill="white" stroke="red" points="1111,-124 1057,-124 1057,-88 1111,-88 1111,-124"/>
<text text-anchor="middle" x="1084" y="-103.5" font-family="Helvetica,sans-Serif" font-size="10.00">cli</text>
</a>
</g>
</g>
<!-- dir_06896a7cf5d34c617405deaf572dd3cb -->
<g id="node14" class="node">
<title>dir_06896a7cf5d34c617405deaf572dd3cb</title>
<g id="a_node14"><a xlink:href="dir_06896a7cf5d34c617405deaf572dd3cb.html" target="_top" xlink:title="uout">
<polygon fill="white" stroke="red" points="854,-52 800,-52 800,-16 854,-16 854,-52"/>
<text text-anchor="middle" x="827" y="-31.5" font-family="Helvetica,sans-Serif" font-size="10.00">uout</text>
</a>
</g>
</g>
<!-- dir_e1ebd30124e073b84874d421f2ab915b&#45;&gt;dir_06896a7cf5d34c617405deaf572dd3cb -->
<g id="edge3" class="edge">
<title>dir_e1ebd30124e073b84874d421f2ab915b&#45;&gt;dir_06896a7cf5d34c617405deaf572dd3cb</title>
<path fill="none" stroke="black" d="M1056.73,-91.41C1053.82,-90.17 1050.87,-89.01 1048,-88 984.94,-65.82 908.56,-49.78 864.1,-41.47"/>
<polygon fill="black" stroke="black" points="864.52,-37.99 854.05,-39.63 863.25,-44.88 864.52,-37.99"/>
<g id="a_edge3&#45;headlabel"><a xlink:href="dir_000001_000004.html" target="_top" xlink:title="1">
<text text-anchor="middle" x="868.56" y="-33.35" font-family="Helvetica,sans-Serif" font-size="10.00">1</text>
</a>
</g>
</g>
<!-- dir_ca6ea481a53a06cfcb070aa98ff0acc0 -->
<g id="node3" class="node">
<title>dir_ca6ea481a53a06cfcb070aa98ff0acc0</title>
<g id="a_node3"><a xlink:href="dir_ca6ea481a53a06cfcb070aa98ff0acc0.html" target="_top" xlink:title="config_kvs">
<polygon fill="white" stroke="red" points="1039,-124 971,-124 971,-88 1039,-88 1039,-124"/>
<text text-anchor="middle" x="1005" y="-103.5" font-family="Helvetica,sans-Serif" font-size="10.00">config_kvs</text>
</a>
</g>
</g>
<!-- dir_ca6ea481a53a06cfcb070aa98ff0acc0&#45;&gt;dir_06896a7cf5d34c617405deaf572dd3cb -->
<g id="edge4" class="edge">
<title>dir_ca6ea481a53a06cfcb070aa98ff0acc0&#45;&gt;dir_06896a7cf5d34c617405deaf572dd3cb</title>
<path fill="none" stroke="black" d="M970.74,-91.45C967.78,-90.28 964.84,-89.12 962,-88 928.72,-74.89 890.81,-60.01 863.65,-49.36"/>
<polygon fill="black" stroke="black" points="864.75,-46.03 854.16,-45.64 862.19,-52.55 864.75,-46.03"/>
<g id="a_edge4&#45;headlabel"><a xlink:href="dir_000022_000004.html" target="_top" xlink:title="1">
<text text-anchor="middle" x="869.13" y="-42.2" font-family="Helvetica,sans-Serif" font-size="10.00">1</text>
</a>
</g>
</g>
<!-- dir_9e45770ffe2dffe91e50f612796b1901 -->
<g id="node4" class="node">
<title>dir_9e45770ffe2dffe91e50f612796b1901</title>
<g id="a_node4"><a xlink:href="dir_9e45770ffe2dffe91e50f612796b1901.html" target="_top" xlink:title="firmware_update">
<polygon fill="white" stroke="red" points="952.5,-124 853.5,-124 853.5,-88 952.5,-88 952.5,-124"/>
<text text-anchor="middle" x="903" y="-103.5" font-family="Helvetica,sans-Serif" font-size="10.00">firmware_update</text>
</a>
</g>
</g>
<!-- dir_2be84dbf4ba26f1e170a0da57949f14a -->
<g id="node5" class="node">
<title>dir_2be84dbf4ba26f1e170a0da57949f14a</title>
<g id="a_node5"><a xlink:href="dir_2be84dbf4ba26f1e170a0da57949f14a.html" target="_top" xlink:title="kvs">
<polygon fill="white" stroke="red" points="835,-124 781,-124 781,-88 835,-88 835,-124"/>
<text text-anchor="middle" x="808" y="-103.5" font-family="Helvetica,sans-Serif" font-size="10.00">kvs</text>
</a>
</g>
</g>
<!-- dir_7af3a3134de51525d0bacf519c5a5a4c -->
<g id="node6" class="node">
<title>dir_7af3a3134de51525d0bacf519c5a5a4c</title>
<g id="a_node6"><a xlink:href="dir_7af3a3134de51525d0bacf519c5a5a4c.html" target="_top" xlink:title="main_loop">
<polygon fill="white" stroke="red" points="763,-124 695,-124 695,-88 763,-88 763,-124"/>
<text text-anchor="middle" x="729" y="-103.5" font-family="Helvetica,sans-Serif" font-size="10.00">main_loop</text>
</a>
</g>
</g>
<!-- dir_0081d78e40409ca201a815e8bd2a7598 -->
<g id="node7" class="node">
<title>dir_0081d78e40409ca201a815e8bd2a7598</title>
<g id="a_node7"><a xlink:href="dir_0081d78e40409ca201a815e8bd2a7598.html" target="_top" xlink:title="net">
<polygon fill="white" stroke="red" points="677,-124 623,-124 623,-88 677,-88 677,-124"/>
<text text-anchor="middle" x="650" y="-103.5" font-family="Helvetica,sans-Serif" font-size="10.00">net</text>
</a>
</g>
</g>
<!-- dir_0081d78e40409ca201a815e8bd2a7598&#45;&gt;dir_06896a7cf5d34c617405deaf572dd3cb -->
<g id="edge2" class="edge">
<title>dir_0081d78e40409ca201a815e8bd2a7598&#45;&gt;dir_06896a7cf5d34c617405deaf572dd3cb</title>
<path fill="none" stroke="black" d="M677.02,-91.95C680.03,-90.58 683.07,-89.24 686,-88 721.01,-73.18 761.72,-58.11 790.37,-47.84"/>
<polygon fill="black" stroke="black" points="791.73,-51.07 799.97,-44.42 789.38,-44.48 791.73,-51.07"/>
<g id="a_edge2&#45;headlabel"><a xlink:href="dir_000007_000004.html" target="_top" xlink:title="1">
<text text-anchor="middle" x="789.3" y="-52.45" font-family="Helvetica,sans-Serif" font-size="10.00">1</text>
</a>
</g>
</g>
<!-- dir_3a5d78dc0c4cbef0edab5cec700f33a5 -->
<g id="node8" class="node">
<title>dir_3a5d78dc0c4cbef0edab5cec700f33a5</title>
<g id="a_node8"><a xlink:href="dir_3a5d78dc0c4cbef0edab5cec700f33a5.html" target="_top" xlink:title="net_connect">
<polygon fill="white" stroke="red" points="605,-124 529,-124 529,-88 605,-88 605,-124"/>
<text text-anchor="middle" x="567" y="-103.5" font-family="Helvetica,sans-Serif" font-size="10.00">net_connect</text>
</a>
</g>
</g>
<!-- dir_1f70913613d0e754f32c1a3c154c89f0 -->
<g id="node9" class="node">
<title>dir_1f70913613d0e754f32c1a3c154c89f0</title>
<g id="a_node9"><a xlink:href="dir_1f70913613d0e754f32c1a3c154c89f0.html" target="_top" xlink:title="net_http_server">
<polygon fill="white" stroke="red" points="510.5,-124 417.5,-124 417.5,-88 510.5,-88 510.5,-124"/>
<text text-anchor="middle" x="464" y="-103.5" font-family="Helvetica,sans-Serif" font-size="10.00">net_http_server</text>
</a>
</g>
</g>
<!-- dir_44963179d0bb4670016db57ad9aa21bf -->
<g id="node10" class="node">
<title>dir_44963179d0bb4670016db57ad9aa21bf</title>
<g id="a_node10"><a xlink:href="dir_44963179d0bb4670016db57ad9aa21bf.html" target="_top" xlink:title="net_mqtt_client">
<polygon fill="white" stroke="red" points="399.5,-124 306.5,-124 306.5,-88 399.5,-88 399.5,-124"/>
<text text-anchor="middle" x="353" y="-103.5" font-family="Helvetica,sans-Serif" font-size="10.00">net_mqtt_client</text>
</a>
</g>
</g>
<!-- dir_a1ef5c9da7fb9b32e87de4d3057af2ee -->
<g id="node11" class="node">
<title>dir_a1ef5c9da7fb9b32e87de4d3057af2ee</title>
<g id="a_node11"><a xlink:href="dir_a1ef5c9da7fb9b32e87de4d3057af2ee.html" target="_top" xlink:title="stm32">
<polygon fill="white" stroke="red" points="288,-124 234,-124 234,-88 288,-88 288,-124"/>
<text text-anchor="middle" x="261" y="-103.5" font-family="Helvetica,sans-Serif" font-size="10.00">stm32</text>
</a>
</g>
</g>
<!-- dir_fb9708495fdec0253f03e873de4e2ba2 -->
<g id="node12" class="node">
<title>dir_fb9708495fdec0253f03e873de4e2ba2</title>
<g id="a_node12"><a xlink:href="dir_fb9708495fdec0253f03e873de4e2ba2.html" target="_top" xlink:title="storage">
<polygon fill="white" stroke="red" points="216,-124 162,-124 162,-88 216,-88 216,-124"/>
<text text-anchor="middle" x="189" y="-103.5" font-family="Helvetica,sans-Serif" font-size="10.00">storage</text>
</a>
</g>
</g>
<!-- dir_3f63a6930c61e67f53a0ef1287b8a995 -->
<g id="node13" class="node">
<title>dir_3f63a6930c61e67f53a0ef1287b8a995</title>
<g id="a_node13"><a xlink:href="dir_3f63a6930c61e67f53a0ef1287b8a995.html" target="_top" xlink:title="txtio">
<polygon fill="white" stroke="red" points="144,-124 90,-124 90,-88 144,-88 144,-124"/>
<text text-anchor="middle" x="117" y="-103.5" font-family="Helvetica,sans-Serif" font-size="10.00">txtio</text>
</a>
</g>
</g>
<!-- dir_3f63a6930c61e67f53a0ef1287b8a995&#45;&gt;dir_06896a7cf5d34c617405deaf572dd3cb -->
<g id="edge1" class="edge">
<title>dir_3f63a6930c61e67f53a0ef1287b8a995&#45;&gt;dir_06896a7cf5d34c617405deaf572dd3cb</title>
<path fill="none" stroke="black" d="M144.13,-90.94C147.07,-89.8 150.06,-88.78 153,-88 274.8,-55.62 666.51,-40.27 789.61,-36.16"/>
<polygon fill="black" stroke="black" points="789.8,-39.66 799.68,-35.83 789.57,-32.66 789.8,-39.66"/>
<g id="a_edge1&#45;headlabel"><a xlink:href="dir_000019_000004.html" target="_top" xlink:title="1">
<text text-anchor="middle" x="786.3" y="-40.11" font-family="Helvetica,sans-Serif" font-size="10.00">1</text>
</a>
</g>
</g>
<!-- dir_50864e0532c8040f85c4ae84a99169a6 -->
<g id="node15" class="node">
<title>dir_50864e0532c8040f85c4ae84a99169a6</title>
<g id="a_node15"><a xlink:href="dir_50864e0532c8040f85c4ae84a99169a6.html" target="_top" xlink:title="weather">
<polygon fill="white" stroke="red" points="72,-124 16,-124 16,-88 72,-88 72,-124"/>
<text text-anchor="middle" x="44" y="-103.5" font-family="Helvetica,sans-Serif" font-size="10.00">weather</text>
</a>
</g>
</g>
</g>
</svg>
