<?xml version="1.0" encoding="UTF-8" standalone="no"?>
<!DOCTYPE svg PUBLIC "-//W3C//DTD SVG 1.1//EN"
 "http://www.w3.org/Graphics/SVG/1.1/DTD/svg11.dtd">
<!-- Generated by graphviz version 2.43.0 (0)
 -->
<!-- Title: Graphical Class Hierarchy Pages: 1 -->
<svg width="365pt" height="66pt"
 viewBox="0.00 0.00 365.00 66.00" xmlns="http://www.w3.org/2000/svg" xmlns:xlink="http://www.w3.org/1999/xlink">
<g id="graph0" class="graph" transform="scale(1 1) rotate(0) translate(4 62)">
<title>Graphical Class Hierarchy</title>
<!-- Node0 -->
<g id="node1" class="node">
<title>Node0</title>
<g id="a_node1"><a xlink:href="classStm32__Uart__if.html" target="_top" xlink:title=" ">
<polygon fill="none" stroke="black" points="0,-19.5 0,-38.5 86,-38.5 86,-19.5 0,-19.5"/>
<text text-anchor="middle" x="43" y="-26.5" font-family="Helvetica,sans-Serif" font-size="10.00">Stm32_Uart_if</text>
</a>
</g>
</g>
<!-- Node1 -->
<g id="node2" class="node">
<title>Node1</title>
<g id="a_node2"><a xlink:href="classStm32__Uart.html" target="_top" xlink:title=" ">
<polygon fill="none" stroke="black" points="129.5,-38.5 129.5,-57.5 203.5,-57.5 203.5,-38.5 129.5,-38.5"/>
<text text-anchor="middle" x="166.5" y="-45.5" font-family="Helvetica,sans-Serif" font-size="10.00">Stm32_Uart</text>
</a>
</g>
</g>
<!-- Node0&#45;&gt;Node1 -->
<g id="edge1" class="edge">
<title>Node0&#45;&gt;Node1</title>
<path fill="none" stroke="midnightblue" d="M96.28,-37.18C107.48,-38.93 119.06,-40.74 129.48,-42.37"/>
<polygon fill="midnightblue" stroke="midnightblue" points="96.57,-33.68 86.15,-35.59 95.49,-40.6 96.57,-33.68"/>
</g>
<!-- Node3 -->
<g id="node4" class="node">
<title>Node3</title>
<g id="a_node4"><a xlink:href="classStm32__Uart__Ts.html" target="_top" xlink:title=" ">
<polygon fill="none" stroke="black" points="122,-0.5 122,-19.5 211,-19.5 211,-0.5 122,-0.5"/>
<text text-anchor="middle" x="166.5" y="-7.5" font-family="Helvetica,sans-Serif" font-size="10.00">Stm32_Uart_Ts</text>
</a>
</g>
</g>
<!-- Node0&#45;&gt;Node3 -->
<g id="edge3" class="edge">
<title>Node0&#45;&gt;Node3</title>
<path fill="none" stroke="midnightblue" d="M96.06,-20.86C104.63,-19.52 113.43,-18.14 121.77,-16.84"/>
<polygon fill="midnightblue" stroke="midnightblue" points="95.49,-17.4 86.15,-22.41 96.57,-24.32 95.49,-17.4"/>
</g>
<!-- Node2 -->
<g id="node3" class="node">
<title>Node2</title>
<g id="a_node3"><a xlink:href="classStm32__Uart__ESP32.html" target="_top" xlink:title=" ">
<polygon fill="none" stroke="black" points="247,-38.5 247,-57.5 357,-57.5 357,-38.5 247,-38.5"/>
<text text-anchor="middle" x="302" y="-45.5" font-family="Helvetica,sans-Serif" font-size="10.00">Stm32_Uart_ESP32</text>
</a>
</g>
</g>
<!-- Node1&#45;&gt;Node2 -->
<g id="edge2" class="edge">
<title>Node1&#45;&gt;Node2</title>
<path fill="none" stroke="midnightblue" d="M213.93,-48C224.53,-48 235.89,-48 246.78,-48"/>
<polygon fill="midnightblue" stroke="midnightblue" points="213.63,-44.5 203.63,-48 213.63,-51.5 213.63,-44.5"/>
</g>
</g>
</svg>
