<?xml version="1.0" encoding="UTF-8" standalone="no"?>
<!DOCTYPE svg PUBLIC "-//W3C//DTD SVG 1.1//EN"
 "http://www.w3.org/Graphics/SVG/1.1/DTD/svg11.dtd">
<!-- Generated by graphviz version 2.43.0 (0)
 -->
<!-- Title: options.hh Pages: 1 -->
<svg width="164pt" height="252pt"
 viewBox="0.00 0.00 163.50 252.00" xmlns="http://www.w3.org/2000/svg" xmlns:xlink="http://www.w3.org/1999/xlink">
<g id="graph0" class="graph" transform="scale(1 1) rotate(0) translate(4 248)">
<title>options.hh</title>
<!-- Node1 -->
<g id="node1" class="node">
<title>Node1</title>
<g id="a_node1"><a xlink:title="defines strings used in user interface">
<polygon fill="#bfbfbf" stroke="black" points="5.5,-224.5 5.5,-243.5 73.5,-243.5 73.5,-224.5 5.5,-224.5"/>
<text text-anchor="middle" x="39.5" y="-231.5" font-family="Helvetica,sans-Serif" font-size="10.00">options.hh</text>
</a>
</g>
</g>
<!-- Node2 -->
<g id="node2" class="node">
<title>Node2</title>
<g id="a_node2"><a xlink:href="comp__settings_8hh.html" target="_top" xlink:title="Settings for shared components.">
<polygon fill="none" stroke="black" points="0,-56.5 0,-75.5 103,-75.5 103,-56.5 0,-56.5"/>
<text text-anchor="middle" x="51.5" y="-63.5" font-family="Helvetica,sans-Serif" font-size="10.00">comp_settings.hh</text>
</a>
</g>
</g>
<!-- Node1&#45;&gt;Node2 -->
<g id="edge1" class="edge">
<title>Node1&#45;&gt;Node2</title>
<path fill="none" stroke="midnightblue" d="M33.46,-214.46C26.55,-190.46 17.3,-147.49 26.5,-112 30.04,-98.33 38.73,-84.39 44.87,-75.73"/>
<polygon fill="midnightblue" stroke="midnightblue" points="30.21,-215.8 36.48,-224.34 36.9,-213.75 30.21,-215.8"/>
</g>
<!-- Node4 -->
<g id="node4" class="node">
<title>Node4</title>
<g id="a_node4"><a xlink:href="settings_8hh.html" target="_top" xlink:title=" ">
<polygon fill="none" stroke="black" points="48,-168.5 48,-187.5 119,-187.5 119,-168.5 48,-168.5"/>
<text text-anchor="middle" x="83.5" y="-175.5" font-family="Helvetica,sans-Serif" font-size="10.00">settings.hh</text>
</a>
</g>
</g>
<!-- Node1&#45;&gt;Node4 -->
<g id="edge3" class="edge">
<title>Node1&#45;&gt;Node4</title>
<path fill="none" stroke="midnightblue" d="M53.23,-216.14C60.9,-206.74 70.13,-195.4 76.37,-187.75"/>
<polygon fill="midnightblue" stroke="midnightblue" points="50.37,-214.12 46.77,-224.08 55.8,-218.54 50.37,-214.12"/>
</g>
<!-- Node3 -->
<g id="node3" class="node">
<title>Node3</title>
<g id="a_node3"><a xlink:href="config__kvs_8h_source.html" target="_top" xlink:title=" ">
<polygon fill="none" stroke="black" points="13,-0.5 13,-19.5 90,-19.5 90,-0.5 13,-0.5"/>
<text text-anchor="middle" x="51.5" y="-7.5" font-family="Helvetica,sans-Serif" font-size="10.00">config_kvs.h</text>
</a>
</g>
</g>
<!-- Node2&#45;&gt;Node3 -->
<g id="edge2" class="edge">
<title>Node2&#45;&gt;Node3</title>
<path fill="none" stroke="midnightblue" d="M51.5,-45.8C51.5,-36.91 51.5,-26.78 51.5,-19.75"/>
<polygon fill="midnightblue" stroke="midnightblue" points="48,-46.08 51.5,-56.08 55,-46.08 48,-46.08"/>
</g>
<!-- Node5 -->
<g id="node5" class="node">
<title>Node5</title>
<g id="a_node5"><a xlink:href="settings__template_8hh_source.html" target="_top" xlink:title=" ">
<polygon fill="none" stroke="black" points="35.5,-112.5 35.5,-131.5 155.5,-131.5 155.5,-112.5 35.5,-112.5"/>
<text text-anchor="middle" x="95.5" y="-119.5" font-family="Helvetica,sans-Serif" font-size="10.00">settings_template.hh</text>
</a>
</g>
</g>
<!-- Node4&#45;&gt;Node5 -->
<g id="edge4" class="edge">
<title>Node4&#45;&gt;Node5</title>
<path fill="none" stroke="midnightblue" d="M87.7,-158.1C89.69,-149.14 91.98,-138.86 93.56,-131.75"/>
<polygon fill="midnightblue" stroke="midnightblue" points="84.23,-157.56 85.48,-168.08 91.07,-159.08 84.23,-157.56"/>
</g>
<!-- Node5&#45;&gt;Node2 -->
<g id="edge5" class="edge">
<title>Node5&#45;&gt;Node2</title>
<path fill="none" stroke="midnightblue" d="M81.77,-104.14C74.1,-94.74 64.87,-83.4 58.63,-75.75"/>
<polygon fill="midnightblue" stroke="midnightblue" points="79.2,-106.54 88.23,-112.08 84.63,-102.12 79.2,-106.54"/>
</g>
</g>
</svg>
