<?xml version="1.0" encoding="UTF-8" standalone="no"?>
<!DOCTYPE svg PUBLIC "-//W3C//DTD SVG 1.1//EN"
 "http://www.w3.org/Graphics/SVG/1.1/DTD/svg11.dtd">
<!-- Generated by graphviz version 2.43.0 (0)
 -->
<!-- Title: uout/so_target_bits.h Pages: 1 -->
<svg width="443pt" height="386pt"
 viewBox="0.00 0.00 443.00 386.00" xmlns="http://www.w3.org/2000/svg" xmlns:xlink="http://www.w3.org/1999/xlink">
<g id="graph0" class="graph" transform="scale(1 1) rotate(0) translate(4 382)">
<title>uout/so_target_bits.h</title>
<!-- Node1 -->
<g id="node1" class="node">
<title>Node1</title>
<g id="a_node1"><a xlink:title="flags to select output formats and targets">
<polygon fill="#bfbfbf" stroke="black" points="219.5,-358.5 219.5,-377.5 338.5,-377.5 338.5,-358.5 219.5,-358.5"/>
<text text-anchor="middle" x="279" y="-365.5" font-family="Helvetica,sans-Serif" font-size="10.00">uout/so_target_bits.h</text>
</a>
</g>
</g>
<!-- Node2 -->
<g id="node2" class="node">
<title>Node2</title>
<g id="a_node2"><a xlink:href="so__out_8h.html" target="_top" xlink:title="write formatted output to UoutWriter">
<polygon fill="none" stroke="black" points="237.5,-302.5 237.5,-321.5 320.5,-321.5 320.5,-302.5 237.5,-302.5"/>
<text text-anchor="middle" x="279" y="-309.5" font-family="Helvetica,sans-Serif" font-size="10.00">uout/so_out.h</text>
</a>
</g>
</g>
<!-- Node1&#45;&gt;Node2 -->
<g id="edge1" class="edge">
<title>Node1&#45;&gt;Node2</title>
<path fill="none" stroke="midnightblue" d="M279,-347.8C279,-338.91 279,-328.78 279,-321.75"/>
<polygon fill="midnightblue" stroke="midnightblue" points="275.5,-348.08 279,-358.08 282.5,-348.08 275.5,-348.08"/>
</g>
<!-- Node3 -->
<g id="node3" class="node">
<title>Node3</title>
<g id="a_node3"><a xlink:href="uo__types_8h.html" target="_top" xlink:title="API parameter and return types.">
<polygon fill="none" stroke="black" points="180.5,-190.5 180.5,-209.5 275.5,-209.5 275.5,-190.5 180.5,-190.5"/>
<text text-anchor="middle" x="228" y="-197.5" font-family="Helvetica,sans-Serif" font-size="10.00">uout/uo_types.h</text>
</a>
</g>
</g>
<!-- Node1&#45;&gt;Node3 -->
<g id="edge13" class="edge">
<title>Node1&#45;&gt;Node3</title>
<path fill="none" stroke="midnightblue" d="M254.88,-352.47C244.56,-344.83 233.62,-334.44 228,-322 210.55,-283.32 220.64,-230.35 225.67,-209.72"/>
<polygon fill="midnightblue" stroke="midnightblue" points="253.04,-355.46 263.27,-358.24 257.01,-349.69 253.04,-355.46"/>
</g>
<!-- Node8 -->
<g id="node8" class="node">
<title>Node8</title>
<g id="a_node8"><a xlink:href="uout__writer_8hh.html" target="_top" xlink:title="Provide an output class hierarchy which knows about the required format (text or JSON) and write func...">
<polygon fill="none" stroke="black" points="288.5,-246.5 288.5,-265.5 399.5,-265.5 399.5,-246.5 288.5,-246.5"/>
<text text-anchor="middle" x="344" y="-253.5" font-family="Helvetica,sans-Serif" font-size="10.00">uout/uout_writer.hh</text>
</a>
</g>
</g>
<!-- Node1&#45;&gt;Node8 -->
<g id="edge14" class="edge">
<title>Node1&#45;&gt;Node8</title>
<path fill="none" stroke="midnightblue" d="M300.64,-352.37C310.69,-344.5 321.96,-333.95 329,-322 339.7,-303.84 342.77,-278.65 343.65,-265.6"/>
<polygon fill="midnightblue" stroke="midnightblue" points="298.54,-349.56 292.59,-358.33 302.71,-355.19 298.54,-349.56"/>
</g>
<!-- Node2&#45;&gt;Node3 -->
<g id="edge2" class="edge">
<title>Node2&#45;&gt;Node3</title>
<path fill="none" stroke="midnightblue" d="M270.65,-293C259.53,-269 240.27,-227.47 231.98,-209.59"/>
<polygon fill="midnightblue" stroke="midnightblue" points="267.62,-294.77 275,-302.37 273.97,-291.82 267.62,-294.77"/>
</g>
<!-- Node2&#45;&gt;Node8 -->
<g id="edge7" class="edge">
<title>Node2&#45;&gt;Node8</title>
<path fill="none" stroke="midnightblue" d="M297.27,-295.82C308.92,-286.15 323.6,-273.95 333.37,-265.83"/>
<polygon fill="midnightblue" stroke="midnightblue" points="294.9,-293.24 289.44,-302.32 299.37,-298.63 294.9,-293.24"/>
</g>
<!-- Node4 -->
<g id="node4" class="node">
<title>Node4</title>
<g id="a_node4"><a xlink:href="cli_8h.html" target="_top" xlink:title="cli framework">
<polygon fill="none" stroke="black" points="217.5,-129 217.5,-148 268.5,-148 268.5,-129 217.5,-129"/>
<text text-anchor="middle" x="243" y="-136" font-family="Helvetica,sans-Serif" font-size="10.00">cli/cli.h</text>
</a>
</g>
</g>
<!-- Node3&#45;&gt;Node4 -->
<g id="edge3" class="edge">
<title>Node3&#45;&gt;Node4</title>
<path fill="none" stroke="midnightblue" d="M232.62,-180.66C235.37,-169.77 238.72,-156.49 240.85,-148.01"/>
<polygon fill="midnightblue" stroke="midnightblue" points="229.2,-179.92 230.15,-190.48 235.99,-181.63 229.2,-179.92"/>
</g>
<!-- Node5 -->
<g id="node5" class="node">
<title>Node5</title>
<g id="a_node5"><a xlink:href="uo__callbacks_8h.html" target="_top" xlink:title="pub/sub interface to publish asynchronously to MQTT servers, HTTP&#45;client web&#45;sockets,...">
<polygon fill="none" stroke="black" points="86.5,-129 86.5,-148 199.5,-148 199.5,-129 86.5,-129"/>
<text text-anchor="middle" x="143" y="-136" font-family="Helvetica,sans-Serif" font-size="10.00">uout/uo_callbacks.h</text>
</a>
</g>
</g>
<!-- Node3&#45;&gt;Node5 -->
<g id="edge4" class="edge">
<title>Node3&#45;&gt;Node5</title>
<path fill="none" stroke="midnightblue" d="M207.45,-184.61C191.1,-173.17 168.78,-157.55 155.16,-148.01"/>
<polygon fill="midnightblue" stroke="midnightblue" points="205.62,-187.61 215.82,-190.48 209.64,-181.87 205.62,-187.61"/>
</g>
<!-- Node6 -->
<g id="node6" class="node">
<title>Node6</title>
<g id="a_node6"><a xlink:href="tcp__cli__server__setup_8hh.html" target="_top" xlink:title="Create TCP server for interactive and non&#45;interactive CLI clients.">
<polygon fill="none" stroke="black" points="130.5,-56.5 130.5,-86.5 233.5,-86.5 233.5,-56.5 130.5,-56.5"/>
<text text-anchor="start" x="138.5" y="-74.5" font-family="Helvetica,sans-Serif" font-size="10.00">net/tcp_cli_server</text>
<text text-anchor="middle" x="182" y="-63.5" font-family="Helvetica,sans-Serif" font-size="10.00">_setup.hh</text>
</a>
</g>
</g>
<!-- Node5&#45;&gt;Node6 -->
<g id="edge5" class="edge">
<title>Node5&#45;&gt;Node6</title>
<path fill="none" stroke="midnightblue" d="M153.48,-120.03C159.77,-109.56 167.66,-96.4 173.55,-86.59"/>
<polygon fill="midnightblue" stroke="midnightblue" points="150.4,-118.36 148.26,-128.73 156.41,-121.96 150.4,-118.36"/>
</g>
<!-- Node7 -->
<g id="node7" class="node">
<title>Node7</title>
<g id="a_node7"><a xlink:href="txtio__setup_8hh_source.html" target="_top" xlink:title=" ">
<polygon fill="none" stroke="black" points="0,-62 0,-81 112,-81 112,-62 0,-62"/>
<text text-anchor="middle" x="56" y="-69" font-family="Helvetica,sans-Serif" font-size="10.00">txtio/txtio_setup.hh</text>
</a>
</g>
</g>
<!-- Node5&#45;&gt;Node7 -->
<g id="edge6" class="edge">
<title>Node5&#45;&gt;Node7</title>
<path fill="none" stroke="midnightblue" d="M123.01,-122.57C105.84,-109.74 81.68,-91.69 67.55,-81.13"/>
<polygon fill="midnightblue" stroke="midnightblue" points="121.16,-125.55 131.27,-128.73 125.35,-119.94 121.16,-125.55"/>
</g>
<!-- Node8&#45;&gt;Node3 -->
<g id="edge12" class="edge">
<title>Node8&#45;&gt;Node3</title>
<path fill="none" stroke="midnightblue" d="M316.28,-242.1C294.61,-232.01 265.1,-218.27 246.29,-209.52"/>
<polygon fill="midnightblue" stroke="midnightblue" points="315.08,-245.4 325.62,-246.44 318.03,-239.05 315.08,-245.4"/>
</g>
<!-- Node9 -->
<g id="node9" class="node">
<title>Node9</title>
<g id="a_node9"><a xlink:href="settings_8hh.html" target="_top" xlink:title=" ">
<polygon fill="none" stroke="black" points="293.5,-190.5 293.5,-209.5 418.5,-209.5 418.5,-190.5 293.5,-190.5"/>
<text text-anchor="middle" x="356" y="-197.5" font-family="Helvetica,sans-Serif" font-size="10.00">config_kvs/settings.hh</text>
</a>
</g>
</g>
<!-- Node8&#45;&gt;Node9 -->
<g id="edge8" class="edge">
<title>Node8&#45;&gt;Node9</title>
<path fill="none" stroke="midnightblue" d="M348.2,-236.1C350.19,-227.14 352.48,-216.86 354.06,-209.75"/>
<polygon fill="midnightblue" stroke="midnightblue" points="344.73,-235.56 345.98,-246.08 351.57,-237.08 344.73,-235.56"/>
</g>
<!-- Node10 -->
<g id="node10" class="node">
<title>Node10</title>
<g id="a_node10"><a xlink:href="settings__template_8hh_source.html" target="_top" xlink:title=" ">
<polygon fill="none" stroke="black" points="301,-123.5 301,-153.5 411,-153.5 411,-123.5 301,-123.5"/>
<text text-anchor="start" x="309" y="-141.5" font-family="Helvetica,sans-Serif" font-size="10.00">config_kvs/settings</text>
<text text-anchor="middle" x="356" y="-130.5" font-family="Helvetica,sans-Serif" font-size="10.00">_template.hh</text>
</a>
</g>
</g>
<!-- Node9&#45;&gt;Node10 -->
<g id="edge9" class="edge">
<title>Node9&#45;&gt;Node10</title>
<path fill="none" stroke="midnightblue" d="M356,-180.23C356,-171.59 356,-161.5 356,-153.52"/>
<polygon fill="midnightblue" stroke="midnightblue" points="352.5,-180.48 356,-190.48 359.5,-180.48 352.5,-180.48"/>
</g>
<!-- Node11 -->
<g id="node11" class="node">
<title>Node11</title>
<g id="a_node11"><a xlink:href="comp__settings_8hh.html" target="_top" xlink:title="Settings for shared components.">
<polygon fill="none" stroke="black" points="277,-62 277,-81 435,-81 435,-62 277,-62"/>
<text text-anchor="middle" x="356" y="-69" font-family="Helvetica,sans-Serif" font-size="10.00">config_kvs/comp_settings.hh</text>
</a>
</g>
</g>
<!-- Node10&#45;&gt;Node11 -->
<g id="edge10" class="edge">
<title>Node10&#45;&gt;Node11</title>
<path fill="none" stroke="midnightblue" d="M356,-113.25C356,-102.02 356,-89.38 356,-81.19"/>
<polygon fill="midnightblue" stroke="midnightblue" points="352.5,-113.4 356,-123.4 359.5,-113.4 352.5,-113.4"/>
</g>
<!-- Node12 -->
<g id="node12" class="node">
<title>Node12</title>
<g id="a_node12"><a xlink:href="config__kvs_8h_source.html" target="_top" xlink:title=" ">
<polygon fill="none" stroke="black" points="290,-0.5 290,-19.5 422,-19.5 422,-0.5 290,-0.5"/>
<text text-anchor="middle" x="356" y="-7.5" font-family="Helvetica,sans-Serif" font-size="10.00">config_kvs/config_kvs.h</text>
</a>
</g>
</g>
<!-- Node11&#45;&gt;Node12 -->
<g id="edge11" class="edge">
<title>Node11&#45;&gt;Node12</title>
<path fill="none" stroke="midnightblue" d="M356,-51.82C356,-41 356,-27.9 356,-19.51"/>
<polygon fill="midnightblue" stroke="midnightblue" points="352.5,-51.98 356,-61.98 359.5,-51.98 352.5,-51.98"/>
</g>
</g>
</svg>
