<?xml version="1.0" encoding="UTF-8" standalone="no"?>
<!DOCTYPE svg PUBLIC "-//W3C//DTD SVG 1.1//EN"
 "http://www.w3.org/Graphics/SVG/1.1/DTD/svg11.dtd">
<!-- Generated by graphviz version 2.43.0 (0)
 -->
<!-- Title: stm32/mutex.hh Pages: 1 -->
<svg width="451pt" height="140pt"
 viewBox="0.00 0.00 450.50 140.00" xmlns="http://www.w3.org/2000/svg" xmlns:xlink="http://www.w3.org/1999/xlink">
<g id="graph0" class="graph" transform="scale(1 1) rotate(0) translate(4 136)">
<title>stm32/mutex.hh</title>
<!-- Node1 -->
<g id="node1" class="node">
<title>Node1</title>
<g id="a_node1"><a xlink:title="thread mutex to protect USART read and write access">
<polygon fill="#bfbfbf" stroke="black" points="226,-112.5 226,-131.5 323,-131.5 323,-112.5 226,-112.5"/>
<text text-anchor="middle" x="274.5" y="-119.5" font-family="Helvetica,sans-Serif" font-size="10.00">stm32/mutex.hh</text>
</a>
</g>
</g>
<!-- Node2 -->
<g id="node2" class="node">
<title>Node2</title>
<g id="a_node2"><a xlink:href="esp32_2stm32__uart_8hh_source.html" target="_top" xlink:title=" ">
<polygon fill="none" stroke="black" points="0,-56.5 0,-75.5 153,-75.5 153,-56.5 0,-56.5"/>
<text text-anchor="middle" x="76.5" y="-63.5" font-family="Helvetica,sans-Serif" font-size="10.00">stm32/esp32/stm32_uart.hh</text>
</a>
</g>
</g>
<!-- Node1&#45;&gt;Node2 -->
<g id="edge1" class="edge">
<title>Node1&#45;&gt;Node2</title>
<path fill="none" stroke="midnightblue" d="M233.06,-109.7C195.69,-99.51 141.56,-84.74 107.73,-75.52"/>
<polygon fill="midnightblue" stroke="midnightblue" points="232.56,-113.19 243.13,-112.44 234.4,-106.44 232.56,-113.19"/>
</g>
<!-- Node3 -->
<g id="node3" class="node">
<title>Node3</title>
<g id="a_node3"><a xlink:href="lock__guard_8hh_source.html" target="_top" xlink:title=" ">
<polygon fill="none" stroke="black" points="171,-56.5 171,-75.5 290,-75.5 290,-56.5 171,-56.5"/>
<text text-anchor="middle" x="230.5" y="-63.5" font-family="Helvetica,sans-Serif" font-size="10.00">stm32/lock_guard.hh</text>
</a>
</g>
</g>
<!-- Node1&#45;&gt;Node3 -->
<g id="edge2" class="edge">
<title>Node1&#45;&gt;Node3</title>
<path fill="none" stroke="midnightblue" d="M260.77,-104.14C253.1,-94.74 243.87,-83.4 237.63,-75.75"/>
<polygon fill="midnightblue" stroke="midnightblue" points="258.2,-106.54 267.23,-112.08 263.63,-102.12 258.2,-106.54"/>
</g>
<!-- Node4 -->
<g id="node4" class="node">
<title>Node4</title>
<g id="a_node4"><a xlink:href="stm32__uart__ts_8hh_source.html" target="_top" xlink:title=" ">
<polygon fill="none" stroke="black" points="207,-0.5 207,-19.5 342,-19.5 342,-0.5 207,-0.5"/>
<text text-anchor="middle" x="274.5" y="-7.5" font-family="Helvetica,sans-Serif" font-size="10.00">stm32/stm32_uart_ts.hh</text>
</a>
</g>
</g>
<!-- Node1&#45;&gt;Node4 -->
<g id="edge5" class="edge">
<title>Node1&#45;&gt;Node4</title>
<path fill="none" stroke="midnightblue" d="M286.74,-103.83C291.75,-95.79 296.95,-85.82 299.5,-76 304.9,-55.17 290.7,-31.88 281.55,-19.62"/>
<polygon fill="midnightblue" stroke="midnightblue" points="283.75,-102.01 281.13,-112.27 289.58,-105.89 283.75,-102.01"/>
</g>
<!-- Node5 -->
<g id="node5" class="node">
<title>Node5</title>
<g id="a_node5"><a xlink:href="stm32_8hh.html" target="_top" xlink:title="access STM32 from ESP32 for communication and firware updat">
<polygon fill="none" stroke="black" points="346.5,-56.5 346.5,-75.5 442.5,-75.5 442.5,-56.5 346.5,-56.5"/>
<text text-anchor="middle" x="394.5" y="-63.5" font-family="Helvetica,sans-Serif" font-size="10.00">stm32/stm32.hh</text>
</a>
</g>
</g>
<!-- Node1&#45;&gt;Node5 -->
<g id="edge4" class="edge">
<title>Node1&#45;&gt;Node5</title>
<path fill="none" stroke="midnightblue" d="M302.87,-108.23C325.32,-98.13 356.04,-84.31 375.57,-75.52"/>
<polygon fill="midnightblue" stroke="midnightblue" points="301.2,-105.15 293.51,-112.44 304.07,-111.53 301.2,-105.15"/>
</g>
<!-- Node3&#45;&gt;Node4 -->
<g id="edge3" class="edge">
<title>Node3&#45;&gt;Node4</title>
<path fill="none" stroke="midnightblue" d="M244.23,-48.14C251.9,-38.74 261.13,-27.4 267.37,-19.75"/>
<polygon fill="midnightblue" stroke="midnightblue" points="241.37,-46.12 237.77,-56.08 246.8,-50.54 241.37,-46.12"/>
</g>
</g>
</svg>
