<?xml version="1.0" encoding="UTF-8" standalone="no"?>
<!DOCTYPE svg PUBLIC "-//W3C//DTD SVG 1.1//EN"
 "http://www.w3.org/Graphics/SVG/1.1/DTD/svg11.dtd">
<!-- Generated by graphviz version 2.43.0 (0)
 -->
<!-- Title: stm32/stm32.hh Pages: 1 -->
<svg width="446pt" height="140pt"
 viewBox="0.00 0.00 445.50 140.00" xmlns="http://www.w3.org/2000/svg" xmlns:xlink="http://www.w3.org/1999/xlink">
<g id="graph0" class="graph" transform="scale(1 1) rotate(0) translate(4 136)">
<title>stm32/stm32.hh</title>
<!-- Node1 -->
<g id="node1" class="node">
<title>Node1</title>
<g id="a_node1"><a xlink:title="object pointer and all headers">
<polygon fill="#bfbfbf" stroke="black" points="204.5,-112.5 204.5,-131.5 300.5,-131.5 300.5,-112.5 204.5,-112.5"/>
<text text-anchor="middle" x="252.5" y="-119.5" font-family="Helvetica,sans-Serif" font-size="10.00">stm32/stm32.hh</text>
</a>
</g>
</g>
<!-- Node2 -->
<g id="node2" class="node">
<title>Node2</title>
<g id="a_node2"><a xlink:href="stm32_8h.html" target="_top" xlink:title="access STM32 from ESP32 for communication and firware updat">
<polygon fill="none" stroke="black" points="83.5,-56.5 83.5,-75.5 173.5,-75.5 173.5,-56.5 83.5,-56.5"/>
<text text-anchor="middle" x="128.5" y="-63.5" font-family="Helvetica,sans-Serif" font-size="10.00">stm32/stm32.h</text>
</a>
</g>
</g>
<!-- Node1&#45;&gt;Node2 -->
<g id="edge1" class="edge">
<title>Node1&#45;&gt;Node2</title>
<path fill="none" stroke="midnightblue" d="M232.85,-112.44C212.54,-103.6 180.6,-89.69 157.4,-79.59"/>
<polygon fill="midnightblue" stroke="midnightblue" points="158.62,-76.3 148.06,-75.52 155.83,-82.72 158.62,-76.3"/>
</g>
<!-- Node6 -->
<g id="node6" class="node">
<title>Node6</title>
<g id="a_node6"><a xlink:href="stm32__uart_8hh.html" target="_top" xlink:title="interface for accessing STM32 for communication and firmware update">
<polygon fill="none" stroke="black" points="192,-56.5 192,-75.5 313,-75.5 313,-56.5 192,-56.5"/>
<text text-anchor="middle" x="252.5" y="-63.5" font-family="Helvetica,sans-Serif" font-size="10.00">stm32/stm32_uart.hh</text>
</a>
</g>
</g>
<!-- Node1&#45;&gt;Node6 -->
<g id="edge5" class="edge">
<title>Node1&#45;&gt;Node6</title>
<path fill="none" stroke="midnightblue" d="M252.5,-112.08C252.5,-105.01 252.5,-94.86 252.5,-85.99"/>
<polygon fill="midnightblue" stroke="midnightblue" points="256,-85.75 252.5,-75.75 249,-85.75 256,-85.75"/>
</g>
<!-- Node7 -->
<g id="node7" class="node">
<title>Node7</title>
<g id="a_node7"><a xlink:href="stm32_2include_2stm32_2mutex_8hh.html" target="_top" xlink:title="thread mutex to protect USART read and write access">
<polygon fill="none" stroke="black" points="331,-56.5 331,-75.5 428,-75.5 428,-56.5 331,-56.5"/>
<text text-anchor="middle" x="379.5" y="-63.5" font-family="Helvetica,sans-Serif" font-size="10.00">stm32/mutex.hh</text>
</a>
</g>
</g>
<!-- Node1&#45;&gt;Node7 -->
<g id="edge7" class="edge">
<title>Node1&#45;&gt;Node7</title>
<path fill="none" stroke="midnightblue" d="M272.62,-112.44C293.52,-103.56 326.43,-89.56 350.22,-79.45"/>
<polygon fill="midnightblue" stroke="midnightblue" points="351.64,-82.65 359.47,-75.52 348.9,-76.21 351.64,-82.65"/>
</g>
<!-- Node3 -->
<g id="node3" class="node">
<title>Node3</title>
<g id="a_node3"><a xlink:href="stm32_2include_2stm32_2mutex_8h.html" target="_top" xlink:title="thread mutex to protect USART read and write access">
<polygon fill="none" stroke="black" points="0,-0.5 0,-19.5 91,-19.5 91,-0.5 0,-0.5"/>
<text text-anchor="middle" x="45.5" y="-7.5" font-family="Helvetica,sans-Serif" font-size="10.00">stm32/mutex.h</text>
</a>
</g>
</g>
<!-- Node2&#45;&gt;Node3 -->
<g id="edge2" class="edge">
<title>Node2&#45;&gt;Node3</title>
<path fill="none" stroke="midnightblue" d="M115.16,-56.32C102.34,-47.98 82.72,-35.21 67.56,-25.35"/>
<polygon fill="midnightblue" stroke="midnightblue" points="69.09,-22.17 58.8,-19.65 65.28,-28.04 69.09,-22.17"/>
</g>
<!-- Node4 -->
<g id="node4" class="node">
<title>Node4</title>
<g id="a_node4"><a xlink:title=" ">
<polygon fill="none" stroke="#bfbfbf" points="109.5,-0.5 109.5,-19.5 171.5,-19.5 171.5,-0.5 109.5,-0.5"/>
<text text-anchor="middle" x="140.5" y="-7.5" font-family="Helvetica,sans-Serif" font-size="10.00">stdbool.h</text>
</a>
</g>
</g>
<!-- Node2&#45;&gt;Node4 -->
<g id="edge3" class="edge">
<title>Node2&#45;&gt;Node4</title>
<path fill="none" stroke="midnightblue" d="M130.48,-56.08C132.07,-48.93 134.36,-38.64 136.35,-29.69"/>
<polygon fill="midnightblue" stroke="midnightblue" points="139.8,-30.27 138.56,-19.75 132.97,-28.75 139.8,-30.27"/>
</g>
<!-- Node5 -->
<g id="node5" class="node">
<title>Node5</title>
<g id="a_node5"><a xlink:title=" ">
<polygon fill="none" stroke="#bfbfbf" points="214,-0.5 214,-19.5 267,-19.5 267,-0.5 214,-0.5"/>
<text text-anchor="middle" x="240.5" y="-7.5" font-family="Helvetica,sans-Serif" font-size="10.00">stdint.h</text>
</a>
</g>
</g>
<!-- Node2&#45;&gt;Node5 -->
<g id="edge4" class="edge">
<title>Node2&#45;&gt;Node5</title>
<path fill="none" stroke="midnightblue" d="M146.49,-56.32C164.54,-47.62 192.55,-34.12 213.3,-24.11"/>
<polygon fill="midnightblue" stroke="midnightblue" points="215.06,-27.15 222.55,-19.65 212.02,-20.84 215.06,-27.15"/>
</g>
<!-- Node6&#45;&gt;Node5 -->
<g id="edge6" class="edge">
<title>Node6&#45;&gt;Node5</title>
<path fill="none" stroke="midnightblue" d="M250.52,-56.08C248.93,-48.93 246.64,-38.64 244.65,-29.69"/>
<polygon fill="midnightblue" stroke="midnightblue" points="248.03,-28.75 242.44,-19.75 241.2,-30.27 248.03,-28.75"/>
</g>
<!-- Node8 -->
<g id="node8" class="node">
<title>Node8</title>
<g id="a_node8"><a xlink:title=" ">
<polygon fill="none" stroke="#bfbfbf" points="321.5,-0.5 321.5,-19.5 437.5,-19.5 437.5,-0.5 321.5,-0.5"/>
<text text-anchor="middle" x="379.5" y="-7.5" font-family="Helvetica,sans-Serif" font-size="10.00">utils_misc/mutex.hh</text>
</a>
</g>
</g>
<!-- Node7&#45;&gt;Node8 -->
<g id="edge8" class="edge">
<title>Node7&#45;&gt;Node8</title>
<path fill="none" stroke="midnightblue" d="M379.5,-56.08C379.5,-49.01 379.5,-38.86 379.5,-29.99"/>
<polygon fill="midnightblue" stroke="midnightblue" points="383,-29.75 379.5,-19.75 376,-29.75 383,-29.75"/>
</g>
</g>
</svg>
