<?xml version="1.0" encoding="UTF-8" standalone="no"?>
<!DOCTYPE svg PUBLIC "-//W3C//DTD SVG 1.1//EN"
 "http://www.w3.org/Graphics/SVG/1.1/DTD/svg11.dtd">
<!-- Generated by graphviz version 2.43.0 (0)
 -->
<!-- Title: stm32/stm32_uart.hh Pages: 1 -->
<svg width="600pt" height="84pt"
 viewBox="0.00 0.00 600.00 84.00" xmlns="http://www.w3.org/2000/svg" xmlns:xlink="http://www.w3.org/1999/xlink">
<g id="graph0" class="graph" transform="scale(1 1) rotate(0) translate(4 80)">
<title>stm32/stm32_uart.hh</title>
<!-- Node1 -->
<g id="node1" class="node">
<title>Node1</title>
<g id="a_node1"><a xlink:title="access STM32 from ESP32 for communication and firware updat">
<polygon fill="#bfbfbf" stroke="black" points="230,-56.5 230,-75.5 351,-75.5 351,-56.5 230,-56.5"/>
<text text-anchor="middle" x="290.5" y="-63.5" font-family="Helvetica,sans-Serif" font-size="10.00">stm32/stm32_uart.hh</text>
</a>
</g>
</g>
<!-- Node2 -->
<g id="node2" class="node">
<title>Node2</title>
<g id="a_node2"><a xlink:href="esp32_2stm32__uart_8hh_source.html" target="_top" xlink:title=" ">
<polygon fill="none" stroke="black" points="0,-0.5 0,-19.5 153,-19.5 153,-0.5 0,-0.5"/>
<text text-anchor="middle" x="76.5" y="-7.5" font-family="Helvetica,sans-Serif" font-size="10.00">stm32/esp32/stm32_uart.hh</text>
</a>
</g>
</g>
<!-- Node1&#45;&gt;Node2 -->
<g id="edge1" class="edge">
<title>Node1&#45;&gt;Node2</title>
<path fill="none" stroke="midnightblue" d="M246.74,-53.96C206.33,-43.76 147.13,-28.82 110.25,-19.52"/>
<polygon fill="midnightblue" stroke="midnightblue" points="246.04,-57.39 256.59,-56.44 247.75,-50.6 246.04,-57.39"/>
</g>
<!-- Node3 -->
<g id="node3" class="node">
<title>Node3</title>
<g id="a_node3"><a xlink:href="stm32_8hh.html" target="_top" xlink:title="access STM32 from ESP32 for communication and firware updat">
<polygon fill="none" stroke="black" points="171.5,-0.5 171.5,-19.5 267.5,-19.5 267.5,-0.5 171.5,-0.5"/>
<text text-anchor="middle" x="219.5" y="-7.5" font-family="Helvetica,sans-Serif" font-size="10.00">stm32/stm32.hh</text>
</a>
</g>
</g>
<!-- Node1&#45;&gt;Node3 -->
<g id="edge2" class="edge">
<title>Node1&#45;&gt;Node3</title>
<path fill="none" stroke="midnightblue" d="M270.91,-50.1C258.13,-40.38 241.89,-28.03 231.11,-19.83"/>
<polygon fill="midnightblue" stroke="midnightblue" points="269.01,-53.06 279.09,-56.32 273.25,-47.48 269.01,-53.06"/>
</g>
<!-- Node4 -->
<g id="node4" class="node">
<title>Node4</title>
<g id="a_node4"><a xlink:href="stm32__bootloader_8hh.html" target="_top" xlink:title="access STM32F103 bootloader">
<polygon fill="none" stroke="black" points="286,-0.5 286,-19.5 439,-19.5 439,-0.5 286,-0.5"/>
<text text-anchor="middle" x="362.5" y="-7.5" font-family="Helvetica,sans-Serif" font-size="10.00">stm32/stm32_bootloader.hh</text>
</a>
</g>
</g>
<!-- Node1&#45;&gt;Node4 -->
<g id="edge3" class="edge">
<title>Node1&#45;&gt;Node4</title>
<path fill="none" stroke="midnightblue" d="M310.37,-50.1C323.32,-40.38 339.8,-28.03 350.72,-19.83"/>
<polygon fill="midnightblue" stroke="midnightblue" points="307.97,-47.52 302.07,-56.32 312.17,-53.12 307.97,-47.52"/>
</g>
<!-- Node5 -->
<g id="node5" class="node">
<title>Node5</title>
<g id="a_node5"><a xlink:href="stm32__uart__ts_8hh_source.html" target="_top" xlink:title=" ">
<polygon fill="none" stroke="black" points="457,-0.5 457,-19.5 592,-19.5 592,-0.5 457,-0.5"/>
<text text-anchor="middle" x="524.5" y="-7.5" font-family="Helvetica,sans-Serif" font-size="10.00">stm32/stm32_uart_ts.hh</text>
</a>
</g>
</g>
<!-- Node1&#45;&gt;Node5 -->
<g id="edge4" class="edge">
<title>Node1&#45;&gt;Node5</title>
<path fill="none" stroke="midnightblue" d="M337.5,-54.15C381.72,-43.95 447.02,-28.88 487.6,-19.52"/>
<polygon fill="midnightblue" stroke="midnightblue" points="336.53,-50.78 327.58,-56.44 338.11,-57.61 336.53,-50.78"/>
</g>
</g>
</svg>
