<?xml version="1.0" encoding="UTF-8" standalone="no"?>
<!DOCTYPE svg PUBLIC "-//W3C//DTD SVG 1.1//EN"
 "http://www.w3.org/Graphics/SVG/1.1/DTD/svg11.dtd">
<!-- Generated by graphviz version 2.43.0 (0)
 -->
<!-- Title: stm32/stm32.hh Pages: 1 -->
<svg width="378pt" height="140pt"
 viewBox="0.00 0.00 378.00 140.00" xmlns="http://www.w3.org/2000/svg" xmlns:xlink="http://www.w3.org/1999/xlink">
<g id="graph0" class="graph" transform="scale(1 1) rotate(0) translate(4 136)">
<title>stm32/stm32.hh</title>
<!-- Node1 -->
<g id="node1" class="node">
<title>Node1</title>
<g id="a_node1"><a xlink:title="access STM32 from ESP32 for communication and firware updat">
<polygon fill="#bfbfbf" stroke="black" points="132,-112.5 132,-131.5 228,-131.5 228,-112.5 132,-112.5"/>
<text text-anchor="middle" x="180" y="-119.5" font-family="Helvetica,sans-Serif" font-size="10.00">stm32/stm32.hh</text>
</a>
</g>
</g>
<!-- Node2 -->
<g id="node2" class="node">
<title>Node2</title>
<g id="a_node2"><a xlink:href="stm32_8h.html" target="_top" xlink:title="access STM32 from ESP32 for communication and firware updat">
<polygon fill="none" stroke="black" points="62,-56.5 62,-75.5 118,-75.5 118,-56.5 62,-56.5"/>
<text text-anchor="middle" x="90" y="-63.5" font-family="Helvetica,sans-Serif" font-size="10.00">stm32.h</text>
</a>
</g>
</g>
<!-- Node1&#45;&gt;Node2 -->
<g id="edge1" class="edge">
<title>Node1&#45;&gt;Node2</title>
<path fill="none" stroke="midnightblue" d="M165.54,-112.32C151.5,-103.9 129.95,-90.97 113.46,-81.07"/>
<polygon fill="midnightblue" stroke="midnightblue" points="114.8,-77.8 104.42,-75.65 111.2,-83.8 114.8,-77.8"/>
</g>
<!-- Node4 -->
<g id="node4" class="node">
<title>Node4</title>
<g id="a_node4"><a xlink:title=" ">
<polygon fill="none" stroke="#bfbfbf" points="0,-0.5 0,-19.5 62,-19.5 62,-0.5 0,-0.5"/>
<text text-anchor="middle" x="31" y="-7.5" font-family="Helvetica,sans-Serif" font-size="10.00">stdbool.h</text>
</a>
</g>
</g>
<!-- Node1&#45;&gt;Node4 -->
<g id="edge9" class="edge">
<title>Node1&#45;&gt;Node4</title>
<path fill="none" stroke="midnightblue" d="M131.96,-114.42C105.52,-108.48 73.94,-97.24 53,-76 40.86,-63.68 35.41,-44.43 32.97,-30.07"/>
<polygon fill="midnightblue" stroke="midnightblue" points="36.4,-29.27 31.59,-19.83 29.46,-30.21 36.4,-29.27"/>
</g>
<!-- Node5 -->
<g id="node5" class="node">
<title>Node5</title>
<g id="a_node5"><a xlink:title=" ">
<polygon fill="none" stroke="#bfbfbf" points="155.5,-0.5 155.5,-19.5 208.5,-19.5 208.5,-0.5 155.5,-0.5"/>
<text text-anchor="middle" x="182" y="-7.5" font-family="Helvetica,sans-Serif" font-size="10.00">stdint.h</text>
</a>
</g>
</g>
<!-- Node1&#45;&gt;Node5 -->
<g id="edge10" class="edge">
<title>Node1&#45;&gt;Node5</title>
<path fill="none" stroke="midnightblue" d="M196.33,-112.39C208.96,-104.72 225.5,-92.21 233,-76 241.98,-56.6 223.22,-37.76 205.98,-25.4"/>
<polygon fill="midnightblue" stroke="midnightblue" points="207.51,-22.22 197.25,-19.56 203.62,-28.03 207.51,-22.22"/>
</g>
<!-- Node6 -->
<g id="node6" class="node">
<title>Node6</title>
<g id="a_node6"><a xlink:href="stm32__uart_8hh.html" target="_top" xlink:title="access STM32 from ESP32 for communication and firware updat">
<polygon fill="none" stroke="black" points="136.5,-56.5 136.5,-75.5 223.5,-75.5 223.5,-56.5 136.5,-56.5"/>
<text text-anchor="middle" x="180" y="-63.5" font-family="Helvetica,sans-Serif" font-size="10.00">stm32_uart.hh</text>
</a>
</g>
</g>
<!-- Node1&#45;&gt;Node6 -->
<g id="edge5" class="edge">
<title>Node1&#45;&gt;Node6</title>
<path fill="none" stroke="midnightblue" d="M180,-112.08C180,-105.01 180,-94.86 180,-85.99"/>
<polygon fill="midnightblue" stroke="midnightblue" points="183.5,-85.75 180,-75.75 176.5,-85.75 183.5,-85.75"/>
</g>
<!-- Node7 -->
<g id="node7" class="node">
<title>Node7</title>
<g id="a_node7"><a xlink:href="stm32_2include_2stm32_2mutex_8hh.html" target="_top" xlink:title="thread mutex to protect USART read and write access">
<polygon fill="none" stroke="black" points="280.5,-56.5 280.5,-75.5 343.5,-75.5 343.5,-56.5 280.5,-56.5"/>
<text text-anchor="middle" x="312" y="-63.5" font-family="Helvetica,sans-Serif" font-size="10.00">mutex.hh</text>
</a>
</g>
</g>
<!-- Node1&#45;&gt;Node7 -->
<g id="edge7" class="edge">
<title>Node1&#45;&gt;Node7</title>
<path fill="none" stroke="midnightblue" d="M200.92,-112.44C222.74,-103.52 257.15,-89.44 281.89,-79.32"/>
<polygon fill="midnightblue" stroke="midnightblue" points="283.25,-82.54 291.18,-75.52 280.6,-76.06 283.25,-82.54"/>
</g>
<!-- Node3 -->
<g id="node3" class="node">
<title>Node3</title>
<g id="a_node3"><a xlink:href="stm32_2include_2stm32_2mutex_8h.html" target="_top" xlink:title="thread mutex to protect USART read and write access">
<polygon fill="none" stroke="black" points="80.5,-0.5 80.5,-19.5 137.5,-19.5 137.5,-0.5 80.5,-0.5"/>
<text text-anchor="middle" x="109" y="-7.5" font-family="Helvetica,sans-Serif" font-size="10.00">mutex.h</text>
</a>
</g>
</g>
<!-- Node2&#45;&gt;Node3 -->
<g id="edge2" class="edge">
<title>Node2&#45;&gt;Node3</title>
<path fill="none" stroke="midnightblue" d="M93.14,-56.08C95.68,-48.85 99.36,-38.41 102.53,-29.4"/>
<polygon fill="midnightblue" stroke="midnightblue" points="105.9,-30.35 105.92,-19.75 99.3,-28.02 105.9,-30.35"/>
</g>
<!-- Node2&#45;&gt;Node4 -->
<g id="edge3" class="edge">
<title>Node2&#45;&gt;Node4</title>
<path fill="none" stroke="midnightblue" d="M80.52,-56.32C71.8,-48.34 58.66,-36.31 48.1,-26.65"/>
<polygon fill="midnightblue" stroke="midnightblue" points="50.39,-24 40.65,-19.83 45.67,-29.17 50.39,-24"/>
</g>
<!-- Node2&#45;&gt;Node5 -->
<g id="edge4" class="edge">
<title>Node2&#45;&gt;Node5</title>
<path fill="none" stroke="midnightblue" d="M104.78,-56.32C119.27,-47.82 141.57,-34.73 158.49,-24.8"/>
<polygon fill="midnightblue" stroke="midnightblue" points="160.4,-27.74 167.26,-19.65 156.86,-21.7 160.4,-27.74"/>
</g>
<!-- Node6&#45;&gt;Node5 -->
<g id="edge6" class="edge">
<title>Node6&#45;&gt;Node5</title>
<path fill="none" stroke="midnightblue" d="M180.33,-56.08C180.59,-49.01 180.97,-38.86 181.3,-29.99"/>
<polygon fill="midnightblue" stroke="midnightblue" points="184.8,-29.87 181.68,-19.75 177.81,-29.61 184.8,-29.87"/>
</g>
<!-- Node8 -->
<g id="node8" class="node">
<title>Node8</title>
<g id="a_node8"><a xlink:title=" ">
<polygon fill="none" stroke="#bfbfbf" points="254,-0.5 254,-19.5 370,-19.5 370,-0.5 254,-0.5"/>
<text text-anchor="middle" x="312" y="-7.5" font-family="Helvetica,sans-Serif" font-size="10.00">utils_misc/mutex.hh</text>
</a>
</g>
</g>
<!-- Node7&#45;&gt;Node8 -->
<g id="edge8" class="edge">
<title>Node7&#45;&gt;Node8</title>
<path fill="none" stroke="midnightblue" d="M312,-56.08C312,-49.01 312,-38.86 312,-29.99"/>
<polygon fill="midnightblue" stroke="midnightblue" points="315.5,-29.75 312,-19.75 308.5,-29.75 315.5,-29.75"/>
</g>
</g>
</svg>
