<?xml version="1.0" encoding="UTF-8" standalone="no"?>
<!DOCTYPE svg PUBLIC "-//W3C//DTD SVG 1.1//EN"
 "http://www.w3.org/Graphics/SVG/1.1/DTD/svg11.dtd">
<!-- Generated by graphviz version 2.43.0 (0)
 -->
<!-- Title: net/tcp_cli_server_setup.hh Pages: 1 -->
<!--zoomable 319 -->
<svg id="main" version="1.1" xmlns="http://www.w3.org/2000/svg" xmlns:xlink="http://www.w3.org/1999/xlink" xml:space="preserve" onload="init(evt)">
<style type="text/css"><![CDATA[
.edge:hover path { stroke: red; }
.edge:hover polygon { stroke: red; fill: red; }
]]></style>
<script type="text/javascript"><![CDATA[
var edges = document.getElementsByTagName('g');
if (edges && edges.length) {
  for (var i=0;i<edges.length;i++) {
    if (edges[i].id.substr(0,4)=='edge') {
      edges[i].setAttribute('class','edge');
    }
  }
}
]]></script>
        <defs>
                <circle id="rim" cx="0" cy="0" r="7"/>
                <circle id="rim2" cx="0" cy="0" r="3.5"/>
                <g id="zoomPlus">
                        <use xlink:href="#rim" fill="#404040">
                                <set attributeName="fill" to="#808080" begin="zoomplus.mouseover" end="zoomplus.mouseout"/>
                        </use>
                        <path d="M-4,0h8M0,-4v8" fill="none" stroke="white" stroke-width="1.5" pointer-events="none"/>
                </g>
                <g id="zoomMin">
                        <use xlink:href="#rim" fill="#404040">
                                <set attributeName="fill" to="#808080" begin="zoomminus.mouseover" end="zoomminus.mouseout"/>
                        </use>
                        <path d="M-4,0h8" fill="none" stroke="white" stroke-width="1.5" pointer-events="none"/>
                </g>
                <g id="dirArrow">
                        <path fill="none" stroke="white" stroke-width="1.5" d="M0,-3.0v7 M-2.5,-0.5L0,-3.0L2.5,-0.5"/>
                </g>
               <g id="resetDef">
                       <use xlink:href="#rim2" fill="#404040">
                               <set attributeName="fill" to="#808080" begin="reset.mouseover" end="reset.mouseout"/>
                       </use>
               </g>
        </defs>

<script type="text/javascript">
var viewWidth = 1106;
var viewHeight = 319;
var sectionId = 'dynsection-0';
</script>
<script xlink:href="svgpan.js"/>
<svg id="graph" class="graph">
<g id="viewport">
<title>net/tcp_cli_server_setup.hh</title>
<!-- Node1 -->
<g id="node1" class="node">
<title>Node1</title>
<g id="a_node1"><a xlink:title="Create TCP server for interactive and non&#45;interactive CLI clients.">
<polygon fill="#bfbfbf" stroke="black" points="10.5,-280.5 10.5,-310.5 113.5,-310.5 113.5,-280.5 10.5,-280.5"/>
<text text-anchor="start" x="18.5" y="-298.5" font-family="Helvetica,sans-Serif" font-size="10.00">net/tcp_cli_server</text>
<text text-anchor="middle" x="62" y="-287.5" font-family="Helvetica,sans-Serif" font-size="10.00">_setup.hh</text>
</a>
</g>
</g>
<!-- Node2 -->
<g id="node2" class="node">
<title>Node2</title>
<g id="a_node2"><a xlink:href="tcp__cli__server_8h.html" target="_top" xlink:title="TCP server for interactive and non&#45;interactive CLI clients.">
<polygon fill="none" stroke="black" points="0,-112.5 0,-131.5 92,-131.5 92,-112.5 0,-112.5"/>
<text text-anchor="middle" x="46" y="-119.5" font-family="Helvetica,sans-Serif" font-size="10.00">tcp_cli_server.h</text>
</a>
</g>
</g>
<!-- Node1&#45;&gt;Node2 -->
<g id="edge1" class="edge">
<title>Node1&#45;&gt;Node2</title>
<path fill="none" stroke="midnightblue" d="M56.94,-280.21C49.25,-256.9 35.82,-209.17 39,-168 39.68,-159.22 41.09,-149.56 42.47,-141.45"/>
<polygon fill="midnightblue" stroke="midnightblue" points="45.92,-142.04 44.26,-131.58 39.03,-140.8 45.92,-142.04"/>
</g>
<!-- Node4 -->
<g id="node4" class="node">
<title>Node4</title>
<g id="a_node4"><a xlink:href="uo__callbacks_8h.html" target="_top" xlink:title="pub/sub interface to publish asynchronously to MQTT servers, HTTP&#45;client web&#45;sockets,...">
<polygon fill="none" stroke="black" points="68.5,-224.5 68.5,-243.5 181.5,-243.5 181.5,-224.5 68.5,-224.5"/>
<text text-anchor="middle" x="125" y="-231.5" font-family="Helvetica,sans-Serif" font-size="10.00">uout/uo_callbacks.h</text>
</a>
</g>
</g>
<!-- Node1&#45;&gt;Node4 -->
<g id="edge3" class="edge">
<title>Node1&#45;&gt;Node4</title>
<path fill="none" stroke="midnightblue" d="M76.93,-280.4C86.37,-271.49 98.58,-259.95 108.33,-250.74"/>
<polygon fill="midnightblue" stroke="midnightblue" points="110.97,-253.07 115.83,-243.66 106.16,-247.98 110.97,-253.07"/>
</g>
<!-- Node3 -->
<g id="node3" class="node">
<title>Node3</title>
<g id="a_node3"><a xlink:title=" ">
<polygon fill="none" stroke="#bfbfbf" points="141,-0.5 141,-19.5 203,-19.5 203,-0.5 141,-0.5"/>
<text text-anchor="middle" x="172" y="-7.5" font-family="Helvetica,sans-Serif" font-size="10.00">stdbool.h</text>
</a>
</g>
</g>
<!-- Node2&#45;&gt;Node3 -->
<g id="edge2" class="edge">
<title>Node2&#45;&gt;Node3</title>
<path fill="none" stroke="midnightblue" d="M55.89,-112.37C77.14,-93.81 127.43,-49.91 154.32,-26.44"/>
<polygon fill="midnightblue" stroke="midnightblue" points="156.93,-28.8 162.16,-19.59 152.32,-23.53 156.93,-28.8"/>
</g>
<!-- Node5 -->
<g id="node5" class="node">
<title>Node5</title>
<g id="a_node5"><a xlink:title=" ">
<polygon fill="none" stroke="#bfbfbf" points="267.5,-0.5 267.5,-19.5 320.5,-19.5 320.5,-0.5 267.5,-0.5"/>
<text text-anchor="middle" x="294" y="-7.5" font-family="Helvetica,sans-Serif" font-size="10.00">stdint.h</text>
</a>
</g>
</g>
<!-- Node4&#45;&gt;Node5 -->
<g id="edge4" class="edge">
<title>Node4&#45;&gt;Node5</title>
<path fill="none" stroke="midnightblue" d="M125.87,-224.15C129.21,-191.96 142.13,-81.62 165,-56 188.42,-29.76 227.99,-18.82 257.15,-14.26"/>
<polygon fill="midnightblue" stroke="midnightblue" points="257.94,-17.68 267.37,-12.85 256.98,-10.75 257.94,-17.68"/>
</g>
<!-- Node6 -->
<g id="node6" class="node">
<title>Node6</title>
<g id="a_node6"><a xlink:href="uo__types_8h.html" target="_top" xlink:title="API parameter and return types.">
<polygon fill="none" stroke="black" points="771.5,-168.5 771.5,-187.5 866.5,-187.5 866.5,-168.5 771.5,-168.5"/>
<text text-anchor="middle" x="819" y="-175.5" font-family="Helvetica,sans-Serif" font-size="10.00">uout/uo_types.h</text>
</a>
</g>
</g>
<!-- Node4&#45;&gt;Node6 -->
<g id="edge5" class="edge">
<title>Node4&#45;&gt;Node6</title>
<path fill="none" stroke="midnightblue" d="M181.79,-228.58C311.81,-218.46 629.93,-193.71 761.05,-183.51"/>
<polygon fill="midnightblue" stroke="midnightblue" points="761.59,-186.98 771.29,-182.71 761.05,-180 761.59,-186.98"/>
</g>
<!-- Node19 -->
<g id="node19" class="node">
<title>Node19</title>
<g id="a_node19"><a xlink:title=" ">
<polygon fill="none" stroke="#bfbfbf" points="48.5,-168.5 48.5,-187.5 117.5,-187.5 117.5,-168.5 48.5,-168.5"/>
<text text-anchor="middle" x="83" y="-175.5" font-family="Helvetica,sans-Serif" font-size="10.00">type_traits</text>
</a>
</g>
</g>
<!-- Node4&#45;&gt;Node19 -->
<g id="edge29" class="edge">
<title>Node4&#45;&gt;Node19</title>
<path fill="none" stroke="midnightblue" d="M118.06,-224.08C112.07,-216.38 103.25,-205.03 95.95,-195.65"/>
<polygon fill="midnightblue" stroke="midnightblue" points="98.71,-193.5 89.81,-187.75 93.18,-197.79 98.71,-193.5"/>
</g>
<!-- Node6&#45;&gt;Node5 -->
<g id="edge26" class="edge">
<title>Node6&#45;&gt;Node5</title>
<path fill="none" stroke="midnightblue" d="M771.4,-175.45C684.12,-170.76 494.86,-151.89 358,-76 336.67,-64.17 317.84,-43.04 306.22,-28.09"/>
<polygon fill="midnightblue" stroke="midnightblue" points="308.75,-25.63 299.96,-19.72 303.14,-29.82 308.75,-25.63"/>
</g>
<!-- Node7 -->
<g id="node7" class="node">
<title>Node7</title>
<g id="a_node7"><a xlink:href="so__target__bits_8h.html" target="_top" xlink:title="flags to select output formats and targets">
<polygon fill="none" stroke="black" points="1002.5,-0.5 1002.5,-19.5 1097.5,-19.5 1097.5,-0.5 1002.5,-0.5"/>
<text text-anchor="middle" x="1050" y="-7.5" font-family="Helvetica,sans-Serif" font-size="10.00">so_target_bits.h</text>
</a>
</g>
</g>
<!-- Node6&#45;&gt;Node7 -->
<g id="edge6" class="edge">
<title>Node6&#45;&gt;Node7</title>
<path fill="none" stroke="midnightblue" d="M866.7,-174.9C929.78,-169.24 1038.71,-148.81 1088,-76 1099.13,-59.56 1083.68,-39.75 1069.27,-26.35"/>
<polygon fill="midnightblue" stroke="midnightblue" points="1071.39,-23.56 1061.55,-19.63 1066.79,-28.84 1071.39,-23.56"/>
</g>
<!-- Node8 -->
<g id="node8" class="node">
<title>Node8</title>
<g id="a_node8"><a xlink:href="uout__writer_8hh.html" target="_top" xlink:title="Provide an output class hierarchy which knows about the required format (text or JSON) and write func...">
<polygon fill="none" stroke="black" points="716,-112.5 716,-131.5 802,-131.5 802,-112.5 716,-112.5"/>
<text text-anchor="middle" x="759" y="-119.5" font-family="Helvetica,sans-Serif" font-size="10.00">uout_writer.hh</text>
</a>
</g>
</g>
<!-- Node6&#45;&gt;Node8 -->
<g id="edge7" class="edge">
<title>Node6&#45;&gt;Node8</title>
<path fill="none" stroke="midnightblue" d="M809.36,-168.32C800.49,-160.34 787.13,-148.31 776.39,-138.65"/>
<polygon fill="midnightblue" stroke="midnightblue" points="778.59,-135.92 768.82,-131.83 773.91,-141.13 778.59,-135.92"/>
</g>
<!-- Node9 -->
<g id="node9" class="node">
<title>Node9</title>
<g id="a_node9"><a xlink:href="so__out_8h.html" target="_top" xlink:title="write formatted output to UoutWriter">
<polygon fill="none" stroke="black" points="1021,-56.5 1021,-75.5 1079,-75.5 1079,-56.5 1021,-56.5"/>
<text text-anchor="middle" x="1050" y="-63.5" font-family="Helvetica,sans-Serif" font-size="10.00">so_out.h</text>
</a>
</g>
</g>
<!-- Node6&#45;&gt;Node9 -->
<g id="edge24" class="edge">
<title>Node6&#45;&gt;Node9</title>
<path fill="none" stroke="midnightblue" d="M837.13,-168.37C877.52,-149.13 975.14,-102.65 1022.84,-79.93"/>
<polygon fill="midnightblue" stroke="midnightblue" points="1024.43,-83.05 1031.96,-75.59 1021.42,-76.73 1024.43,-83.05"/>
</g>
<!-- Node10 -->
<g id="node10" class="node">
<title>Node10</title>
<g id="a_node10"><a xlink:href="uout__builder__json_8hh.html" target="_top" xlink:title="Create JSON output from key/val pairs.">
<polygon fill="none" stroke="black" points="410,-56.5 410,-75.5 528,-75.5 528,-56.5 410,-56.5"/>
<text text-anchor="middle" x="469" y="-63.5" font-family="Helvetica,sans-Serif" font-size="10.00">uout_builder_json.hh</text>
</a>
</g>
</g>
<!-- Node6&#45;&gt;Node10 -->
<g id="edge25" class="edge">
<title>Node6&#45;&gt;Node10</title>
<path fill="none" stroke="midnightblue" d="M791.83,-168.46C729.67,-148.93 577.06,-100.96 506.23,-78.7"/>
<polygon fill="midnightblue" stroke="midnightblue" points="506.99,-75.27 496.4,-75.61 504.89,-81.95 506.99,-75.27"/>
</g>
<!-- Node14 -->
<g id="node14" class="node">
<title>Node14</title>
<g id="a_node14"><a xlink:title=" ">
<polygon fill="none" stroke="#bfbfbf" points="875,-56.5 875,-75.5 931,-75.5 931,-56.5 875,-56.5"/>
<text text-anchor="middle" x="903" y="-63.5" font-family="Helvetica,sans-Serif" font-size="10.00">unistd.h</text>
</a>
</g>
</g>
<!-- Node6&#45;&gt;Node14 -->
<g id="edge27" class="edge">
<title>Node6&#45;&gt;Node14</title>
<path fill="none" stroke="midnightblue" d="M825.59,-168.37C839.52,-150.14 872.13,-107.43 890.27,-83.68"/>
<polygon fill="midnightblue" stroke="midnightblue" points="893.15,-85.66 896.44,-75.59 887.59,-81.41 893.15,-85.66"/>
</g>
<!-- Node15 -->
<g id="node15" class="node">
<title>Node15</title>
<g id="a_node15"><a xlink:title=" ">
<polygon fill="none" stroke="#bfbfbf" points="949.5,-56.5 949.5,-75.5 1002.5,-75.5 1002.5,-56.5 949.5,-56.5"/>
<text text-anchor="middle" x="976" y="-63.5" font-family="Helvetica,sans-Serif" font-size="10.00">string.h</text>
</a>
</g>
</g>
<!-- Node6&#45;&gt;Node15 -->
<g id="edge28" class="edge">
<title>Node6&#45;&gt;Node15</title>
<path fill="none" stroke="midnightblue" d="M831.32,-168.37C858.15,-149.57 922.09,-104.77 955.26,-81.53"/>
<polygon fill="midnightblue" stroke="midnightblue" points="957.56,-84.2 963.74,-75.59 953.54,-78.46 957.56,-84.2"/>
</g>
<!-- Node8&#45;&gt;Node5 -->
<g id="edge17" class="edge">
<title>Node8&#45;&gt;Node5</title>
<path fill="none" stroke="midnightblue" d="M715.8,-121.33C647.16,-120.59 509.84,-113.95 401,-76 367.57,-64.34 333.36,-41.2 312.9,-25.91"/>
<polygon fill="midnightblue" stroke="midnightblue" points="314.84,-22.99 304.76,-19.7 310.59,-28.55 314.84,-22.99"/>
</g>
<!-- Node8&#45;&gt;Node7 -->
<g id="edge10" class="edge">
<title>Node8&#45;&gt;Node7</title>
<path fill="none" stroke="midnightblue" d="M772.1,-112.34C796.17,-96.56 846.72,-63.99 866,-56 906.68,-39.14 955.15,-27.61 992.13,-20.44"/>
<polygon fill="midnightblue" stroke="midnightblue" points="993.06,-23.83 1002.24,-18.53 991.76,-16.95 993.06,-23.83"/>
</g>
<!-- Node8&#45;&gt;Node9 -->
<g id="edge8" class="edge">
<title>Node8&#45;&gt;Node9</title>
<path fill="none" stroke="midnightblue" d="M802.12,-114.09C850.52,-106.17 931.61,-92.39 1010.84,-76.15"/>
<polygon fill="midnightblue" stroke="midnightblue" points="1011.91,-79.5 1020.99,-74.05 1010.49,-72.64 1011.91,-79.5"/>
</g>
<!-- Node8&#45;&gt;Node10 -->
<g id="edge11" class="edge">
<title>Node8&#45;&gt;Node10</title>
<path fill="none" stroke="midnightblue" d="M715.9,-112.97C665.1,-103.51 580.56,-87.77 524.8,-77.39"/>
<polygon fill="midnightblue" stroke="midnightblue" points="525.21,-73.91 514.74,-75.52 523.93,-80.79 525.21,-73.91"/>
</g>
<!-- Node12 -->
<g id="node12" class="node">
<title>Node12</title>
<g id="a_node12"><a xlink:title=" ">
<polygon fill="none" stroke="#bfbfbf" points="608.5,-0.5 608.5,-19.5 673.5,-19.5 673.5,-0.5 608.5,-0.5"/>
<text text-anchor="middle" x="641" y="-7.5" font-family="Helvetica,sans-Serif" font-size="10.00">functional</text>
</a>
</g>
</g>
<!-- Node8&#45;&gt;Node12 -->
<g id="edge22" class="edge">
<title>Node8&#45;&gt;Node12</title>
<path fill="none" stroke="midnightblue" d="M754.6,-112.13C747.62,-98.74 732.96,-73.1 715,-56 701.51,-43.15 683.75,-32.2 669.01,-24.32"/>
<polygon fill="midnightblue" stroke="midnightblue" points="670.33,-21.06 659.84,-19.6 667.13,-27.29 670.33,-21.06"/>
</g>
<!-- Node13 -->
<g id="node13" class="node">
<title>Node13</title>
<g id="a_node13"><a xlink:href="uout__builder__plaintext_8hh_source.html" target="_top" xlink:title=" ">
<polygon fill="none" stroke="black" points="174.5,-56.5 174.5,-75.5 315.5,-75.5 315.5,-56.5 174.5,-56.5"/>
<text text-anchor="middle" x="245" y="-63.5" font-family="Helvetica,sans-Serif" font-size="10.00">uout_builder_plaintext.hh</text>
</a>
</g>
</g>
<!-- Node8&#45;&gt;Node13 -->
<g id="edge14" class="edge">
<title>Node8&#45;&gt;Node13</title>
<path fill="none" stroke="midnightblue" d="M715.62,-116.44C629.6,-107.41 436.24,-87.09 326,-75.51"/>
<polygon fill="midnightblue" stroke="midnightblue" points="326.24,-72.02 315.93,-74.45 325.51,-78.98 326.24,-72.02"/>
</g>
<!-- Node8&#45;&gt;Node14 -->
<g id="edge18" class="edge">
<title>Node8&#45;&gt;Node14</title>
<path fill="none" stroke="midnightblue" d="M781.82,-112.44C805.83,-103.44 843.83,-89.19 870.87,-79.05"/>
<polygon fill="midnightblue" stroke="midnightblue" points="872.16,-82.3 880.29,-75.52 869.7,-75.75 872.16,-82.3"/>
</g>
<!-- Node8&#45;&gt;Node15 -->
<g id="edge19" class="edge">
<title>Node8&#45;&gt;Node15</title>
<path fill="none" stroke="midnightblue" d="M793.37,-112.47C827.78,-103.92 882.54,-90.32 939.38,-76.15"/>
<polygon fill="midnightblue" stroke="midnightblue" points="940.41,-79.5 949.26,-73.69 938.71,-72.71 940.41,-79.5"/>
</g>
<!-- Node16 -->
<g id="node16" class="node">
<title>Node16</title>
<g id="a_node16"><a xlink:title=" ">
<polygon fill="none" stroke="#bfbfbf" points="763,-56.5 763,-75.5 819,-75.5 819,-56.5 763,-56.5"/>
<text text-anchor="middle" x="791" y="-63.5" font-family="Helvetica,sans-Serif" font-size="10.00">assert.h</text>
</a>
</g>
</g>
<!-- Node8&#45;&gt;Node16 -->
<g id="edge20" class="edge">
<title>Node8&#45;&gt;Node16</title>
<path fill="none" stroke="midnightblue" d="M764.28,-112.08C768.71,-104.61 775.16,-93.72 780.62,-84.52"/>
<polygon fill="midnightblue" stroke="midnightblue" points="783.73,-86.14 785.81,-75.75 777.71,-82.57 783.73,-86.14"/>
</g>
<!-- Node17 -->
<g id="node17" class="node">
<title>Node17</title>
<g id="a_node17"><a xlink:title=" ">
<polygon fill="none" stroke="#bfbfbf" points="546.5,-56.5 546.5,-75.5 643.5,-75.5 643.5,-56.5 546.5,-56.5"/>
<text text-anchor="middle" x="595" y="-63.5" font-family="Helvetica,sans-Serif" font-size="10.00">utils_misc/itoa.h</text>
</a>
</g>
</g>
<!-- Node8&#45;&gt;Node17 -->
<g id="edge21" class="edge">
<title>Node8&#45;&gt;Node17</title>
<path fill="none" stroke="midnightblue" d="M733.01,-112.44C705.3,-103.32 661.25,-88.81 630.38,-78.65"/>
<polygon fill="midnightblue" stroke="midnightblue" points="631.46,-75.32 620.86,-75.52 629.27,-81.97 631.46,-75.32"/>
</g>
<!-- Node18 -->
<g id="node18" class="node">
<title>Node18</title>
<g id="a_node18"><a xlink:title=" ">
<polygon fill="none" stroke="#bfbfbf" points="661.5,-56.5 661.5,-75.5 706.5,-75.5 706.5,-56.5 661.5,-56.5"/>
<text text-anchor="middle" x="684" y="-63.5" font-family="Helvetica,sans-Serif" font-size="10.00">utility</text>
</a>
</g>
</g>
<!-- Node8&#45;&gt;Node18 -->
<g id="edge23" class="edge">
<title>Node8&#45;&gt;Node18</title>
<path fill="none" stroke="midnightblue" d="M746.95,-112.32C735.54,-104.11 718.17,-91.6 704.57,-81.81"/>
<polygon fill="midnightblue" stroke="midnightblue" points="706.43,-78.84 696.27,-75.83 702.34,-84.52 706.43,-78.84"/>
</g>
<!-- Node9&#45;&gt;Node7 -->
<g id="edge9" class="edge">
<title>Node9&#45;&gt;Node7</title>
<path fill="none" stroke="midnightblue" d="M1050,-56.08C1050,-49.01 1050,-38.86 1050,-29.99"/>
<polygon fill="midnightblue" stroke="midnightblue" points="1053.5,-29.75 1050,-19.75 1046.5,-29.75 1053.5,-29.75"/>
</g>
<!-- Node11 -->
<g id="node11" class="node">
<title>Node11</title>
<g id="a_node11"><a xlink:title=" ">
<polygon fill="none" stroke="#bfbfbf" points="442.5,-0.5 442.5,-19.5 495.5,-19.5 495.5,-0.5 442.5,-0.5"/>
<text text-anchor="middle" x="469" y="-7.5" font-family="Helvetica,sans-Serif" font-size="10.00">stdlib.h</text>
</a>
</g>
</g>
<!-- Node10&#45;&gt;Node11 -->
<g id="edge12" class="edge">
<title>Node10&#45;&gt;Node11</title>
<path fill="none" stroke="midnightblue" d="M469,-56.08C469,-49.01 469,-38.86 469,-29.99"/>
<polygon fill="midnightblue" stroke="midnightblue" points="472.5,-29.75 469,-19.75 465.5,-29.75 472.5,-29.75"/>
</g>
<!-- Node10&#45;&gt;Node12 -->
<g id="edge13" class="edge">
<title>Node10&#45;&gt;Node12</title>
<path fill="none" stroke="midnightblue" d="M496.25,-56.44C525.44,-47.28 571.92,-32.69 604.31,-22.52"/>
<polygon fill="midnightblue" stroke="midnightblue" points="605.38,-25.85 613.87,-19.52 603.28,-19.17 605.38,-25.85"/>
</g>
<!-- Node13&#45;&gt;Node3 -->
<g id="edge16" class="edge">
<title>Node13&#45;&gt;Node3</title>
<path fill="none" stroke="midnightblue" d="M233.27,-56.32C222.16,-48.11 205.26,-35.6 192.02,-25.81"/>
<polygon fill="midnightblue" stroke="midnightblue" points="194.06,-22.97 183.94,-19.83 189.9,-28.59 194.06,-22.97"/>
</g>
<!-- Node13&#45;&gt;Node5 -->
<g id="edge15" class="edge">
<title>Node13&#45;&gt;Node5</title>
<path fill="none" stroke="midnightblue" d="M253.09,-56.08C260.16,-48.3 270.59,-36.8 279.15,-27.37"/>
<polygon fill="midnightblue" stroke="midnightblue" points="281.93,-29.51 286.06,-19.75 276.75,-24.8 281.93,-29.51"/>
</g>
</g>
</svg>
        <g id="navigator" transform="translate(0 0)" fill="#404254">
                <rect fill="#f2f5e9" fill-opacity="0.5" stroke="#606060" stroke-width=".5" x="0" y="0" width="60" height="60"/>
                <use id="zoomplus" xlink:href="#zoomPlus" x="17" y="9" onmousedown="handleZoom(evt,'in')"/>
                <use id="zoomminus" xlink:href="#zoomMin" x="42" y="9" onmousedown="handleZoom(evt,'out')"/>
                <use id="reset" xlink:href="#resetDef" x="30" y="36" onmousedown="handleReset()"/>
                <g id="arrowUp" xlink:href="#dirArrow" transform="translate(30 24)" onmousedown="handlePan(0,-1)">
                  <use xlink:href="#rim" fill="#404040">
                        <set attributeName="fill" to="#808080" begin="arrowUp.mouseover" end="arrowUp.mouseout"/>
                  </use>
                  <path fill="none" stroke="white" stroke-width="1.5" d="M0,-3.0v7 M-2.5,-0.5L0,-3.0L2.5,-0.5"/>
                </g>
                <g id="arrowRight" xlink:href="#dirArrow" transform="rotate(90) translate(36 -43)" onmousedown="handlePan(1,0)">
                  <use xlink:href="#rim" fill="#404040">
                        <set attributeName="fill" to="#808080" begin="arrowRight.mouseover" end="arrowRight.mouseout"/>
                  </use>
                  <path fill="none" stroke="white" stroke-width="1.5" d="M0,-3.0v7 M-2.5,-0.5L0,-3.0L2.5,-0.5"/>
                </g>
                <g id="arrowDown" xlink:href="#dirArrow" transform="rotate(180) translate(-30 -48)" onmousedown="handlePan(0,1)">
                  <use xlink:href="#rim" fill="#404040">
                        <set attributeName="fill" to="#808080" begin="arrowDown.mouseover" end="arrowDown.mouseout"/>
                  </use>
                  <path fill="none" stroke="white" stroke-width="1.5" d="M0,-3.0v7 M-2.5,-0.5L0,-3.0L2.5,-0.5"/>
                </g>
                <g id="arrowLeft" xlink:href="#dirArrow" transform="rotate(270) translate(-36 17)" onmousedown="handlePan(-1,0)">
                  <use xlink:href="#rim" fill="#404040">
                        <set attributeName="fill" to="#808080" begin="arrowLeft.mouseover" end="arrowLeft.mouseout"/>
                  </use>
                  <path fill="none" stroke="white" stroke-width="1.5" d="M0,-3.0v7 M-2.5,-0.5L0,-3.0L2.5,-0.5"/>
                </g>
        </g>
        <svg viewBox="0 0 15 15" width="100%" height="30px" preserveAspectRatio="xMaxYMin meet">
         <g id="arrow_out" transform="scale(0.3 0.3)">
          <a xlink:href="tcp__cli__server__setup_8hh__incl_org.svg" target="_base">
           <rect id="button" ry="5" rx="5" y="6" x="6" height="38" width="38"
                fill="#f2f5e9" fill-opacity="0.5" stroke="#606060" stroke-width="1.0"/>
           <path id="arrow"
             d="M 11.500037,31.436501 C 11.940474,20.09759 22.043105,11.32322 32.158766,21.979434 L 37.068811,17.246167 C 37.068811,17.246167 37.088388,32 37.088388,32 L 22.160133,31.978069 C 22.160133,31.978069 26.997745,27.140456 26.997745,27.140456 C 18.528582,18.264221 13.291696,25.230495 11.500037,31.436501 z"
             style="fill:#404040;"/>
          </a>
         </g>
        </svg>
</svg>
