<?xml version="1.0" encoding="UTF-8" standalone="no"?>
<!DOCTYPE svg PUBLIC "-//W3C//DTD SVG 1.1//EN"
 "http://www.w3.org/Graphics/SVG/1.1/DTD/svg11.dtd">
<!-- Generated by graphviz version 2.43.0 (0)
 -->
<!-- Title: uout/uo_types.h Pages: 1 -->
<svg width="253pt" height="151pt"
 viewBox="0.00 0.00 252.50 151.00" xmlns="http://www.w3.org/2000/svg" xmlns:xlink="http://www.w3.org/1999/xlink">
<g id="graph0" class="graph" transform="scale(1 1) rotate(0) translate(4 147)">
<title>uout/uo_types.h</title>
<!-- Node1 -->
<g id="node1" class="node">
<title>Node1</title>
<g id="a_node1"><a xlink:title="API parameter and return types.">
<polygon fill="#bfbfbf" stroke="black" points="28,-123.5 28,-142.5 123,-142.5 123,-123.5 28,-123.5"/>
<text text-anchor="middle" x="75.5" y="-130.5" font-family="Helvetica,sans-Serif" font-size="10.00">uout/uo_types.h</text>
</a>
</g>
</g>
<!-- Node2 -->
<g id="node2" class="node">
<title>Node2</title>
<g id="a_node2"><a xlink:href="cli_8h.html" target="_top" xlink:title="cli framework">
<polygon fill="none" stroke="black" points="0,-67.5 0,-86.5 51,-86.5 51,-67.5 0,-67.5"/>
<text text-anchor="middle" x="25.5" y="-74.5" font-family="Helvetica,sans-Serif" font-size="10.00">cli/cli.h</text>
</a>
</g>
</g>
<!-- Node1&#45;&gt;Node2 -->
<g id="edge1" class="edge">
<title>Node1&#45;&gt;Node2</title>
<path fill="none" stroke="midnightblue" d="M60.42,-115.72C51.61,-106.2 40.83,-94.56 33.6,-86.75"/>
<polygon fill="midnightblue" stroke="midnightblue" points="57.88,-118.12 67.24,-123.08 63.02,-113.37 57.88,-118.12"/>
</g>
<!-- Node3 -->
<g id="node3" class="node">
<title>Node3</title>
<g id="a_node3"><a xlink:href="uo__callbacks_8h.html" target="_top" xlink:title="pub/sub interface to publish asynchronously to MQTT servers, HTTP&#45;client web&#45;sockets,...">
<polygon fill="none" stroke="black" points="69,-67.5 69,-86.5 182,-86.5 182,-67.5 69,-67.5"/>
<text text-anchor="middle" x="125.5" y="-74.5" font-family="Helvetica,sans-Serif" font-size="10.00">uout/uo_callbacks.h</text>
</a>
</g>
</g>
<!-- Node1&#45;&gt;Node3 -->
<g id="edge2" class="edge">
<title>Node1&#45;&gt;Node3</title>
<path fill="none" stroke="midnightblue" d="M90.58,-115.72C99.39,-106.2 110.17,-94.56 117.4,-86.75"/>
<polygon fill="midnightblue" stroke="midnightblue" points="87.98,-113.37 83.76,-123.08 93.12,-118.12 87.98,-113.37"/>
</g>
<!-- Node4 -->
<g id="node4" class="node">
<title>Node4</title>
<g id="a_node4"><a xlink:href="tcp__cli__server__setup_8hh.html" target="_top" xlink:title="Create TCP server for interactive and non&#45;interactive CLI clients.">
<polygon fill="none" stroke="black" points="11,-0.5 11,-30.5 114,-30.5 114,-0.5 11,-0.5"/>
<text text-anchor="start" x="19" y="-18.5" font-family="Helvetica,sans-Serif" font-size="10.00">net/tcp_cli_server</text>
<text text-anchor="middle" x="62.5" y="-7.5" font-family="Helvetica,sans-Serif" font-size="10.00">_setup.hh</text>
</a>
</g>
</g>
<!-- Node3&#45;&gt;Node4 -->
<g id="edge3" class="edge">
<title>Node3&#45;&gt;Node4</title>
<path fill="none" stroke="midnightblue" d="M108.95,-60.37C99.15,-51.11 86.83,-39.48 77.35,-30.52"/>
<polygon fill="midnightblue" stroke="midnightblue" points="106.8,-63.15 116.47,-67.48 111.61,-58.06 106.8,-63.15"/>
</g>
<!-- Node5 -->
<g id="node5" class="node">
<title>Node5</title>
<g id="a_node5"><a xlink:href="txtio__setup_8hh_source.html" target="_top" xlink:title=" ">
<polygon fill="none" stroke="black" points="132.5,-6 132.5,-25 244.5,-25 244.5,-6 132.5,-6"/>
<text text-anchor="middle" x="188.5" y="-13" font-family="Helvetica,sans-Serif" font-size="10.00">txtio/txtio_setup.hh</text>
</a>
</g>
</g>
<!-- Node3&#45;&gt;Node5 -->
<g id="edge4" class="edge">
<title>Node3&#45;&gt;Node5</title>
<path fill="none" stroke="midnightblue" d="M142.1,-60.32C154.07,-49.02 169.77,-34.19 179.49,-25.01"/>
<polygon fill="midnightblue" stroke="midnightblue" points="139.39,-58.06 134.53,-67.48 144.2,-63.15 139.39,-58.06"/>
</g>
</g>
</svg>
