<?xml version="1.0" encoding="UTF-8" standalone="no"?>
<!DOCTYPE svg PUBLIC "-//W3C//DTD SVG 1.1//EN"
 "http://www.w3.org/Graphics/SVG/1.1/DTD/svg11.dtd">
<!-- Generated by graphviz version 2.43.0 (0)
 -->
<!-- Title: uout/uout_writer.hh Pages: 1 -->
<svg width="450pt" height="274pt"
 viewBox="0.00 0.00 450.00 274.00" xmlns="http://www.w3.org/2000/svg" xmlns:xlink="http://www.w3.org/1999/xlink">
<g id="graph0" class="graph" transform="scale(1 1) rotate(0) translate(4 270)">
<title>uout/uout_writer.hh</title>
<!-- Node1 -->
<g id="node1" class="node">
<title>Node1</title>
<g id="a_node1"><a xlink:title="Provide an output class hierarchy which knows about the required format (text or JSON) and write func...">
<polygon fill="#bfbfbf" stroke="black" points="87.5,-246.5 87.5,-265.5 198.5,-265.5 198.5,-246.5 87.5,-246.5"/>
<text text-anchor="middle" x="143" y="-253.5" font-family="Helvetica,sans-Serif" font-size="10.00">uout/uout_writer.hh</text>
</a>
</g>
</g>
<!-- Node2 -->
<g id="node2" class="node">
<title>Node2</title>
<g id="a_node2"><a xlink:href="settings_8hh.html" target="_top" xlink:title=" ">
<polygon fill="none" stroke="black" points="16.5,-190.5 16.5,-209.5 141.5,-209.5 141.5,-190.5 16.5,-190.5"/>
<text text-anchor="middle" x="79" y="-197.5" font-family="Helvetica,sans-Serif" font-size="10.00">config_kvs/settings.hh</text>
</a>
</g>
</g>
<!-- Node1&#45;&gt;Node2 -->
<g id="edge1" class="edge">
<title>Node1&#45;&gt;Node2</title>
<path fill="none" stroke="midnightblue" d="M125.01,-239.82C113.54,-230.15 99.09,-217.95 89.47,-209.83"/>
<polygon fill="midnightblue" stroke="midnightblue" points="122.82,-242.55 132.72,-246.32 127.33,-237.2 122.82,-242.55"/>
</g>
<!-- Node6 -->
<g id="node6" class="node">
<title>Node6</title>
<g id="a_node6"><a xlink:href="uo__types_8h.html" target="_top" xlink:title="API parameter and return types.">
<polygon fill="none" stroke="black" points="159.5,-190.5 159.5,-209.5 254.5,-209.5 254.5,-190.5 159.5,-190.5"/>
<text text-anchor="middle" x="207" y="-197.5" font-family="Helvetica,sans-Serif" font-size="10.00">uout/uo_types.h</text>
</a>
</g>
</g>
<!-- Node1&#45;&gt;Node6 -->
<g id="edge5" class="edge">
<title>Node1&#45;&gt;Node6</title>
<path fill="none" stroke="midnightblue" d="M160.99,-239.82C172.46,-230.15 186.91,-217.95 196.53,-209.83"/>
<polygon fill="midnightblue" stroke="midnightblue" points="158.67,-237.2 153.28,-246.32 163.18,-242.55 158.67,-237.2"/>
</g>
<!-- Node3 -->
<g id="node3" class="node">
<title>Node3</title>
<g id="a_node3"><a xlink:href="settings__template_8hh_source.html" target="_top" xlink:title=" ">
<polygon fill="none" stroke="black" points="24,-123.5 24,-153.5 134,-153.5 134,-123.5 24,-123.5"/>
<text text-anchor="start" x="32" y="-141.5" font-family="Helvetica,sans-Serif" font-size="10.00">config_kvs/settings</text>
<text text-anchor="middle" x="79" y="-130.5" font-family="Helvetica,sans-Serif" font-size="10.00">_template.hh</text>
</a>
</g>
</g>
<!-- Node2&#45;&gt;Node3 -->
<g id="edge2" class="edge">
<title>Node2&#45;&gt;Node3</title>
<path fill="none" stroke="midnightblue" d="M79,-180.23C79,-171.59 79,-161.5 79,-153.52"/>
<polygon fill="midnightblue" stroke="midnightblue" points="75.5,-180.48 79,-190.48 82.5,-180.48 75.5,-180.48"/>
</g>
<!-- Node4 -->
<g id="node4" class="node">
<title>Node4</title>
<g id="a_node4"><a xlink:href="comp__settings_8hh.html" target="_top" xlink:title="Settings for shared components.">
<polygon fill="none" stroke="black" points="0,-62 0,-81 158,-81 158,-62 0,-62"/>
<text text-anchor="middle" x="79" y="-69" font-family="Helvetica,sans-Serif" font-size="10.00">config_kvs/comp_settings.hh</text>
</a>
</g>
</g>
<!-- Node3&#45;&gt;Node4 -->
<g id="edge3" class="edge">
<title>Node3&#45;&gt;Node4</title>
<path fill="none" stroke="midnightblue" d="M79,-113.25C79,-102.02 79,-89.38 79,-81.19"/>
<polygon fill="midnightblue" stroke="midnightblue" points="75.5,-113.4 79,-123.4 82.5,-113.4 75.5,-113.4"/>
</g>
<!-- Node5 -->
<g id="node5" class="node">
<title>Node5</title>
<g id="a_node5"><a xlink:href="config__kvs_8h_source.html" target="_top" xlink:title=" ">
<polygon fill="none" stroke="black" points="13,-0.5 13,-19.5 145,-19.5 145,-0.5 13,-0.5"/>
<text text-anchor="middle" x="79" y="-7.5" font-family="Helvetica,sans-Serif" font-size="10.00">config_kvs/config_kvs.h</text>
</a>
</g>
</g>
<!-- Node4&#45;&gt;Node5 -->
<g id="edge4" class="edge">
<title>Node4&#45;&gt;Node5</title>
<path fill="none" stroke="midnightblue" d="M79,-51.82C79,-41 79,-27.9 79,-19.51"/>
<polygon fill="midnightblue" stroke="midnightblue" points="75.5,-51.98 79,-61.98 82.5,-51.98 75.5,-51.98"/>
</g>
<!-- Node7 -->
<g id="node7" class="node">
<title>Node7</title>
<g id="a_node7"><a xlink:href="cli_8h.html" target="_top" xlink:title="cli framework">
<polygon fill="none" stroke="black" points="166.5,-129 166.5,-148 217.5,-148 217.5,-129 166.5,-129"/>
<text text-anchor="middle" x="192" y="-136" font-family="Helvetica,sans-Serif" font-size="10.00">cli/cli.h</text>
</a>
</g>
</g>
<!-- Node6&#45;&gt;Node7 -->
<g id="edge6" class="edge">
<title>Node6&#45;&gt;Node7</title>
<path fill="none" stroke="midnightblue" d="M202.38,-180.66C199.63,-169.77 196.28,-156.49 194.15,-148.01"/>
<polygon fill="midnightblue" stroke="midnightblue" points="199.01,-181.63 204.85,-190.48 205.8,-179.92 199.01,-181.63"/>
</g>
<!-- Node8 -->
<g id="node8" class="node">
<title>Node8</title>
<g id="a_node8"><a xlink:href="uo__callbacks_8h.html" target="_top" xlink:title="pub/sub interface to publish asynchronously to MQTT servers, HTTP&#45;client web&#45;sockets,...">
<polygon fill="none" stroke="black" points="235.5,-129 235.5,-148 348.5,-148 348.5,-129 235.5,-129"/>
<text text-anchor="middle" x="292" y="-136" font-family="Helvetica,sans-Serif" font-size="10.00">uout/uo_callbacks.h</text>
</a>
</g>
</g>
<!-- Node6&#45;&gt;Node8 -->
<g id="edge7" class="edge">
<title>Node6&#45;&gt;Node8</title>
<path fill="none" stroke="midnightblue" d="M227.55,-184.61C243.9,-173.17 266.22,-157.55 279.84,-148.01"/>
<polygon fill="midnightblue" stroke="midnightblue" points="225.36,-181.87 219.18,-190.48 229.38,-187.61 225.36,-181.87"/>
</g>
<!-- Node9 -->
<g id="node9" class="node">
<title>Node9</title>
<g id="a_node9"><a xlink:href="tcp__cli__server__setup_8hh.html" target="_top" xlink:title="Create TCP server for interactive and non&#45;interactive CLI clients.">
<polygon fill="none" stroke="black" points="208.5,-56.5 208.5,-86.5 311.5,-86.5 311.5,-56.5 208.5,-56.5"/>
<text text-anchor="start" x="216.5" y="-74.5" font-family="Helvetica,sans-Serif" font-size="10.00">net/tcp_cli_server</text>
<text text-anchor="middle" x="260" y="-63.5" font-family="Helvetica,sans-Serif" font-size="10.00">_setup.hh</text>
</a>
</g>
</g>
<!-- Node8&#45;&gt;Node9 -->
<g id="edge8" class="edge">
<title>Node8&#45;&gt;Node9</title>
<path fill="none" stroke="midnightblue" d="M283.24,-119.71C278.11,-109.29 271.72,-96.3 266.94,-86.59"/>
<polygon fill="midnightblue" stroke="midnightblue" points="280.13,-121.31 287.68,-128.73 286.41,-118.22 280.13,-121.31"/>
</g>
<!-- Node10 -->
<g id="node10" class="node">
<title>Node10</title>
<g id="a_node10"><a xlink:href="txtio__setup_8hh_source.html" target="_top" xlink:title=" ">
<polygon fill="none" stroke="black" points="330,-62 330,-81 442,-81 442,-62 330,-62"/>
<text text-anchor="middle" x="386" y="-69" font-family="Helvetica,sans-Serif" font-size="10.00">txtio/txtio_setup.hh</text>
</a>
</g>
</g>
<!-- Node8&#45;&gt;Node10 -->
<g id="edge9" class="edge">
<title>Node8&#45;&gt;Node10</title>
<path fill="none" stroke="midnightblue" d="M313.09,-122.92C331.67,-110.07 358.12,-91.78 373.52,-81.13"/>
<polygon fill="midnightblue" stroke="midnightblue" points="310.91,-120.17 304.68,-128.73 314.89,-125.93 310.91,-120.17"/>
</g>
</g>
</svg>
