<?xml version="1.0" encoding="UTF-8" standalone="no"?>
<!DOCTYPE svg PUBLIC "-//W3C//DTD SVG 1.1//EN"
 "http://www.w3.org/Graphics/SVG/1.1/DTD/svg11.dtd">
<!-- Generated by graphviz version 2.43.0 (0)
 -->
<!-- Title: weather/weather.hh Pages: 1 -->
<svg width="232pt" height="196pt"
 viewBox="0.00 0.00 232.00 196.00" xmlns="http://www.w3.org/2000/svg" xmlns:xlink="http://www.w3.org/1999/xlink">
<g id="graph0" class="graph" transform="scale(1 1) rotate(0) translate(4 192)">
<title>weather/weather.hh</title>
<!-- Node1 -->
<g id="node1" class="node">
<title>Node1</title>
<g id="a_node1"><a xlink:title="create and maintain weather data archive of last seven days">
<polygon fill="#bfbfbf" stroke="black" points="87.5,-168.5 87.5,-187.5 200.5,-187.5 200.5,-168.5 87.5,-168.5"/>
<text text-anchor="middle" x="144" y="-175.5" font-family="Helvetica,sans-Serif" font-size="10.00">weather/weather.hh</text>
</a>
</g>
</g>
<!-- Node2 -->
<g id="node2" class="node">
<title>Node2</title>
<g id="a_node2"><a xlink:href="weather__provider_8hh.html" target="_top" xlink:title="Interface for weather data provider.">
<polygon fill="none" stroke="black" points="0,-112.5 0,-131.5 116,-131.5 116,-112.5 0,-112.5"/>
<text text-anchor="middle" x="58" y="-119.5" font-family="Helvetica,sans-Serif" font-size="10.00">weather_provider.hh</text>
</a>
</g>
</g>
<!-- Node1&#45;&gt;Node2 -->
<g id="edge1" class="edge">
<title>Node1&#45;&gt;Node2</title>
<path fill="none" stroke="midnightblue" d="M130.18,-168.32C116.77,-159.9 96.18,-146.97 80.41,-137.07"/>
<polygon fill="midnightblue" stroke="midnightblue" points="82.11,-134.01 71.78,-131.65 78.39,-139.94 82.11,-134.01"/>
</g>
<!-- Node3 -->
<g id="node3" class="node">
<title>Node3</title>
<g id="a_node3"><a xlink:href="weather__data_8hh.html" target="_top" xlink:title="weather data like temperature, humidity, ...">
<polygon fill="none" stroke="black" points="52,-56.5 52,-75.5 150,-75.5 150,-56.5 52,-56.5"/>
<text text-anchor="middle" x="101" y="-63.5" font-family="Helvetica,sans-Serif" font-size="10.00">weather_data.hh</text>
</a>
</g>
</g>
<!-- Node1&#45;&gt;Node3 -->
<g id="edge4" class="edge">
<title>Node1&#45;&gt;Node3</title>
<path fill="none" stroke="midnightblue" d="M142.08,-168.4C139.14,-155.77 132.99,-131.6 125,-112 121.2,-102.67 116.04,-92.75 111.47,-84.6"/>
<polygon fill="midnightblue" stroke="midnightblue" points="114.37,-82.62 106.34,-75.7 108.3,-86.11 114.37,-82.62"/>
</g>
<!-- Node5 -->
<g id="node5" class="node">
<title>Node5</title>
<g id="a_node5"><a xlink:title=" ">
<polygon fill="none" stroke="#bfbfbf" points="172,-112.5 172,-131.5 224,-131.5 224,-112.5 172,-112.5"/>
<text text-anchor="middle" x="198" y="-119.5" font-family="Helvetica,sans-Serif" font-size="10.00">cassert</text>
</a>
</g>
</g>
<!-- Node1&#45;&gt;Node5 -->
<g id="edge5" class="edge">
<title>Node1&#45;&gt;Node5</title>
<path fill="none" stroke="midnightblue" d="M152.92,-168.08C160.78,-160.22 172.43,-148.57 181.92,-139.08"/>
<polygon fill="midnightblue" stroke="midnightblue" points="184.65,-141.3 189.25,-131.75 179.7,-136.35 184.65,-141.3"/>
</g>
<!-- Node2&#45;&gt;Node3 -->
<g id="edge2" class="edge">
<title>Node2&#45;&gt;Node3</title>
<path fill="none" stroke="midnightblue" d="M65.1,-112.08C71.24,-104.38 80.27,-93.03 87.74,-83.65"/>
<polygon fill="midnightblue" stroke="midnightblue" points="90.54,-85.75 94.03,-75.75 85.06,-81.39 90.54,-85.75"/>
</g>
<!-- Node4 -->
<g id="node4" class="node">
<title>Node4</title>
<g id="a_node4"><a xlink:title=" ">
<polygon fill="none" stroke="#bfbfbf" points="78,-0.5 78,-19.5 124,-19.5 124,-0.5 78,-0.5"/>
<text text-anchor="middle" x="101" y="-7.5" font-family="Helvetica,sans-Serif" font-size="10.00">cstdio</text>
</a>
</g>
</g>
<!-- Node3&#45;&gt;Node4 -->
<g id="edge3" class="edge">
<title>Node3&#45;&gt;Node4</title>
<path fill="none" stroke="midnightblue" d="M101,-56.08C101,-49.01 101,-38.86 101,-29.99"/>
<polygon fill="midnightblue" stroke="midnightblue" points="104.5,-29.75 101,-19.75 97.5,-29.75 104.5,-29.75"/>
</g>
</g>
</svg>
