<?xml version="1.0" encoding="UTF-8" standalone="no"?>
<!DOCTYPE svg PUBLIC "-//W3C//DTD SVG 1.1//EN"
 "http://www.w3.org/Graphics/SVG/1.1/DTD/svg11.dtd">
<!-- Generated by graphviz version 2.43.0 (0)
 -->
<!-- Title: weather/weather_provider_owm.hh Pages: 1 -->
<svg width="188pt" height="207pt"
 viewBox="0.00 0.00 187.50 207.00" xmlns="http://www.w3.org/2000/svg" xmlns:xlink="http://www.w3.org/1999/xlink">
<g id="graph0" class="graph" transform="scale(1 1) rotate(0) translate(4 203)">
<title>weather/weather_provider_owm.hh</title>
<!-- Node1 -->
<g id="node1" class="node">
<title>Node1</title>
<g id="a_node1"><a xlink:title="get weather data from api.openweathermap.org">
<polygon fill="#bfbfbf" stroke="black" points="34.5,-168.5 34.5,-198.5 179.5,-198.5 179.5,-168.5 34.5,-168.5"/>
<text text-anchor="start" x="42.5" y="-186.5" font-family="Helvetica,sans-Serif" font-size="10.00">weather/weather_provider</text>
<text text-anchor="middle" x="107" y="-175.5" font-family="Helvetica,sans-Serif" font-size="10.00">_owm.hh</text>
</a>
</g>
</g>
<!-- Node2 -->
<g id="node2" class="node">
<title>Node2</title>
<g id="a_node2"><a xlink:href="weather__provider_8hh.html" target="_top" xlink:title="Interface for weather data provider.">
<polygon fill="none" stroke="black" points="0,-112.5 0,-131.5 116,-131.5 116,-112.5 0,-112.5"/>
<text text-anchor="middle" x="58" y="-119.5" font-family="Helvetica,sans-Serif" font-size="10.00">weather_provider.hh</text>
</a>
</g>
</g>
<!-- Node1&#45;&gt;Node2 -->
<g id="edge1" class="edge">
<title>Node1&#45;&gt;Node2</title>
<path fill="none" stroke="midnightblue" d="M95.39,-168.4C88.27,-159.75 79.12,-148.64 71.65,-139.58"/>
<polygon fill="midnightblue" stroke="midnightblue" points="74.19,-137.15 65.13,-131.66 68.79,-141.6 74.19,-137.15"/>
</g>
<!-- Node5 -->
<g id="node5" class="node">
<title>Node5</title>
<g id="a_node5"><a xlink:title=" ">
<polygon fill="none" stroke="#bfbfbf" points="134,-112.5 134,-131.5 178,-131.5 178,-112.5 134,-112.5"/>
<text text-anchor="middle" x="156" y="-119.5" font-family="Helvetica,sans-Serif" font-size="10.00">string</text>
</a>
</g>
</g>
<!-- Node1&#45;&gt;Node5 -->
<g id="edge4" class="edge">
<title>Node1&#45;&gt;Node5</title>
<path fill="none" stroke="midnightblue" d="M118.61,-168.4C125.73,-159.75 134.88,-148.64 142.35,-139.58"/>
<polygon fill="midnightblue" stroke="midnightblue" points="145.21,-141.6 148.87,-131.66 139.81,-137.15 145.21,-141.6"/>
</g>
<!-- Node3 -->
<g id="node3" class="node">
<title>Node3</title>
<g id="a_node3"><a xlink:href="weather__data_8hh.html" target="_top" xlink:title="weather data like temperature, humidity, ...">
<polygon fill="none" stroke="black" points="9,-56.5 9,-75.5 107,-75.5 107,-56.5 9,-56.5"/>
<text text-anchor="middle" x="58" y="-63.5" font-family="Helvetica,sans-Serif" font-size="10.00">weather_data.hh</text>
</a>
</g>
</g>
<!-- Node2&#45;&gt;Node3 -->
<g id="edge2" class="edge">
<title>Node2&#45;&gt;Node3</title>
<path fill="none" stroke="midnightblue" d="M58,-112.08C58,-105.01 58,-94.86 58,-85.99"/>
<polygon fill="midnightblue" stroke="midnightblue" points="61.5,-85.75 58,-75.75 54.5,-85.75 61.5,-85.75"/>
</g>
<!-- Node4 -->
<g id="node4" class="node">
<title>Node4</title>
<g id="a_node4"><a xlink:title=" ">
<polygon fill="none" stroke="#bfbfbf" points="35,-0.5 35,-19.5 81,-19.5 81,-0.5 35,-0.5"/>
<text text-anchor="middle" x="58" y="-7.5" font-family="Helvetica,sans-Serif" font-size="10.00">cstdio</text>
</a>
</g>
</g>
<!-- Node3&#45;&gt;Node4 -->
<g id="edge3" class="edge">
<title>Node3&#45;&gt;Node4</title>
<path fill="none" stroke="midnightblue" d="M58,-56.08C58,-49.01 58,-38.86 58,-29.99"/>
<polygon fill="midnightblue" stroke="midnightblue" points="61.5,-29.75 58,-19.75 54.5,-29.75 61.5,-29.75"/>
</g>
</g>
</svg>
